<?xml version="1.0" ?>
<svg xmlns="http://www.w3.org/2000/svg" width="4000" height="4000" padding="500">
  <text x="2000.0" y="125.0" fill="gray" stroke="none" font-size="60" font-family="p22" text-anchor="middle" dominant-baseline="hanging">Sri Lanka</text>
  <text x="2000.0" y="250.0" fill="gray" stroke="none" font-size="120" font-family="p22" text-anchor="middle" dominant-baseline="hanging">Population Optimized Hypothetical Railway Network</text>
  <text x="2000.0" y="3750.0" fill="gray" stroke="none" font-size="60" font-family="p22" text-anchor="middle" dominant-baseline="hanging">music by @bensound ~ visualization by @nuuuwan</text>
  <text x="3000.0" y="1000.0" fill="lightgrey" stroke="none" font-size="180" font-family="p22" text-anchor="start" dominant-baseline="hanging">2,597km</text>
  <text x="3000.0" y="1120.0" fill="lightgrey" stroke="none" font-size="60" font-family="p22" text-anchor="start" dominant-baseline="hanging">with Ampara to Moneragala</text>
  <path fill="none" stroke="#c8ffc6" stroke-width="40" stroke-opacity="1" d="M 2691.0,2574.0 L 2484.0581135797142,2781.936799335768 C 2484.054586534449,2781.9403433379816 2483.0,2784.495 2483.0,2784.5 L 2483.0,2955.0"/>
  <path fill="none" stroke="#c6ffc0" stroke-width="40" stroke-opacity="1" d="M 1999.0,2211.0 L 1672.0606601717798,2537.93933982822 C 1672.0571246378738,2537.942875362126 1671.0,2540.495 1671.0,2540.5 L 1671.0,2687.0"/>
  <path fill="none" stroke="#c4ffbb" stroke-width="40" stroke-opacity="1" d="M 2304.0,1464.0 L 2170.064595790278,1596.9432901044647 C 2170.061047137644,1596.9468124707832 2167.505,1598.0 2167.5,1598.0 L 1814.0,1598.0"/>
  <path fill="none" stroke="#c2ffb5" stroke-width="40" stroke-opacity="1" d="M 1488.0,3132.0 L 1669.9364379015349,2951.0577502837195 C 1669.9399831085298,2951.0542244494404 1671.0,2948.505 1671.0,2948.5 L 1671.0,2687.0"/>
  <path fill="none" stroke="#c1feb0" stroke-width="40" stroke-opacity="1" d="M 1859.0,3124.0 L 1672.0578430281614,2936.0634698527792 C 1672.0543168847341,2936.05992495327 1671.0,2933.505 1671.0,2933.5 L 1671.0,2687.0"/>
  <path fill="none" stroke="#c0ffaa" stroke-width="40" stroke-opacity="1" d="M 1581.0,2213.0 L 1669.9393398282202,2301.93933982822 C 1669.9428753621262,2301.942875362126 1671.0,2304.495 1671.0,2304.5 L 1671.0,2687.0"/>
  <path fill="none" stroke="#c0ffa5" stroke-width="40" stroke-opacity="1" d="M 1981.0,2544.0 L 2417.9405499356217,2106.0618689001417 C 2417.9440814358363,2106.0583293371415 2420.495,2105.0 2420.5,2105.0 L 2637.0,2105.0"/>
  <path fill="none" stroke="#c0ff9f" stroke-width="40" stroke-opacity="1" d="M 1982.0,2797.0 L 2307.93933982822,3122.93933982822 C 2307.942875362126,3122.942875362126 2309.0,3125.495 2309.0,3125.5 L 2309.0,3401.0"/>
  <path fill="none" stroke="#c1ff9a" stroke-width="40" stroke-opacity="1" d="M 1814.0,1598.0 L 2149.93933982822,1933.9393398282202 C 2149.942875362126,1933.9428753621262 2152.495,1935.0 2152.5,1935.0 L 2248.0,1935.0"/>
  <path fill="none" stroke="#c2ff94" stroke-width="40" stroke-opacity="1" d="M 1594.0,3432.0 L 1857.9413391823193,3167.0626557641626 C 1857.9448680517116,3167.059113578282 1859.0,3164.505 1859.0,3164.5 L 1859.0,3124.0"/>
  <path fill="none" stroke="#c4ff8f" stroke-width="40" stroke-opacity="1" d="M 1845.0,943.0 L 1637.0707106781188,735.0707106781186 C 1637.0704749758584,735.0704749758582 1637.0,734.9003333333334 1637.0,734.9 L 1637.0,733.0"/>
  <path fill="none" stroke="#c6ff89" stroke-width="40" stroke-opacity="1" d="M 1999.0,2211.0 L 1996.15,2212.9 C 1996.1495,2212.9003333333335 1995.8203233614395,2213.0 1995.8197224362268,2213.0 L 1581.0,2213.0"/>
  <path fill="none" stroke="#c9fe83" stroke-width="40" stroke-opacity="1" d="M 2637.0,2105.0 L 2468.06066017178,1936.0606601717798 C 2468.057124637874,1936.0571246378738 2465.505,1935.0 2465.5,1935.0 L 2248.0,1935.0"/>
  <path fill="none" stroke="#ccff7e" stroke-width="40" stroke-opacity="1" d="M 1982.0,2797.0 L 1873.0606601717798,2688.06066017178 C 1873.0571246378738,2688.057124637874 1870.505,2687.0 1870.5,2687.0 L 1671.0,2687.0"/>
  <path fill="none" stroke="#d0ff78" stroke-width="40" stroke-opacity="1" d="M 2309.0,3401.0 L 2481.93933982822,3228.06066017178 C 2481.942875362126,3228.057124637874 2483.0,3225.505 2483.0,3225.5 L 2483.0,2955.0"/>
  <path fill="none" stroke="#d4ff73" stroke-width="40" stroke-opacity="1" d="M 1999.0,2211.0 L 1815.0606601717798,2027.0606601717798 C 1815.0571246378738,2027.0571246378738 1814.0,2024.505 1814.0,2024.5 L 1814.0,1598.0"/>
  <path fill="none" stroke="#d9ff6d" stroke-width="40" stroke-opacity="1" d="M 1397.0,2885.0 L 1594.936671513436,2688.057985127335 C 1594.9402159417248,2688.054458510244 1597.495,2687.0 1597.5,2687.0 L 1671.0,2687.0"/>
  <path fill="none" stroke="#defe68" stroke-width="40" stroke-opacity="1" d="M 1982.0,2797.0 L 2065.93933982822,2713.06066017178 C 2065.942875362126,2713.057124637874 2068.495,2712.0 2068.5,2712.0 L 2264.0,2712.0"/>
  <path fill="none" stroke="#e3ff62" stroke-width="40" stroke-opacity="1" d="M 1837.0,3500.0 L 1857.963166031049,3478.0839627857217 C 1857.9666221442787,3478.0803495764358 1859.0,3475.505 1859.0,3475.5 L 1859.0,3124.0"/>
  <path fill="none" stroke="#e9ff5d" stroke-width="40" stroke-opacity="1" d="M 1581.0,2213.0 L 1812.9393398282202,1981.0606601717798 C 1812.9428753621262,1981.0571246378738 1814.0,1978.505 1814.0,1978.5 L 1814.0,1598.0"/>
  <path fill="none" stroke="#f0ff57" stroke-width="40" stroke-opacity="1" d="M 1982.0,2797.0 L 1860.0649805258663,2917.9436778523927 C 1860.06143059078,2917.9471989262183 1859.0,2920.495 1859.0,2920.5 L 1859.0,3124.0"/>
  <path fill="none" stroke="#f7ff52" stroke-width="40" stroke-opacity="1" d="M 1981.0,2544.0 L 1839.0606601717798,2685.93933982822 C 1839.0571246378738,2685.942875362126 1836.505,2687.0 1836.5,2687.0 L 1671.0,2687.0"/>
  <path fill="none" stroke="#fefe4c" stroke-width="40" stroke-opacity="1" d="M 1456.0,1188.0 L 1475.95,1207.95 C 1475.9535,1207.9535 1478.4799744930235,1209.0 1478.4849242404916,1209.0 L 1776.0,1209.0"/>
  <path fill="none" stroke="#fff646" stroke-width="40" stroke-opacity="1" d="M 1776.0,1209.0 L 1843.9393398282202,1141.0606601717798 C 1843.9428753621262,1141.0571246378738 1845.0,1138.505 1845.0,1138.5 L 1845.0,943.0"/>
  <path fill="none" stroke="#ffee41" stroke-width="40" stroke-opacity="1" d="M 1776.0,1209.0 L 1812.9532029096345,1246.9256556177827 C 1812.956692233269,1246.9292367657233 1814.0,1249.495 1814.0,1249.5 L 1814.0,1598.0"/>
  <path fill="none" stroke="#ffe53b" stroke-width="40" stroke-opacity="1" d="M 1464.0,500.0 L 1635.9393398282202,671.9393398282202 C 1635.9428753621262,671.9428753621261 1637.0,674.495 1637.0,674.5 L 1637.0,733.0"/>
  <path fill="none" stroke="#ffdc36" stroke-width="40" stroke-opacity="1" d="M 2304.0,1464.0 L 2249.070172240914,1517.9489379776737 C 2249.066605000111,1517.952441517748 2248.0,1520.495 2248.0,1520.5 L 2248.0,1935.0"/>
  <path fill="none" stroke="#fed230" stroke-width="40" stroke-opacity="1" d="M 1999.0,2211.0 L 2247.0826051885615,1961.9210791279504 C 2247.0856631712663,1961.9180088641904 2248.0,1959.7043333333334 2248.0,1959.7 L 2248.0,1935.0"/>
  <path fill="none" stroke="#ffc72b" stroke-width="40" stroke-opacity="1" d="M 1981.0,2544.0 L 1998.1,2526.9 C 1998.103,2526.897 1999.0,2524.7314504345513 1999.0,2524.727207793864 L 1999.0,2211.0"/>
  <path fill="none" stroke="#ffbc25" stroke-width="40" stroke-opacity="1" d="M 1464.0,500.0 L 1812.9393398282202,848.9393398282202 C 1812.9428753621262,848.9428753621261 1814.0,851.495 1814.0,851.5 L 1814.0,1598.0"/>
  <path fill="none" stroke="#ffb120" stroke-width="40" stroke-opacity="1" d="M 1837.0,3500.0 L 1934.9393398282202,3402.06066017178 C 1934.9428753621262,3402.057124637874 1937.495,3401.0 1937.5,3401.0 L 2309.0,3401.0"/>
  <path fill="none" stroke="#ffa51a" stroke-width="40" stroke-opacity="1" d="M 2264.0,2712.0 L 2482.1514718625763,2930.1514718625763 C 2482.154300289701,2930.154300289701 2483.0,2932.196 2483.0,2932.2 L 2483.0,2955.0"/>
  <path fill="none" stroke="#ff9915" stroke-width="40" stroke-opacity="1" d="M 2637.0,2105.0 L 2689.93933982822,2157.93933982822 C 2689.942875362126,2157.942875362126 2691.0,2160.495 2691.0,2160.5 L 2691.0,2574.0"/>
  <path fill="none" stroke="#ff8c0f" stroke-width="40" stroke-opacity="1" d="M 1396.0,2670.0 L 1412.15,2686.15 C 1412.1528333333333,2686.1528333333335 1414.1980745895903,2687.0 1414.202081528017,2687.0 L 1671.0,2687.0"/>
  <path fill="none" stroke="#ff7f09" stroke-width="40" stroke-opacity="1" d="M 1981.0,2544.0 L 1981.95,2544.95 C 1981.9501666666667,2544.9501666666665 1982.0,2545.0704749758584 1982.0,2545.0707106781188 L 1982.0,2797.0"/>
  <path fill="none" stroke="#ff7104" stroke-width="40" stroke-opacity="1" d="M 2691.0,2574.0 L 2554.06066017178,2710.93933982822 C 2554.057124637874,2710.942875362126 2551.505,2712.0 2551.5,2712.0 L 2264.0,2712.0"/>
  <path fill="none" stroke="#fd6300" stroke-width="40" stroke-opacity="1" d="M 1308.0,1952.0 L 1660.9393398282202,1599.0606601717798 C 1660.9428753621262,1599.0571246378738 1663.495,1598.0 1663.5,1598.0 L 1814.0,1598.0"/>
  <path fill="none" stroke="#f85600" stroke-width="40" stroke-opacity="1" d="M 1981.0,2544.0 L 2147.93933982822,2710.93933982822 C 2147.942875362126,2710.942875362126 2150.495,2712.0 2150.5,2712.0 L 2264.0,2712.0"/>
  <path fill="none" stroke="#f24900" stroke-width="40" stroke-opacity="1" d="M 1981.0,2544.0 L 1651.0606601717798,2214.06066017178 C 1651.0571246378738,2214.057124637874 1648.505,2213.0 1648.5,2213.0 L 1581.0,2213.0"/>
  <path fill="none" stroke="#ed3d00" stroke-width="40" stroke-opacity="1" d="M 1488.0,3132.0 L 1495.6,3124.4 C 1495.6013333333333,3124.3986666666665 1496.563799806866,3124.0 1496.5656854249492,3124.0 L 1859.0,3124.0"/>
  <path fill="none" stroke="#e73200" stroke-width="40" stroke-opacity="1" d="M 1581.0,2213.0 L 1320.4242640687119,1952.4242640687119 C 1320.4228498551495,1952.4228498551495 1319.402,1952.0 1319.4,1952.0 L 1308.0,1952.0"/>
  <path fill="none" stroke="#e22700" stroke-width="40" stroke-opacity="1" d="M 1594.0,3432.0 L 1659.9472254525408,3498.931512399594 C 1659.9507347010324,3498.9350740249283 1662.495,3500.0 1662.5,3500.0 L 1837.0,3500.0"/>
  <path fill="none" stroke="#dc1c00" stroke-width="40" stroke-opacity="1" d="M 1488.0,3132.0 L 1592.9393398282202,3236.93933982822 C 1592.9428753621262,3236.942875362126 1594.0,3239.495 1594.0,3239.5 L 1594.0,3432.0"/>
  <path fill="none" stroke="#d71200" stroke-width="40" stroke-opacity="1" d="M 1397.0,2885.0 L 1486.9393398282202,2974.93933982822 C 1486.9428753621262,2974.942875362126 1488.0,2977.495 1488.0,2977.5 L 1488.0,3132.0"/>
  <path fill="none" stroke="#d10900" stroke-width="40" stroke-opacity="1" d="M 1396.0,2670.0 L 1579.9364693158193,2487.0577818696715 C 1579.9400144181,2487.054255930106 1581.0,2484.505 1581.0,2484.5 L 1581.0,2213.0"/>
  <path fill="none" stroke="#cc0000" stroke-width="40" stroke-opacity="1" d="M 1397.0,2885.0 L 1396.05,2884.05 C 1396.0498333333333,2884.0498333333335 1396.0,2883.9295250241416 1396.0,2883.9292893218812 L 1396.0,2670.0"/>
  <g>
    <circle r="40.0" fill="white" stroke="gray" stroke-width="10.0" cx="1397" cy="2885"/>
    <text fill="black" stroke="none" font-size="60" font-family="p22" font-weight="100" text-anchor="start" dominant-baseline="central" x="1437" y="2885">Colombo</text>
  </g>
  <g>
    <circle r="34.64101615137754" fill="white" stroke="gray" stroke-width="10.0" cx="1396" cy="2670"/>
    <text fill="black" stroke="none" font-size="60" font-family="p22" font-weight="100" text-anchor="start" dominant-baseline="central" x="1436" y="2670">Gampaha</text>
  </g>
  <g>
    <circle r="40.0" fill="white" stroke="gray" stroke-width="10.0" cx="1488" cy="3132"/>
    <text fill="black" stroke="none" font-size="60" font-family="p22" font-weight="100" text-anchor="start" dominant-baseline="central" x="1528" y="3132">Kalutara</text>
  </g>
  <g>
    <circle r="52.91502622129181" fill="white" stroke="gray" stroke-width="10.0" cx="1981" cy="2544"/>
    <text fill="black" stroke="none" font-size="60" font-family="p22" font-weight="100" text-anchor="start" dominant-baseline="central" x="2021" y="2544">Kandy</text>
  </g>
  <g>
    <circle r="44.721359549995796" fill="white" stroke="gray" stroke-width="10.0" cx="1999" cy="2211"/>
    <text fill="black" stroke="none" font-size="60" font-family="p22" font-weight="100" text-anchor="start" dominant-baseline="central" x="2039" y="2211">Matale</text>
  </g>
  <g>
    <circle r="44.721359549995796" fill="white" stroke="gray" stroke-width="10.0" cx="1982" cy="2797"/>
    <text fill="black" stroke="none" font-size="60" font-family="p22" font-weight="100" text-anchor="start" dominant-baseline="central" x="2022" y="2797">Nuwara Eliya</text>
  </g>
  <g>
    <circle r="34.64101615137754" fill="white" stroke="gray" stroke-width="10.0" cx="1594" cy="3432"/>
    <text fill="black" stroke="none" font-size="60" font-family="p22" font-weight="100" text-anchor="start" dominant-baseline="central" x="1634" y="3432">Galle</text>
  </g>
  <g>
    <circle r="34.64101615137754" fill="white" stroke="gray" stroke-width="10.0" cx="1837" cy="3500"/>
    <text fill="black" stroke="none" font-size="60" font-family="p22" font-weight="100" text-anchor="start" dominant-baseline="central" x="1877" y="3500">Matara</text>
  </g>
  <g>
    <circle r="28.284271247461902" fill="white" stroke="gray" stroke-width="10.0" cx="2309" cy="3401"/>
    <text fill="black" stroke="none" font-size="60" font-family="p22" font-weight="100" text-anchor="start" dominant-baseline="central" x="2349" y="3401">Hambantota</text>
  </g>
  <g>
    <circle r="34.64101615137754" fill="white" stroke="gray" stroke-width="10.0" cx="1464" cy="500"/>
    <text fill="black" stroke="none" font-size="60" font-family="p22" font-weight="100" text-anchor="start" dominant-baseline="central" x="1504" y="500">Jaffna</text>
  </g>
  <g>
    <circle r="28.284271247461902" fill="white" stroke="gray" stroke-width="10.0" cx="1456" cy="1188"/>
    <text fill="black" stroke="none" font-size="60" font-family="p22" font-weight="100" text-anchor="start" dominant-baseline="central" x="1496" y="1188">Mannar</text>
  </g>
  <g>
    <circle r="34.64101615137754" fill="white" stroke="gray" stroke-width="10.0" cx="1776" cy="1209"/>
    <text fill="black" stroke="none" font-size="60" font-family="p22" font-weight="100" text-anchor="start" dominant-baseline="central" x="1816" y="1209">Vavuniya</text>
  </g>
  <g>
    <circle r="28.284271247461902" fill="white" stroke="gray" stroke-width="10.0" cx="1845" cy="943"/>
    <text fill="black" stroke="none" font-size="60" font-family="p22" font-weight="100" text-anchor="start" dominant-baseline="central" x="1885" y="943">Mullaitivu</text>
  </g>
  <g>
    <circle r="20.0" fill="white" stroke="gray" stroke-width="10.0" cx="1637" cy="733"/>
    <text fill="black" stroke="none" font-size="60" font-family="p22" font-weight="100" text-anchor="start" dominant-baseline="central" x="1677" y="733">Kilinochchi</text>
  </g>
  <g>
    <circle r="34.64101615137754" fill="white" stroke="gray" stroke-width="10.0" cx="2637" cy="2105"/>
    <text fill="black" stroke="none" font-size="60" font-family="p22" font-weight="100" text-anchor="start" dominant-baseline="central" x="2677" y="2105">Batticaloa</text>
  </g>
  <g>
    <circle r="34.64101615137754" fill="white" stroke="gray" stroke-width="10.0" cx="2691" cy="2574"/>
    <text fill="black" stroke="none" font-size="60" font-family="p22" font-weight="100" text-anchor="start" dominant-baseline="central" x="2731" y="2574">Ampara</text>
  </g>
  <g>
    <circle r="34.64101615137754" fill="white" stroke="gray" stroke-width="10.0" cx="2304" cy="1464"/>
    <text fill="black" stroke="none" font-size="60" font-family="p22" font-weight="100" text-anchor="start" dominant-baseline="central" x="2344" y="1464">Trincomalee</text>
  </g>
  <g>
    <circle r="40.0" fill="white" stroke="gray" stroke-width="10.0" cx="1581" cy="2213"/>
    <text fill="black" stroke="none" font-size="60" font-family="p22" font-weight="100" text-anchor="start" dominant-baseline="central" x="1621" y="2213">Kurunegala</text>
  </g>
  <g>
    <circle r="28.284271247461902" fill="white" stroke="gray" stroke-width="10.0" cx="1308" cy="1952"/>
    <text fill="black" stroke="none" font-size="60" font-family="p22" font-weight="100" text-anchor="start" dominant-baseline="central" x="1348" y="1952">Puttalam</text>
  </g>
  <g>
    <circle r="28.284271247461902" fill="white" stroke="gray" stroke-width="10.0" cx="1814" cy="1598"/>
    <text fill="black" stroke="none" font-size="60" font-family="p22" font-weight="100" text-anchor="start" dominant-baseline="central" x="1854" y="1598">Anuradhapura</text>
  </g>
  <g>
    <circle r="20.0" fill="white" stroke="gray" stroke-width="10.0" cx="2248" cy="1935"/>
    <text fill="black" stroke="none" font-size="60" font-family="p22" font-weight="100" text-anchor="start" dominant-baseline="central" x="2288" y="1935">Polonnaruwa</text>
  </g>
  <g>
    <circle r="28.284271247461902" fill="white" stroke="gray" stroke-width="10.0" cx="2264" cy="2712"/>
    <text fill="black" stroke="none" font-size="60" font-family="p22" font-weight="100" text-anchor="start" dominant-baseline="central" x="2304" y="2712">Badulla</text>
  </g>
  <g>
    <circle r="20.0" fill="white" stroke="gray" stroke-width="10.0" cx="2483" cy="2955"/>
    <text fill="black" stroke="none" font-size="60" font-family="p22" font-weight="100" text-anchor="start" dominant-baseline="central" x="2523" y="2955">Moneragala</text>
  </g>
  <g>
    <circle r="28.284271247461902" fill="white" stroke="gray" stroke-width="10.0" cx="1859" cy="3124"/>
    <text fill="black" stroke="none" font-size="60" font-family="p22" font-weight="100" text-anchor="start" dominant-baseline="central" x="1899" y="3124">Ratnapura</text>
  </g>
  <g>
    <circle r="20.0" fill="white" stroke="gray" stroke-width="10.0" cx="1671" cy="2687"/>
    <text fill="black" stroke="none" font-size="60" font-family="p22" font-weight="100" text-anchor="start" dominant-baseline="central" x="1711" y="2687">Kegalle</text>
  </g>
</svg>
