<?xml version="1.0" ?>
<svg xmlns="http://www.w3.org/2000/svg" width="4000" height="4000" padding="500">
  <text x="2000.0" y="125.0" fill="gray" stroke="none" font-size="60" font-family="p22" text-anchor="middle" dominant-baseline="hanging">Sri Lanka</text>
  <text x="2000.0" y="250.0" fill="gray" stroke="none" font-size="120" font-family="p22" text-anchor="middle" dominant-baseline="hanging">Population Optimized Hypothetical Railway Network</text>
  <text x="2000.0" y="3750.0" fill="gray" stroke="none" font-size="60" font-family="p22" text-anchor="middle" dominant-baseline="hanging">music by @bensound ~ visualization by @nuuuwan</text>
  <text x="3000.0" y="1000.0" fill="lightgrey" stroke="none" font-size="180" font-family="p22" text-anchor="start" dominant-baseline="hanging">216km</text>
  <text x="3000.0" y="1120.0" fill="lightgrey" stroke="none" font-size="90.0" font-family="p22" text-anchor="start" dominant-baseline="hanging">+ Kalutara to Ratnapura</text>
  <path fill="none" stroke="#c1ff99" stroke-width="40" stroke-opacity="1" d="M 1506.0,2762.0 L 1514.55,2752.5 C 1514.5515,2752.4983333333334 1515.6704389316792,2752.0 1515.6726812023537,2752.0 L 2408.3273187976465,2752.0 C 2408.329561068321,2752.0 2409.4485,2751.5016666666666 2409.45,2751.5 L 2418.0,2742.0"/>
  <path fill="none" stroke="#e0ff65" stroke-width="40" stroke-opacity="1" d="M 1506.0,2762.0 L 1633.9434429164428,2890.935252551454 C 1633.9469647733881,2890.9388017096157 1635.0,2893.495 1635.0,2893.5 L 1635.0,3368.5 C 1635.0,3368.505 1636.0571246378738,3371.057124637874 1636.0606601717798,3371.06066017178 L 1765.0,3500.0"/>
  <path fill="none" stroke="#ffd633" stroke-width="40" stroke-opacity="1" d="M 1281.0,2154.0 L 1392.9346363050709,2264.9440643023713 C 1392.9381875173874,2264.94758408803 1394.0,2267.495 1394.0,2267.5 L 1394.0,2648.5 C 1394.0,2648.505 1395.0571246378738,2651.057124637874 1395.0606601717798,2651.06066017178 L 1506.0,2762.0"/>
  <path fill="none" stroke="#ff6500" stroke-width="40" stroke-opacity="1" d="M 1279.0,1625.0 L 1504.9393398282202,1399.0606601717798 C 1504.9428753621262,1399.0571246378738 1506.0,1396.505 1506.0,1396.5 L 1506.0,728.5 C 1506.0,728.495 1507.0571246378738,725.9428753621261 1507.0606601717798,725.9393398282202 L 1733.0,500.0"/>
  <path fill="none" stroke="#cc0000" stroke-width="40" stroke-opacity="1" d="M 1281.0,2154.0 L 1280.05,2152.1 C 1280.0498333333333,2152.0996666666665 1280.0,2151.8885692791214 1280.0,2151.888196601125 L 1280.0,1627.111803398875 C 1280.0,1627.1114307208788 1279.9501666666667,1626.9003333333333 1279.95,1626.9 L 1279.0,1625.0"/>
  <g>
    <circle r="34.64101615137754" fill="white" stroke="gray" stroke-width="10.0" cx="1281" cy="2154"/>
    <text fill="black" stroke="none" font-size="60" font-family="p22" font-weight="100" text-anchor="start" dominant-baseline="central" x="1321" y="2154">Colombo</text>
  </g>
  <g>
    <circle r="34.64101615137754" fill="white" stroke="gray" stroke-width="10.0" cx="1279" cy="1625"/>
    <text fill="black" stroke="none" font-size="60" font-family="p22" font-weight="100" text-anchor="start" dominant-baseline="central" x="1319" y="1625">Gampaha</text>
  </g>
  <g>
    <circle r="40.0" fill="white" stroke="gray" stroke-width="10.0" cx="1506" cy="2762"/>
    <text fill="black" stroke="none" font-size="60" font-family="p22" font-weight="100" text-anchor="start" dominant-baseline="central" x="1546" y="2762">Kalutara</text>
  </g>
  <g>
    <text fill="#ddd" stroke="none" font-size="60" font-family="p22" font-weight="100" text-anchor="start" dominant-baseline="central" x="2760" y="1936">Nuwara Eliya</text>
  </g>
  <g>
    <text fill="black" stroke="none" font-size="60" font-family="p22" font-weight="100" text-anchor="start" dominant-baseline="central" x="1805" y="3500">Galle</text>
  </g>
  <g>
    <text fill="black" stroke="none" font-size="60" font-family="p22" font-weight="100" text-anchor="start" dominant-baseline="central" x="1773" y="500">Kurunegala</text>
  </g>
  <g>
    <text fill="black" stroke="none" font-size="60" font-family="p22" font-weight="100" text-anchor="start" dominant-baseline="central" x="2458" y="2742">Ratnapura</text>
  </g>
  <g>
    <text fill="#ddd" stroke="none" font-size="60" font-family="p22" font-weight="100" text-anchor="start" dominant-baseline="central" x="1994" y="1666">Kegalle</text>
  </g>
</svg>
