<?xml version="1.0" ?>
<svg xmlns="http://www.w3.org/2000/svg" width="4000" height="4000" padding="500">
  <text x="2000.0" y="125.0" fill="gray" stroke="none" font-size="60" font-family="p22" text-anchor="middle" dominant-baseline="hanging">Sri Lanka</text>
  <text x="2000.0" y="250.0" fill="gray" stroke="none" font-size="120" font-family="p22" text-anchor="middle" dominant-baseline="hanging">Population Optimized Hypothetical Railway Network</text>
  <text x="2000.0" y="3750.0" fill="gray" stroke="none" font-size="60" font-family="p22" text-anchor="middle" dominant-baseline="hanging">music by @bensound ~ visualization by @nuuuwan</text>
  <text x="3000.0" y="1000.0" fill="lightgrey" stroke="none" font-size="180" font-family="p22" text-anchor="start" dominant-baseline="hanging">10km</text>
  <text x="3000.0" y="1120.0" fill="lightgrey" stroke="none" font-size="90.0" font-family="p22" text-anchor="start" dominant-baseline="hanging">+ Narahenpita to Thimbirigasyaya</text>
  <path fill="none" stroke="#b2d1ff" stroke-width="40" stroke-opacity="1" d="M 2836.0,2590.0 L 2756.06066017178,2669.93933982822 C 2756.057124637874,2669.942875362126 2753.505,2671.0 2753.5,2671.0 L 2340.5,2671.0 C 2340.495,2671.0 2337.942875362126,2672.057124637874 2337.93933982822,2672.06066017178 L 2259.0,2751.0"/>
  <path fill="none" stroke="#99eaff" stroke-width="40" stroke-opacity="1" d="M 2718.0,3233.0 L 2489.7761210259587,3003.7795102007444 C 2489.773533955872,3003.7769118334086 2489.0,3001.9036666666666 2489.0,3001.9 L 2489.0,2982.045 C 2489.0,2982.0415166666667 2488.263536502281,2980.263536502281 2488.26107341366,2980.26107341366 L 2259.0,2751.0"/>
  <path fill="none" stroke="#7fffe5" stroke-width="40" stroke-opacity="1" d="M 1921.0,500.0 L 1844.0606601717798,576.9393398282202 C 1844.0571246378738,576.9428753621261 1841.505,578.0 1841.5,578.0 L 1760.5,578.0 C 1760.495,578.0 1757.9428753621262,579.0571246378739 1757.9393398282202,579.0606601717798 L 1681.0,656.0"/>
  <path fill="none" stroke="#65ffa3" stroke-width="40" stroke-opacity="1" d="M 1921.0,500.0 L 1930.5,508.55 C 1930.5016666666668,508.5515 1931.0,509.6704389316792 1931.0,509.67268120235366 L 1931.0,811.3636038969321 C 1931.0,811.3657252172757 1931.4485,812.4485 1931.45,812.45 L 1940.0,821.0"/>
  <path fill="none" stroke="#4cfe4c" stroke-width="40" stroke-opacity="1" d="M 2152.0,995.0 L 2067.054511571389,909.066773333847 C 2067.0509965328174,909.063217422734 2064.505,908.0 2064.5,908.0 L 2028.5,908.0 C 2028.495,908.0 2025.9428753621262,906.9428753621261 2025.9393398282202,906.9393398282202 L 1940.0,821.0"/>
  <path fill="none" stroke="#84ff33" stroke-width="40" stroke-opacity="1" d="M 2152.0,995.0 L 2186.93933982822,960.0606601717798 C 2186.942875362126,960.0571246378739 2188.0,957.505 2188.0,957.5 L 2188.0,807.5 C 2188.0,807.495 2189.057124637874,804.9428753621261 2189.06066017178,804.9393398282202 L 2223.0,771.0"/>
  <path fill="none" stroke="#d1ff19" stroke-width="40" stroke-opacity="1" d="M 2510.0,1117.0 L 2450.06066017178,1057.0606601717798 C 2450.057124637874,1057.0571246378738 2447.505,1056.0 2447.5,1056.0 L 2215.5,1056.0 C 2215.495,1056.0 2212.9343160721996,1054.9515045226478 2212.930751911906,1054.9479978488107 L 2152.0,995.0"/>
  <path fill="none" stroke="#ffcb00" stroke-width="40" stroke-opacity="1" d="M 2510.0,1117.0 L 2513.8,1120.8 C 2513.8006666666665,1120.8006666666668 2514.281899903433,1121.0 2514.2828427124746,1121.0 L 2880.787867965644,1121.0 C 2880.7885750724254,1121.0 2881.1495,1121.1495 2881.15,1121.15 L 2884.0,1124.0"/>
  <path fill="none" stroke="#e55b00" stroke-width="40" stroke-opacity="1" d="M 2866.0,1496.0 L 2874.55,1487.45 C 2874.5515,1487.4485 2875.0,1486.3657252172757 2875.0,1486.363603896932 L 2875.0,1133.636396103068 C 2875.0,1133.6342747827243 2875.4485,1132.5515 2875.45,1132.55 L 2884.0,1124.0"/>
  <path fill="none" stroke="#cc0000" stroke-width="40" stroke-opacity="1" d="M 2866.0,1496.0 L 2793.06066017178,1568.9393398282202 C 2793.057124637874,1568.9428753621262 2792.0,1571.495 2792.0,1571.5 L 2792.0,3157.5 C 2792.0,3157.505 2790.942875362126,3160.057124637874 2790.93933982822,3160.06066017178 L 2718.0,3233.0"/>
  <g>
    <circle r="34.64101615137754" fill="white" stroke="gray" stroke-width="10.0" cx="1921" cy="500"/>
    <text fill="black" stroke="none" font-size="60" font-family="p22" font-weight="100" text-anchor="start" dominant-baseline="central" x="1961" y="500">Aluthkade East</text>
  </g>
  <g>
    <text fill="#ddd" stroke="none" font-size="60" font-family="p22" font-weight="100" text-anchor="start" dominant-baseline="central" x="923" y="1162">Galle Face</text>
  </g>
  <g>
    <text fill="#ddd" stroke="none" font-size="60" font-family="p22" font-weight="100" text-anchor="start" dominant-baseline="central" x="1168" y="1167">Slave Island</text>
  </g>
  <g>
    <text fill="#ddd" stroke="none" font-size="60" font-family="p22" font-weight="100" text-anchor="start" dominant-baseline="central" x="1471" y="1197">Hunupitiya</text>
  </g>
  <g>
    <text fill="#ddd" stroke="none" font-size="60" font-family="p22" font-weight="100" text-anchor="start" dominant-baseline="central" x="1721" y="1053">Suduwella</text>
  </g>
  <g>
    <text fill="black" stroke="none" font-size="60" font-family="p22" font-weight="100" text-anchor="start" dominant-baseline="central" x="1721" y="656">Keselwatta</text>
  </g>
  <g>
    <circle r="34.64101615137754" fill="white" stroke="gray" stroke-width="10.0" cx="1940" cy="821"/>
    <text fill="black" stroke="none" font-size="60" font-family="p22" font-weight="100" text-anchor="start" dominant-baseline="central" x="1980" y="821">Panchikawatta</text>
  </g>
  <g>
    <text fill="black" stroke="none" font-size="60" font-family="p22" font-weight="100" text-anchor="start" dominant-baseline="central" x="2263" y="771">Maligawatta West</text>
  </g>
  <g>
    <circle r="40.0" fill="white" stroke="gray" stroke-width="10.0" cx="2152" cy="995"/>
    <text fill="black" stroke="none" font-size="60" font-family="p22" font-weight="100" text-anchor="start" dominant-baseline="central" x="2192" y="995">Maligakanda</text>
  </g>
  <g>
    <text fill="#ddd" stroke="none" font-size="60" font-family="p22" font-weight="100" text-anchor="start" dominant-baseline="central" x="1990" y="1139">Maradana</text>
  </g>
  <g>
    <text fill="#ddd" stroke="none" font-size="60" font-family="p22" font-weight="100" text-anchor="start" dominant-baseline="central" x="1688" y="1589">Ibbanwala</text>
  </g>
  <g>
    <text fill="#ddd" stroke="none" font-size="60" font-family="p22" font-weight="100" text-anchor="start" dominant-baseline="central" x="1268" y="1535">Wekanda</text>
  </g>
  <g>
    <text fill="#ddd" stroke="none" font-size="60" font-family="p22" font-weight="100" text-anchor="start" dominant-baseline="central" x="1154" y="1823">Kollupitiya</text>
  </g>
  <g>
    <text fill="#ddd" stroke="none" font-size="60" font-family="p22" font-weight="100" text-anchor="start" dominant-baseline="central" x="1415" y="2471">Bambalapitiya</text>
  </g>
  <g>
    <text fill="#ddd" stroke="none" font-size="60" font-family="p22" font-weight="100" text-anchor="start" dominant-baseline="central" x="2112" y="2063">Kurunduwatta</text>
  </g>
  <g>
    <text fill="#ddd" stroke="none" font-size="60" font-family="p22" font-weight="100" text-anchor="start" dominant-baseline="central" x="2270" y="1272">Kuppiyawatta West</text>
  </g>
  <g>
    <circle r="34.64101615137754" fill="white" stroke="gray" stroke-width="10.0" cx="2510" cy="1117"/>
    <text fill="black" stroke="none" font-size="60" font-family="p22" font-weight="100" text-anchor="start" dominant-baseline="central" x="2550" y="1117">Kuppiyawatta East</text>
  </g>
  <g>
    <circle r="34.64101615137754" fill="white" stroke="gray" stroke-width="10.0" cx="2884" cy="1124"/>
    <text fill="black" stroke="none" font-size="60" font-family="p22" font-weight="100" text-anchor="start" dominant-baseline="central" x="2924" y="1124">Wanathamulla</text>
  </g>
  <g>
    <circle r="34.64101615137754" fill="white" stroke="gray" stroke-width="10.0" cx="2866" cy="1496"/>
    <text fill="black" stroke="none" font-size="60" font-family="p22" font-weight="100" text-anchor="start" dominant-baseline="central" x="2906" y="1496">Borella North</text>
  </g>
  <g>
    <text fill="#ddd" stroke="none" font-size="60" font-family="p22" font-weight="100" text-anchor="start" dominant-baseline="central" x="2855" y="1837">Borella South</text>
  </g>
  <g>
    <text fill="#ddd" stroke="none" font-size="60" font-family="p22" font-weight="100" text-anchor="start" dominant-baseline="central" x="3156" y="2132">Gothamipura</text>
  </g>
  <g>
    <text fill="black" stroke="none" font-size="60" font-family="p22" font-weight="100" text-anchor="start" dominant-baseline="central" x="2876" y="2590">Narahenpita</text>
  </g>
  <g>
    <circle r="34.64101615137754" fill="white" stroke="gray" stroke-width="10.0" cx="2259" cy="2751"/>
    <text fill="black" stroke="none" font-size="60" font-family="p22" font-weight="100" text-anchor="start" dominant-baseline="central" x="2299" y="2751">Thimbirigasyaya</text>
  </g>
  <g>
    <text fill="#ddd" stroke="none" font-size="60" font-family="p22" font-weight="100" text-anchor="start" dominant-baseline="central" x="1592" y="3182">Milagiriya</text>
  </g>
  <g>
    <text fill="#ddd" stroke="none" font-size="60" font-family="p22" font-weight="100" text-anchor="start" dominant-baseline="central" x="1925" y="3500">Havelock Town</text>
  </g>
  <g>
    <circle r="34.64101615137754" fill="white" stroke="gray" stroke-width="10.0" cx="2718" cy="3233"/>
    <text fill="black" stroke="none" font-size="60" font-family="p22" font-weight="100" text-anchor="start" dominant-baseline="central" x="2758" y="3233">Kirula</text>
  </g>
</svg>
