<?xml version="1.0" ?>
<svg xmlns="http://www.w3.org/2000/svg" width="2880" height="2880" padding="288">
  <line x1="977" y1="2120" x2="1332" y2="2303" fill="none" stroke="red" stroke-width="28" stroke-opacity="0.7"/>
  <line x1="977" y1="2120" x2="1187" y2="1967" fill="none" stroke="red" stroke-width="28" stroke-opacity="0.7"/>
  <line x1="977" y1="2120" x2="977" y2="2120" fill="none" stroke="red" stroke-width="28" stroke-opacity="0.7"/>
  <line x1="977" y1="2120" x2="976" y2="1955" fill="none" stroke="red" stroke-width="28" stroke-opacity="0.7"/>
  <line x1="977" y1="2120" x2="1047" y2="2309" fill="none" stroke="red" stroke-width="28" stroke-opacity="0.7"/>
  <line x1="976" y1="1955" x2="1118" y2="1603" fill="none" stroke="red" stroke-width="28" stroke-opacity="0.7"/>
  <line x1="976" y1="1955" x2="1187" y2="1967" fill="none" stroke="red" stroke-width="28" stroke-opacity="0.7"/>
  <line x1="976" y1="1955" x2="908" y2="1403" fill="none" stroke="red" stroke-width="28" stroke-opacity="0.7"/>
  <line x1="976" y1="1955" x2="977" y2="2120" fill="none" stroke="red" stroke-width="28" stroke-opacity="0.7"/>
  <line x1="976" y1="1955" x2="976" y2="1955" fill="none" stroke="red" stroke-width="28" stroke-opacity="0.7"/>
  <line x1="1187" y1="1967" x2="1118" y2="1603" fill="none" stroke="red" stroke-width="28" stroke-opacity="0.7"/>
  <line x1="1187" y1="1967" x2="977" y2="2120" fill="none" stroke="red" stroke-width="28" stroke-opacity="0.7"/>
  <line x1="1187" y1="1967" x2="976" y2="1955" fill="none" stroke="red" stroke-width="28" stroke-opacity="0.7"/>
  <line x1="1187" y1="1967" x2="1425" y2="1858" fill="none" stroke="red" stroke-width="28" stroke-opacity="0.7"/>
  <line x1="1187" y1="1967" x2="1332" y2="2303" fill="none" stroke="red" stroke-width="28" stroke-opacity="0.7"/>
  <line x1="1187" y1="1967" x2="1187" y2="1967" fill="none" stroke="red" stroke-width="28" stroke-opacity="0.7"/>
  <line x1="1187" y1="1967" x2="1426" y2="2052" fill="none" stroke="red" stroke-width="28" stroke-opacity="0.7"/>
  <line x1="1332" y1="2303" x2="1315" y2="2592" fill="none" stroke="red" stroke-width="28" stroke-opacity="0.7"/>
  <line x1="1332" y1="2303" x2="1677" y2="2516" fill="none" stroke="red" stroke-width="28" stroke-opacity="0.7"/>
  <line x1="1332" y1="2303" x2="977" y2="2120" fill="none" stroke="red" stroke-width="28" stroke-opacity="0.7"/>
  <line x1="1332" y1="2303" x2="1643" y2="1987" fill="none" stroke="red" stroke-width="28" stroke-opacity="0.7"/>
  <line x1="1332" y1="2303" x2="1047" y2="2309" fill="none" stroke="red" stroke-width="28" stroke-opacity="0.7"/>
  <line x1="1332" y1="2303" x2="1811" y2="2173" fill="none" stroke="red" stroke-width="28" stroke-opacity="0.7"/>
  <line x1="1332" y1="2303" x2="1128" y2="2540" fill="none" stroke="red" stroke-width="28" stroke-opacity="0.7"/>
  <line x1="1332" y1="2303" x2="1332" y2="2303" fill="none" stroke="red" stroke-width="28" stroke-opacity="0.7"/>
  <line x1="1332" y1="2303" x2="1187" y2="1967" fill="none" stroke="red" stroke-width="28" stroke-opacity="0.7"/>
  <line x1="1332" y1="2303" x2="1426" y2="2052" fill="none" stroke="red" stroke-width="28" stroke-opacity="0.7"/>
  <line x1="1047" y1="2309" x2="1128" y2="2540" fill="none" stroke="red" stroke-width="28" stroke-opacity="0.7"/>
  <line x1="1047" y1="2309" x2="1332" y2="2303" fill="none" stroke="red" stroke-width="28" stroke-opacity="0.7"/>
  <line x1="1047" y1="2309" x2="977" y2="2120" fill="none" stroke="red" stroke-width="28" stroke-opacity="0.7"/>
  <line x1="1047" y1="2309" x2="1047" y2="2309" fill="none" stroke="red" stroke-width="28" stroke-opacity="0.7"/>
  <line x1="1118" y1="1603" x2="1118" y2="1603" fill="none" stroke="red" stroke-width="28" stroke-opacity="0.7"/>
  <line x1="1118" y1="1603" x2="976" y2="1955" fill="none" stroke="red" stroke-width="28" stroke-opacity="0.7"/>
  <line x1="1118" y1="1603" x2="1425" y2="1858" fill="none" stroke="red" stroke-width="28" stroke-opacity="0.7"/>
  <line x1="1118" y1="1603" x2="1439" y2="1602" fill="none" stroke="red" stroke-width="28" stroke-opacity="0.7"/>
  <line x1="1118" y1="1603" x2="1187" y2="1967" fill="none" stroke="red" stroke-width="28" stroke-opacity="0.7"/>
  <line x1="1118" y1="1603" x2="908" y2="1403" fill="none" stroke="red" stroke-width="28" stroke-opacity="0.7"/>
  <line x1="1118" y1="1603" x2="1297" y2="1131" fill="none" stroke="red" stroke-width="28" stroke-opacity="0.7"/>
  <line x1="908" y1="1403" x2="1297" y2="1131" fill="none" stroke="red" stroke-width="28" stroke-opacity="0.7"/>
  <line x1="908" y1="1403" x2="1022" y2="816" fill="none" stroke="red" stroke-width="28" stroke-opacity="0.7"/>
  <line x1="908" y1="1403" x2="1118" y2="1603" fill="none" stroke="red" stroke-width="28" stroke-opacity="0.7"/>
  <line x1="908" y1="1403" x2="908" y2="1403" fill="none" stroke="red" stroke-width="28" stroke-opacity="0.7"/>
  <line x1="908" y1="1403" x2="976" y2="1955" fill="none" stroke="red" stroke-width="28" stroke-opacity="0.7"/>
  <line x1="1128" y1="2540" x2="1315" y2="2592" fill="none" stroke="red" stroke-width="28" stroke-opacity="0.7"/>
  <line x1="1128" y1="2540" x2="1128" y2="2540" fill="none" stroke="red" stroke-width="28" stroke-opacity="0.7"/>
  <line x1="1128" y1="2540" x2="1332" y2="2303" fill="none" stroke="red" stroke-width="28" stroke-opacity="0.7"/>
  <line x1="1128" y1="2540" x2="1047" y2="2309" fill="none" stroke="red" stroke-width="28" stroke-opacity="0.7"/>
  <line x1="1643" y1="1987" x2="1643" y2="1987" fill="none" stroke="red" stroke-width="28" stroke-opacity="0.7"/>
  <line x1="1643" y1="1987" x2="1425" y2="1858" fill="none" stroke="red" stroke-width="28" stroke-opacity="0.7"/>
  <line x1="1643" y1="1987" x2="1811" y2="2173" fill="none" stroke="red" stroke-width="28" stroke-opacity="0.7"/>
  <line x1="1643" y1="1987" x2="1971" y2="1881" fill="none" stroke="red" stroke-width="28" stroke-opacity="0.7"/>
  <line x1="1643" y1="1987" x2="1332" y2="2303" fill="none" stroke="red" stroke-width="28" stroke-opacity="0.7"/>
  <line x1="1643" y1="1987" x2="1439" y2="1602" fill="none" stroke="red" stroke-width="28" stroke-opacity="0.7"/>
  <line x1="1643" y1="1987" x2="1426" y2="2052" fill="none" stroke="red" stroke-width="28" stroke-opacity="0.7"/>
  <line x1="1425" y1="1858" x2="1118" y2="1603" fill="none" stroke="red" stroke-width="28" stroke-opacity="0.7"/>
  <line x1="1425" y1="1858" x2="1643" y2="1987" fill="none" stroke="red" stroke-width="28" stroke-opacity="0.7"/>
  <line x1="1425" y1="1858" x2="1425" y2="1858" fill="none" stroke="red" stroke-width="28" stroke-opacity="0.7"/>
  <line x1="1425" y1="1858" x2="1439" y2="1602" fill="none" stroke="red" stroke-width="28" stroke-opacity="0.7"/>
  <line x1="1425" y1="1858" x2="1187" y2="1967" fill="none" stroke="red" stroke-width="28" stroke-opacity="0.7"/>
  <line x1="1425" y1="1858" x2="1426" y2="2052" fill="none" stroke="red" stroke-width="28" stroke-opacity="0.7"/>
  <line x1="1439" y1="1602" x2="1118" y2="1603" fill="none" stroke="red" stroke-width="28" stroke-opacity="0.7"/>
  <line x1="1439" y1="1602" x2="1630" y2="1390" fill="none" stroke="red" stroke-width="28" stroke-opacity="0.7"/>
  <line x1="1439" y1="1602" x2="1643" y2="1987" fill="none" stroke="red" stroke-width="28" stroke-opacity="0.7"/>
  <line x1="1439" y1="1602" x2="1425" y2="1858" fill="none" stroke="red" stroke-width="28" stroke-opacity="0.7"/>
  <line x1="1439" y1="1602" x2="1971" y2="1881" fill="none" stroke="red" stroke-width="28" stroke-opacity="0.7"/>
  <line x1="1439" y1="1602" x2="1439" y2="1602" fill="none" stroke="red" stroke-width="28" stroke-opacity="0.7"/>
  <line x1="1439" y1="1602" x2="1297" y2="1131" fill="none" stroke="red" stroke-width="28" stroke-opacity="0.7"/>
  <line x1="1426" y1="2052" x2="1332" y2="2303" fill="none" stroke="red" stroke-width="28" stroke-opacity="0.7"/>
  <line x1="1426" y1="2052" x2="1187" y2="1967" fill="none" stroke="red" stroke-width="28" stroke-opacity="0.7"/>
  <line x1="1426" y1="2052" x2="1426" y2="2052" fill="none" stroke="red" stroke-width="28" stroke-opacity="0.7"/>
  <line x1="1426" y1="2052" x2="1643" y2="1987" fill="none" stroke="red" stroke-width="28" stroke-opacity="0.7"/>
  <line x1="1426" y1="2052" x2="1425" y2="1858" fill="none" stroke="red" stroke-width="28" stroke-opacity="0.7"/>
  <line x1="1971" y1="1881" x2="1929" y2="1521" fill="none" stroke="red" stroke-width="28" stroke-opacity="0.7"/>
  <line x1="1971" y1="1881" x2="1677" y2="2516" fill="none" stroke="red" stroke-width="28" stroke-opacity="0.7"/>
  <line x1="1971" y1="1881" x2="1630" y2="1390" fill="none" stroke="red" stroke-width="28" stroke-opacity="0.7"/>
  <line x1="1971" y1="1881" x2="1643" y2="1987" fill="none" stroke="red" stroke-width="28" stroke-opacity="0.7"/>
  <line x1="1971" y1="1881" x2="1811" y2="2173" fill="none" stroke="red" stroke-width="28" stroke-opacity="0.7"/>
  <line x1="1971" y1="1881" x2="1971" y2="1881" fill="none" stroke="red" stroke-width="28" stroke-opacity="0.7"/>
  <line x1="1971" y1="1881" x2="1439" y2="1602" fill="none" stroke="red" stroke-width="28" stroke-opacity="0.7"/>
  <line x1="1630" y1="1390" x2="1929" y2="1521" fill="none" stroke="red" stroke-width="28" stroke-opacity="0.7"/>
  <line x1="1630" y1="1390" x2="1630" y2="1390" fill="none" stroke="red" stroke-width="28" stroke-opacity="0.7"/>
  <line x1="1630" y1="1390" x2="1971" y2="1881" fill="none" stroke="red" stroke-width="28" stroke-opacity="0.7"/>
  <line x1="1630" y1="1390" x2="1439" y2="1602" fill="none" stroke="red" stroke-width="28" stroke-opacity="0.7"/>
  <line x1="1630" y1="1390" x2="1297" y2="1131" fill="none" stroke="red" stroke-width="28" stroke-opacity="0.7"/>
  <line x1="1630" y1="1390" x2="1673" y2="1028" fill="none" stroke="red" stroke-width="28" stroke-opacity="0.7"/>
  <line x1="1297" y1="1131" x2="1268" y2="833" fill="none" stroke="red" stroke-width="28" stroke-opacity="0.7"/>
  <line x1="1297" y1="1131" x2="1118" y2="1603" fill="none" stroke="red" stroke-width="28" stroke-opacity="0.7"/>
  <line x1="1297" y1="1131" x2="1630" y2="1390" fill="none" stroke="red" stroke-width="28" stroke-opacity="0.7"/>
  <line x1="1297" y1="1131" x2="1022" y2="816" fill="none" stroke="red" stroke-width="28" stroke-opacity="0.7"/>
  <line x1="1297" y1="1131" x2="1439" y2="1602" fill="none" stroke="red" stroke-width="28" stroke-opacity="0.7"/>
  <line x1="1297" y1="1131" x2="1321" y2="628" fill="none" stroke="red" stroke-width="28" stroke-opacity="0.7"/>
  <line x1="1297" y1="1131" x2="908" y2="1403" fill="none" stroke="red" stroke-width="28" stroke-opacity="0.7"/>
  <line x1="1297" y1="1131" x2="1297" y2="1131" fill="none" stroke="red" stroke-width="28" stroke-opacity="0.7"/>
  <line x1="1297" y1="1131" x2="1673" y2="1028" fill="none" stroke="red" stroke-width="28" stroke-opacity="0.7"/>
  <line x1="1315" y1="2592" x2="1315" y2="2592" fill="none" stroke="red" stroke-width="28" stroke-opacity="0.7"/>
  <line x1="1315" y1="2592" x2="1128" y2="2540" fill="none" stroke="red" stroke-width="28" stroke-opacity="0.7"/>
  <line x1="1315" y1="2592" x2="1332" y2="2303" fill="none" stroke="red" stroke-width="28" stroke-opacity="0.7"/>
  <line x1="1315" y1="2592" x2="1677" y2="2516" fill="none" stroke="red" stroke-width="28" stroke-opacity="0.7"/>
  <line x1="1677" y1="2516" x2="1971" y2="1881" fill="none" stroke="red" stroke-width="28" stroke-opacity="0.7"/>
  <line x1="1677" y1="2516" x2="1315" y2="2592" fill="none" stroke="red" stroke-width="28" stroke-opacity="0.7"/>
  <line x1="1677" y1="2516" x2="1332" y2="2303" fill="none" stroke="red" stroke-width="28" stroke-opacity="0.7"/>
  <line x1="1677" y1="2516" x2="1677" y2="2516" fill="none" stroke="red" stroke-width="28" stroke-opacity="0.7"/>
  <line x1="1677" y1="2516" x2="1811" y2="2173" fill="none" stroke="red" stroke-width="28" stroke-opacity="0.7"/>
  <line x1="1811" y1="2173" x2="1971" y2="1881" fill="none" stroke="red" stroke-width="28" stroke-opacity="0.7"/>
  <line x1="1811" y1="2173" x2="1332" y2="2303" fill="none" stroke="red" stroke-width="28" stroke-opacity="0.7"/>
  <line x1="1811" y1="2173" x2="1677" y2="2516" fill="none" stroke="red" stroke-width="28" stroke-opacity="0.7"/>
  <line x1="1811" y1="2173" x2="1643" y2="1987" fill="none" stroke="red" stroke-width="28" stroke-opacity="0.7"/>
  <line x1="1811" y1="2173" x2="1811" y2="2173" fill="none" stroke="red" stroke-width="28" stroke-opacity="0.7"/>
  <line x1="1321" y1="628" x2="1268" y2="833" fill="none" stroke="red" stroke-width="28" stroke-opacity="0.7"/>
  <line x1="1321" y1="628" x2="1161" y2="467" fill="none" stroke="red" stroke-width="28" stroke-opacity="0.7"/>
  <line x1="1321" y1="628" x2="1022" y2="816" fill="none" stroke="red" stroke-width="28" stroke-opacity="0.7"/>
  <line x1="1321" y1="628" x2="1321" y2="628" fill="none" stroke="red" stroke-width="28" stroke-opacity="0.7"/>
  <line x1="1321" y1="628" x2="1297" y2="1131" fill="none" stroke="red" stroke-width="28" stroke-opacity="0.7"/>
  <line x1="1321" y1="628" x2="1673" y2="1028" fill="none" stroke="red" stroke-width="28" stroke-opacity="0.7"/>
  <line x1="1321" y1="628" x2="1028" y2="288" fill="none" stroke="red" stroke-width="28" stroke-opacity="0.7"/>
  <line x1="1028" y1="288" x2="1161" y2="467" fill="none" stroke="red" stroke-width="28" stroke-opacity="0.7"/>
  <line x1="1028" y1="288" x2="1321" y2="628" fill="none" stroke="red" stroke-width="28" stroke-opacity="0.7"/>
  <line x1="1028" y1="288" x2="1028" y2="288" fill="none" stroke="red" stroke-width="28" stroke-opacity="0.7"/>
  <line x1="1161" y1="467" x2="1161" y2="467" fill="none" stroke="red" stroke-width="28" stroke-opacity="0.7"/>
  <line x1="1161" y1="467" x2="1022" y2="816" fill="none" stroke="red" stroke-width="28" stroke-opacity="0.7"/>
  <line x1="1161" y1="467" x2="1321" y2="628" fill="none" stroke="red" stroke-width="28" stroke-opacity="0.7"/>
  <line x1="1161" y1="467" x2="1028" y2="288" fill="none" stroke="red" stroke-width="28" stroke-opacity="0.7"/>
  <line x1="1022" y1="816" x2="1268" y2="833" fill="none" stroke="red" stroke-width="28" stroke-opacity="0.7"/>
  <line x1="1022" y1="816" x2="1161" y2="467" fill="none" stroke="red" stroke-width="28" stroke-opacity="0.7"/>
  <line x1="1022" y1="816" x2="1022" y2="816" fill="none" stroke="red" stroke-width="28" stroke-opacity="0.7"/>
  <line x1="1022" y1="816" x2="1321" y2="628" fill="none" stroke="red" stroke-width="28" stroke-opacity="0.7"/>
  <line x1="1022" y1="816" x2="908" y2="1403" fill="none" stroke="red" stroke-width="28" stroke-opacity="0.7"/>
  <line x1="1022" y1="816" x2="1297" y2="1131" fill="none" stroke="red" stroke-width="28" stroke-opacity="0.7"/>
  <line x1="1268" y1="833" x2="1022" y2="816" fill="none" stroke="red" stroke-width="28" stroke-opacity="0.7"/>
  <line x1="1268" y1="833" x2="1268" y2="833" fill="none" stroke="red" stroke-width="28" stroke-opacity="0.7"/>
  <line x1="1268" y1="833" x2="1321" y2="628" fill="none" stroke="red" stroke-width="28" stroke-opacity="0.7"/>
  <line x1="1268" y1="833" x2="1297" y2="1131" fill="none" stroke="red" stroke-width="28" stroke-opacity="0.7"/>
  <line x1="1673" y1="1028" x2="1630" y2="1390" fill="none" stroke="red" stroke-width="28" stroke-opacity="0.7"/>
  <line x1="1673" y1="1028" x2="1321" y2="628" fill="none" stroke="red" stroke-width="28" stroke-opacity="0.7"/>
  <line x1="1673" y1="1028" x2="1929" y2="1521" fill="none" stroke="red" stroke-width="28" stroke-opacity="0.7"/>
  <line x1="1673" y1="1028" x2="1297" y2="1131" fill="none" stroke="red" stroke-width="28" stroke-opacity="0.7"/>
  <line x1="1673" y1="1028" x2="1673" y2="1028" fill="none" stroke="red" stroke-width="28" stroke-opacity="0.7"/>
  <line x1="1929" y1="1521" x2="1971" y2="1881" fill="none" stroke="red" stroke-width="28" stroke-opacity="0.7"/>
  <line x1="1929" y1="1521" x2="1929" y2="1521" fill="none" stroke="red" stroke-width="28" stroke-opacity="0.7"/>
  <line x1="1929" y1="1521" x2="1630" y2="1390" fill="none" stroke="red" stroke-width="28" stroke-opacity="0.7"/>
  <line x1="1929" y1="1521" x2="1673" y2="1028" fill="none" stroke="red" stroke-width="28" stroke-opacity="0.7"/>
  <g>
    <circle r="28" fill="white" stroke="black" stroke-width="7.0" cx="977" cy="2120"/>
    <text fill="black" stroke="none" font-size="40" font-family="p22" font-weight="100" text-anchor="start" dominant-baseline="central" x="1005" y="2120">Colombo</text>
  </g>
  <g>
    <circle r="28" fill="white" stroke="black" stroke-width="7.0" cx="976" cy="1955"/>
    <text fill="black" stroke="none" font-size="40" font-family="p22" font-weight="100" text-anchor="start" dominant-baseline="central" x="1004" y="1955">Gampaha</text>
  </g>
  <g>
    <circle r="28" fill="white" stroke="black" stroke-width="7.0" cx="1047" cy="2309"/>
    <text fill="black" stroke="none" font-size="40" font-family="p22" font-weight="100" text-anchor="start" dominant-baseline="central" x="1075" y="2309">Kalutara</text>
  </g>
  <g>
    <circle r="28" fill="white" stroke="black" stroke-width="7.0" cx="1425" cy="1858"/>
    <text fill="black" stroke="none" font-size="40" font-family="p22" font-weight="100" text-anchor="start" dominant-baseline="central" x="1453" y="1858">Kandy</text>
  </g>
  <g>
    <circle r="28" fill="white" stroke="black" stroke-width="7.0" cx="1439" cy="1602"/>
    <text fill="black" stroke="none" font-size="40" font-family="p22" font-weight="100" text-anchor="start" dominant-baseline="central" x="1467" y="1602">Matale</text>
  </g>
  <g>
    <circle r="28" fill="white" stroke="black" stroke-width="7.0" cx="1426" cy="2052"/>
    <text fill="black" stroke="none" font-size="40" font-family="p22" font-weight="100" text-anchor="start" dominant-baseline="central" x="1454" y="2052">Nuwara Eliya</text>
  </g>
  <g>
    <circle r="28" fill="white" stroke="black" stroke-width="7.0" cx="1128" cy="2540"/>
    <text fill="black" stroke="none" font-size="40" font-family="p22" font-weight="100" text-anchor="start" dominant-baseline="central" x="1156" y="2540">Galle</text>
  </g>
  <g>
    <circle r="28" fill="white" stroke="black" stroke-width="7.0" cx="1315" cy="2592"/>
    <text fill="black" stroke="none" font-size="40" font-family="p22" font-weight="100" text-anchor="start" dominant-baseline="central" x="1343" y="2592">Matara</text>
  </g>
  <g>
    <circle r="28" fill="white" stroke="black" stroke-width="7.0" cx="1677" cy="2516"/>
    <text fill="black" stroke="none" font-size="40" font-family="p22" font-weight="100" text-anchor="start" dominant-baseline="central" x="1705" y="2516">Hambantota</text>
  </g>
  <g>
    <circle r="28" fill="white" stroke="black" stroke-width="7.0" cx="1028" cy="288"/>
    <text fill="black" stroke="none" font-size="40" font-family="p22" font-weight="100" text-anchor="start" dominant-baseline="central" x="1056" y="288">Jaffna</text>
  </g>
  <g>
    <circle r="28" fill="white" stroke="black" stroke-width="7.0" cx="1022" cy="816"/>
    <text fill="black" stroke="none" font-size="40" font-family="p22" font-weight="100" text-anchor="start" dominant-baseline="central" x="1050" y="816">Mannar</text>
  </g>
  <g>
    <circle r="28" fill="white" stroke="black" stroke-width="7.0" cx="1268" cy="833"/>
    <text fill="black" stroke="none" font-size="40" font-family="p22" font-weight="100" text-anchor="start" dominant-baseline="central" x="1296" y="833">Vavuniya</text>
  </g>
  <g>
    <circle r="28" fill="white" stroke="black" stroke-width="7.0" cx="1321" cy="628"/>
    <text fill="black" stroke="none" font-size="40" font-family="p22" font-weight="100" text-anchor="start" dominant-baseline="central" x="1349" y="628">Mullaitivu</text>
  </g>
  <g>
    <circle r="28" fill="white" stroke="black" stroke-width="7.0" cx="1161" cy="467"/>
    <text fill="black" stroke="none" font-size="40" font-family="p22" font-weight="100" text-anchor="start" dominant-baseline="central" x="1189" y="467">Kilinochchi</text>
  </g>
  <g>
    <circle r="28" fill="white" stroke="black" stroke-width="7.0" cx="1929" cy="1521"/>
    <text fill="black" stroke="none" font-size="40" font-family="p22" font-weight="100" text-anchor="start" dominant-baseline="central" x="1957" y="1521">Batticaloa</text>
  </g>
  <g>
    <circle r="28" fill="white" stroke="black" stroke-width="7.0" cx="1971" cy="1881"/>
    <text fill="black" stroke="none" font-size="40" font-family="p22" font-weight="100" text-anchor="start" dominant-baseline="central" x="1999" y="1881">Ampara</text>
  </g>
  <g>
    <circle r="28" fill="white" stroke="black" stroke-width="7.0" cx="1673" cy="1028"/>
    <text fill="black" stroke="none" font-size="40" font-family="p22" font-weight="100" text-anchor="start" dominant-baseline="central" x="1701" y="1028">Trincomalee</text>
  </g>
  <g>
    <circle r="28" fill="white" stroke="black" stroke-width="7.0" cx="1118" cy="1603"/>
    <text fill="black" stroke="none" font-size="40" font-family="p22" font-weight="100" text-anchor="start" dominant-baseline="central" x="1146" y="1603">Kurunegala</text>
  </g>
  <g>
    <circle r="28" fill="white" stroke="black" stroke-width="7.0" cx="908" cy="1403"/>
    <text fill="black" stroke="none" font-size="40" font-family="p22" font-weight="100" text-anchor="start" dominant-baseline="central" x="936" y="1403">Puttalam</text>
  </g>
  <g>
    <circle r="28" fill="white" stroke="black" stroke-width="7.0" cx="1297" cy="1131"/>
    <text fill="black" stroke="none" font-size="40" font-family="p22" font-weight="100" text-anchor="start" dominant-baseline="central" x="1325" y="1131">Anuradhapura</text>
  </g>
  <g>
    <circle r="28" fill="white" stroke="black" stroke-width="7.0" cx="1630" cy="1390"/>
    <text fill="black" stroke="none" font-size="40" font-family="p22" font-weight="100" text-anchor="start" dominant-baseline="central" x="1658" y="1390">Polonnaruwa</text>
  </g>
  <g>
    <circle r="28" fill="white" stroke="black" stroke-width="7.0" cx="1643" cy="1987"/>
    <text fill="black" stroke="none" font-size="40" font-family="p22" font-weight="100" text-anchor="start" dominant-baseline="central" x="1671" y="1987">Badulla</text>
  </g>
  <g>
    <circle r="28" fill="white" stroke="black" stroke-width="7.0" cx="1811" cy="2173"/>
    <text fill="black" stroke="none" font-size="40" font-family="p22" font-weight="100" text-anchor="start" dominant-baseline="central" x="1839" y="2173">Moneragala</text>
  </g>
  <g>
    <circle r="28" fill="white" stroke="black" stroke-width="7.0" cx="1332" cy="2303"/>
    <text fill="black" stroke="none" font-size="40" font-family="p22" font-weight="100" text-anchor="start" dominant-baseline="central" x="1360" y="2303">Ratnapura</text>
  </g>
  <g>
    <circle r="28" fill="white" stroke="black" stroke-width="7.0" cx="1187" cy="1967"/>
    <text fill="black" stroke="none" font-size="40" font-family="p22" font-weight="100" text-anchor="start" dominant-baseline="central" x="1215" y="1967">Kegalle</text>
  </g>
</svg>
