<?xml version="1.0" ?>
<svg xmlns="http://www.w3.org/2000/svg" width="4000" height="4000" padding="500">
  <text x="2000.0" y="125.0" fill="gray" stroke="none" font-size="60" font-family="p22" text-anchor="middle" dominant-baseline="hanging">Sri Lanka</text>
  <text x="2000.0" y="250.0" fill="gray" stroke="none" font-size="120" font-family="p22" text-anchor="middle" dominant-baseline="hanging">Population Optimized Hypothetical Railway Network</text>
  <text x="2000.0" y="3750.0" fill="gray" stroke="none" font-size="60" font-family="p22" text-anchor="middle" dominant-baseline="hanging">music by @bensound ~ visualization by @nuuuwan</text>
  <text x="3000.0" y="1000.0" fill="lightgrey" stroke="none" font-size="180" font-family="p22" text-anchor="start" dominant-baseline="hanging">4,207km</text>
  <path fill="none" stroke="#e1e3ff" stroke-width="20" stroke-opacity="1" d="M 2637.0,2105.0 L 2471.06066017178,1939.0606601717798 C 2471.057124637874,1939.0571246378738 2470.0,1936.505 2470.0,1936.5 L 2470.0,1632.5 C 2470.0,1632.495 2468.946054662831,1629.939705594535 2468.9425297620382,1629.9361594593997 L 2304.0,1464.0"/>
  <path fill="none" stroke="#dde1ff" stroke-width="20" stroke-opacity="1" d="M 1776.0,1209.0 L 1901.9435074035846,1335.9351885642427 C 1901.9470290455727,1335.9387379356954 1904.495,1337.0 1904.5,1337.0 L 2174.5,1337.0 C 2174.505,1337.0 2177.0612620643046,1338.0529709544273 2177.0648114357573,1338.0564925964154 L 2304.0,1464.0"/>
  <path fill="none" stroke="#d8dfff" stroke-width="20" stroke-opacity="1" d="M 1981.0,2544.0 L 2112.943319749444,2411.064625214846 C 2112.946842016946,2411.0610764641297 2114.0,2408.505 2114.0,2408.5 L 2114.0,2070.5 C 2114.0,2070.495 2115.057124637874,2067.942875362126 2115.06066017178,2067.93933982822 L 2248.0,1935.0"/>
  <path fill="none" stroke="#d4defe" stroke-width="20" stroke-opacity="1" d="M 1982.0,2797.0 L 1782.0606601717798,2597.06066017178 C 1782.0571246378738,2597.057124637874 1781.0,2594.505 1781.0,2594.5 L 1781.0,2415.5 C 1781.0,2415.495 1779.9455148620143,2412.9402424363243 1779.9419881558672,2412.9366980966465 L 1581.0,2213.0"/>
  <path fill="none" stroke="#d0deff" stroke-width="20" stroke-opacity="1" d="M 1981.0,2544.0 L 1995.25,2558.25 C 1995.2525,2558.2525 1997.0571246378738,2559.0 1997.0606601717798,2559.0 L 2674.93933982822,2559.0 C 2674.942875362126,2559.0 2676.7475,2559.7475 2676.75,2559.75 L 2691.0,2574.0"/>
  <path fill="none" stroke="#ccdeff" stroke-width="20" stroke-opacity="1" d="M 1464.0,500.0 L 1549.9332266661531,584.945488428611 C 1549.9367825772658,584.9490034671824 1551.0,587.495 1551.0,587.5 L 1551.0,644.5 C 1551.0,644.505 1552.0509965328176,647.063217422734 1552.054511571389,647.066773333847 L 1637.0,733.0"/>
  <path fill="none" stroke="#c8dfff" stroke-width="20" stroke-opacity="1" d="M 1776.0,1209.0 L 1708.0606601717798,1141.0606601717798 C 1708.0571246378738,1141.0571246378738 1707.0,1138.505 1707.0,1138.5 L 1707.0,803.5 C 1707.0,803.495 1705.9352977015287,800.950507734364 1705.9317368242762,800.9469977267865 L 1637.0,733.0"/>
  <path fill="none" stroke="#c4e0ff" stroke-width="20" stroke-opacity="1" d="M 1594.0,3432.0 L 1630.9532029096345,3394.0743443822175 C 1630.956692233269,3394.0707632342765 1632.0,3391.505 1632.0,3391.5 L 1632.0,2726.5 C 1632.0,2726.495 1633.0707632342767,2723.9566922332688 1633.0743443822173,2723.9532029096345 L 1671.0,2687.0"/>
  <path fill="none" stroke="#bfe1ff" stroke-width="20" stroke-opacity="1" d="M 1488.0,3132.0 L 1654.9393398282202,2965.06066017178 C 1654.9428753621262,2965.057124637874 1657.495,2964.0 1657.5,2964.0 L 1812.5,2964.0 C 1812.505,2964.0 1815.0602755099355,2962.9460356538143 1815.0638215818751,2962.9425106894455 L 1982.0,2797.0"/>
  <path fill="none" stroke="#bbe3ff" stroke-width="20" stroke-opacity="1" d="M 1982.0,2797.0 L 2059.93933982822,2874.93933982822 C 2059.942875362126,2874.942875362126 2062.495,2876.0 2062.5,2876.0 L 2402.5,2876.0 C 2402.505,2876.0 2405.057124637874,2877.057124637874 2405.06066017178,2877.06066017178 L 2483.0,2955.0"/>
  <path fill="none" stroke="#b7e6ff" stroke-width="20" stroke-opacity="1" d="M 1396.0,2670.0 L 1624.9370315444392,2442.05834685358 C 1624.9405747726244,2442.054819030735 1627.495,2441.0 1627.5,2441.0 L 1767.5,2441.0 C 1767.505,2441.0 1770.0571246378738,2439.942875362126 1770.0606601717798,2439.93933982822 L 1999.0,2211.0"/>
  <path fill="none" stroke="#b3e9ff" stroke-width="20" stroke-opacity="1" d="M 1396.0,2670.0 L 1622.681801948466,2896.6818019484663 C 1622.6828626086378,2896.6828626086376 1623.4485,2897.0 1623.45,2897.0 L 1631.5725,2897.0 C 1631.573925,2897.0 1632.301280521794,2897.301280521794 1632.3022881489574,2897.3022881489574 L 1859.0,3124.0"/>
  <path fill="none" stroke="#afedff" stroke-width="20" stroke-opacity="1" d="M 1456.0,1188.0 L 1633.9393398282202,1365.9393398282202 C 1633.9428753621262,1365.9428753621262 1635.0,1368.495 1635.0,1368.5 L 1635.0,1417.5 C 1635.0,1417.505 1636.0571246378738,1420.0571246378738 1636.0606601717798,1420.0606601717798 L 1814.0,1598.0"/>
  <path fill="none" stroke="#aaf1ff" stroke-width="20" stroke-opacity="1" d="M 1488.0,3132.0 L 1662.363603896932,3306.363603896932 C 1662.3657252172757,3306.3657252172757 1663.0,3307.897 1663.0,3307.9 L 1663.0,3324.145 C 1663.0,3324.14785 1663.600832041202,3325.60428509891 1663.602841512912,3325.6063061193076 L 1837.0,3500.0"/>
  <path fill="none" stroke="#a6f5ff" stroke-width="20" stroke-opacity="1" d="M 1397.0,2885.0 L 1440.9274899964805,2842.048676447886 C 1440.9310650298255,2842.0451808597263 1443.495,2841.0 1443.5,2841.0 L 1936.5,2841.0 C 1936.505,2841.0 1939.0571246378738,2839.942875362126 1939.0606601717798,2839.93933982822 L 1982.0,2797.0"/>
  <path fill="none" stroke="#a2faff" stroke-width="20" stroke-opacity="1" d="M 2637.0,2105.0 L 2452.0578127772787,2290.936500057252 C 2452.054286734688,2290.940045057061 2451.0,2293.495 2451.0,2293.5 L 2451.0,2523.5 C 2451.0,2523.505 2449.942875362126,2526.057124637874 2449.93933982822,2526.06066017178 L 2264.0,2712.0"/>
  <path fill="none" stroke="#9efffd" stroke-width="20" stroke-opacity="1" d="M 2264.0,2712.0 L 2062.2828427124746,2913.7171572875254 C 2062.281899903433,2913.718100096567 2062.0,2914.3986666666665 2062.0,2914.4 L 2062.0,2921.62 C 2062.0,2921.6212666666665 2061.7315346634173,2922.26714284724 2061.7306367860374,2922.2680363015784 L 1859.0,3124.0"/>
  <path fill="none" stroke="#9afff7" stroke-width="20" stroke-opacity="1" d="M 1999.0,2211.0 L 2129.93933982822,2341.93933982822 C 2129.942875362126,2341.942875362126 2131.0,2344.495 2131.0,2344.5 L 2131.0,2577.5 C 2131.0,2577.505 2132.057124637874,2580.057124637874 2132.06066017178,2580.06066017178 L 2264.0,2712.0"/>
  <path fill="none" stroke="#95fef0" stroke-width="20" stroke-opacity="1" d="M 2483.0,2955.0 L 2399.066917589759,3037.945634381885 C 2399.0633611977933,3037.9491489339457 2396.505,3039.0 2396.5,3039.0 L 1945.5,3039.0 C 1945.495,3039.0 1942.9428753621262,3040.057124637874 1942.9393398282202,3040.06066017178 L 1859.0,3124.0"/>
  <path fill="none" stroke="#91ffe9" stroke-width="20" stroke-opacity="1" d="M 1397.0,2885.0 L 1515.9393398282202,3003.93933982822 C 1515.9428753621262,3003.942875362126 1518.495,3005.0 1518.5,3005.0 L 1738.5,3005.0 C 1738.505,3005.0 1741.0571246378738,3006.057124637874 1741.0606601717798,3006.06066017178 L 1859.0,3124.0"/>
  <path fill="none" stroke="#8dffe2" stroke-width="20" stroke-opacity="1" d="M 1396.0,2670.0 L 1353.0606601717798,2627.06066017178 C 1353.0571246378738,2627.057124637874 1352.0,2624.505 1352.0,2624.5 L 1352.0,1997.5 C 1352.0,1997.495 1350.9428753621262,1994.9428753621262 1350.9393398282202,1994.9393398282202 L 1308.0,1952.0"/>
  <path fill="none" stroke="#89ffda" stroke-width="20" stroke-opacity="1" d="M 2309.0,3401.0 L 2172.056824186977,3263.064482333259 C 2172.053301439687,3263.060934058815 2169.505,3262.0 2169.5,3262.0 L 1998.5,3262.0 C 1998.495,3262.0 1995.9428753621262,3260.942875362126 1995.9393398282202,3260.93933982822 L 1859.0,3124.0"/>
  <path fill="none" stroke="#85ffd1" stroke-width="20" stroke-opacity="1" d="M 2691.0,2574.0 L 2588.06066017178,2676.93933982822 C 2588.057124637874,2676.942875362126 2587.0,2679.495 2587.0,2679.5 L 2587.0,2848.5 C 2587.0,2848.505 2585.9479454171524,2851.0621704922983 2585.944426839952,2851.0657229019716 L 2483.0,2955.0"/>
  <path fill="none" stroke="#81ffc8" stroke-width="20" stroke-opacity="1" d="M 2304.0,1464.0 L 2237.068487600406,1529.9472254525408 C 2237.0649259750717,1529.9507347010324 2234.505,1531.0 2234.5,1531.0 L 1883.5,1531.0 C 1883.495,1531.0 1880.9350740249283,1532.0492652989676 1880.9315123995937,1532.0527745474592 L 1814.0,1598.0"/>
  <path fill="none" stroke="#7cffbe" stroke-width="20" stroke-opacity="1" d="M 1999.0,2211.0 L 2049.949488994808,2159.070713139907 C 2049.9529906981584,2159.0671440961078 2052.495,2158.0 2052.5,2158.0 L 2582.5,2158.0 C 2582.505,2158.0 2585.057124637874,2156.942875362126 2585.06066017178,2156.93933982822 L 2637.0,2105.0"/>
  <path fill="none" stroke="#78ffb4" stroke-width="20" stroke-opacity="1" d="M 1488.0,3132.0 L 1577.9393398282202,3042.06066017178 C 1577.9428753621262,3042.057124637874 1579.0,3039.505 1579.0,3039.5 L 1579.0,2779.5 C 1579.0,2779.495 1580.0628854061856,2776.9486676960555 1580.0664402068753,2776.9451515345036 L 1671.0,2687.0"/>
  <path fill="none" stroke="#74ffaa" stroke-width="20" stroke-opacity="1" d="M 1859.0,3124.0 L 1766.0606601717798,3031.06066017178 C 1766.0571246378738,3031.057124637874 1765.0,3028.505 1765.0,3028.5 L 1765.0,2782.5 C 1765.0,2782.495 1763.9428753621262,2779.942875362126 1763.9393398282202,2779.93933982822 L 1671.0,2687.0"/>
  <path fill="none" stroke="#70ff9f" stroke-width="20" stroke-opacity="1" d="M 1581.0,2213.0 L 1624.9393398282202,2256.93933982822 C 1624.9428753621262,2256.942875362126 1626.0,2259.495 1626.0,2259.5 L 1626.0,2640.5 C 1626.0,2640.505 1627.0571246378738,2643.057124637874 1627.0606601717798,2643.06066017178 L 1671.0,2687.0"/>
  <path fill="none" stroke="#6cff93" stroke-width="20" stroke-opacity="1" d="M 1999.0,2211.0 L 1836.0606601717798,2373.93933982822 C 1836.0571246378738,2373.942875362126 1835.0,2376.495 1835.0,2376.5 L 1835.0,2521.5 C 1835.0,2521.505 1833.9428753621262,2524.057124637874 1833.9393398282202,2524.06066017178 L 1671.0,2687.0"/>
  <path fill="none" stroke="#67ff87" stroke-width="20" stroke-opacity="1" d="M 1982.0,2797.0 L 2144.9361011939113,2958.9425883817535 C 2144.9396475232647,2958.9461130871473 2146.0,2961.495 2146.0,2961.5 L 2146.0,3235.5 C 2146.0,3235.505 2147.0538869128527,3238.0603524767353 2147.0574116182465,3238.0638988060887 L 2309.0,3401.0"/>
  <path fill="none" stroke="#63ff7a" stroke-width="20" stroke-opacity="1" d="M 1814.0,1598.0 L 1981.9393398282202,1765.9393398282202 C 1981.9428753621262,1765.9428753621262 1984.495,1767.0 1984.5,1767.0 L 2078.5,1767.0 C 2078.505,1767.0 2081.057124637874,1768.0571246378738 2081.06066017178,1768.0606601717798 L 2248.0,1935.0"/>
  <path fill="none" stroke="#5fff6d" stroke-width="20" stroke-opacity="1" d="M 1594.0,3432.0 L 1724.9433498427268,3300.0646550827073 C 1724.9468720099176,3300.0611062324315 1726.0,3297.505 1726.0,3297.5 L 1726.0,3258.5 C 1726.0,3258.495 1727.0571246378738,3255.942875362126 1727.0606601717798,3255.93933982822 L 1859.0,3124.0"/>
  <path fill="none" stroke="#5bff60" stroke-width="20" stroke-opacity="1" d="M 1999.0,2211.0 L 1997.1,2211.95 C 1997.0996666666667,2211.9501666666665 1996.8885692791212,2212.0 1996.888196601125,2212.0 L 1582.0707106781188,2212.0 C 1582.0704749758584,2212.0 1581.9501666666667,2212.0498333333335 1581.95,2212.05 L 1581.0,2213.0"/>
  <path fill="none" stroke="#5cff57" stroke-width="20" stroke-opacity="1" d="M 2637.0,2105.0 L 2553.06066017178,2021.0606601717798 C 2553.057124637874,2021.0571246378738 2550.505,2020.0 2550.5,2020.0 L 2334.5,2020.0 C 2334.495,2020.0 2331.942875362126,2018.9428753621262 2331.93933982822,2018.9393398282202 L 2248.0,1935.0"/>
  <path fill="none" stroke="#62fe52" stroke-width="20" stroke-opacity="1" d="M 1982.0,2797.0 L 1928.0606601717798,2743.06066017178 C 1928.0571246378738,2743.057124637874 1925.505,2742.0 1925.5,2742.0 L 1726.5,2742.0 C 1726.495,2742.0 1723.9526178304027,2740.933221864299 1723.9491148800028,2740.929654044447 L 1671.0,2687.0"/>
  <path fill="none" stroke="#69ff4e" stroke-width="20" stroke-opacity="1" d="M 2309.0,3401.0 L 2394.93933982822,3315.06066017178 C 2394.942875362126,3315.057124637874 2396.0,3312.505 2396.0,3312.5 L 2396.0,3042.5 C 2396.0,3042.495 2397.063217422734,3039.9490034671826 2397.066773333847,3039.945488428611 L 2483.0,2955.0"/>
  <path fill="none" stroke="#70ff4a" stroke-width="20" stroke-opacity="1" d="M 1999.0,2211.0 L 1907.0606601717798,2119.06066017178 C 1907.0571246378738,2119.057124637874 1906.0,2116.505 1906.0,2116.5 L 1906.0,1691.5 C 1906.0,1691.495 1904.9428753621262,1688.9428753621262 1904.9393398282202,1688.9393398282202 L 1814.0,1598.0"/>
  <path fill="none" stroke="#78ff46" stroke-width="20" stroke-opacity="1" d="M 1397.0,2885.0 L 1494.9393398282202,2787.06066017178 C 1494.9428753621262,2787.057124637874 1497.495,2786.0 1497.5,2786.0 L 1569.5,2786.0 C 1569.505,2786.0 1572.0624234079703,2784.9482008261093 1572.0659766635154,2784.94468310312 L 1671.0,2687.0"/>
  <path fill="none" stroke="#80ff42" stroke-width="20" stroke-opacity="1" d="M 1982.0,2797.0 L 2022.9518907141874,2755.073064268808 C 2022.9553844118066,2755.0694873879124 2025.495,2754.0 2025.5,2754.0 L 2220.5,2754.0 C 2220.505,2754.0 2223.057124637874,2752.942875362126 2223.06066017178,2752.93933982822 L 2264.0,2712.0"/>
  <path fill="none" stroke="#88ff3e" stroke-width="20" stroke-opacity="1" d="M 1837.0,3500.0 L 1847.45,3488.6 C 1847.4518333333333,3488.598 1848.0,3487.188772106961 1848.0,3487.186058970195 L 1848.0,3135.7778174593054 C 1848.0,3135.775224734441 1848.5481666666667,3134.4518333333335 1848.55,3134.45 L 1859.0,3124.0"/>
  <path fill="none" stroke="#92ff39" stroke-width="20" stroke-opacity="1" d="M 1581.0,2213.0 L 1696.9393398282202,2097.06066017178 C 1696.9428753621262,2097.057124637874 1698.0,2094.505 1698.0,2094.5 L 1698.0,1716.5 C 1698.0,1716.495 1699.0525779280954,1713.9383481242487 1699.0560982556142,1713.9347974490788 L 1814.0,1598.0"/>
  <path fill="none" stroke="#9bff35" stroke-width="20" stroke-opacity="1" d="M 1982.0,2797.0 L 1922.0606601717798,2856.93933982822 C 1922.0571246378738,2856.942875362126 1921.0,2859.495 1921.0,2859.5 L 1921.0,3061.5 C 1921.0,3061.505 1919.9343160721996,3064.048495477352 1919.9307519119059,3064.0520021511893 L 1859.0,3124.0"/>
  <path fill="none" stroke="#a6fe31" stroke-width="20" stroke-opacity="1" d="M 1981.0,2544.0 L 1910.0680512610977,2613.9467827841954 C 1910.0644910902274,2613.950293508248 1907.505,2615.0 1907.5,2615.0 L 1743.5,2615.0 C 1743.495,2615.0 1740.950293508248,2616.0644910902274 1740.9467827841952,2616.068051261098 L 1671.0,2687.0"/>
  <path fill="none" stroke="#b0fe2d" stroke-width="20" stroke-opacity="1" d="M 1456.0,1188.0 L 1465.5,1198.45 C 1465.5016666666668,1198.4518333333333 1466.7408257592413,1199.0 1466.743303437366,1199.0 L 1764.256696562634,1199.0 C 1764.2591742407587,1199.0 1765.5481666666667,1199.4983333333332 1765.55,1199.5 L 1776.0,1209.0"/>
  <path fill="none" stroke="#bbff29" stroke-width="20" stroke-opacity="1" d="M 1845.0,943.0 L 1741.0707106781188,839.0707106781186 C 1741.0704749758584,839.0704749758582 1741.0,838.9003333333334 1741.0,838.9 L 1741.0,837.095 C 1741.0,837.0946833333334 1740.9330487729346,836.9330487729346 1740.9328248557872,836.9328248557873 L 1637.0,733.0"/>
  <path fill="none" stroke="#c7ff24" stroke-width="20" stroke-opacity="1" d="M 1464.0,500.0 L 1652.9393398282202,688.9393398282202 C 1652.9428753621262,688.9428753621261 1654.0,691.495 1654.0,691.5 L 1654.0,750.5 C 1654.0,750.505 1655.0571246378738,753.0571246378739 1655.0606601717798,753.0606601717798 L 1845.0,943.0"/>
  <path fill="none" stroke="#d3ff20" stroke-width="20" stroke-opacity="1" d="M 1776.0,1209.0 L 1808.9393398282202,1176.0606601717798 C 1808.9428753621262,1176.0571246378738 1810.0,1173.505 1810.0,1173.5 L 1810.0,978.5 C 1810.0,978.495 1811.0723326743846,975.9583054020264 1811.0759190712888,975.9548214736051 L 1845.0,943.0"/>
  <path fill="none" stroke="#e0ff1c" stroke-width="20" stroke-opacity="1" d="M 1776.0,1209.0 L 1794.05,1228.0 C 1794.0531666666666,1228.0033333333333 1795.0,1230.374713717672 1795.0,1230.3793114224134 L 1795.0,1577.6564971157457 C 1795.0,1577.660975458693 1795.9468333333334,1579.9468333333334 1795.95,1579.95 L 1814.0,1598.0"/>
  <path fill="none" stroke="#edff18" stroke-width="20" stroke-opacity="1" d="M 2304.0,1464.0 L 2277.06066017178,1490.9393398282202 C 2277.057124637874,1490.9428753621262 2276.0,1493.495 2276.0,1493.5 L 2276.0,1905.5 C 2276.0,1905.505 2274.942875362126,1908.0571246378738 2274.93933982822,1908.0606601717798 L 2248.0,1935.0"/>
  <path fill="none" stroke="#fbff14" stroke-width="20" stroke-opacity="1" d="M 1999.0,2211.0 L 2122.084460289844,2086.922923094915 C 2122.087512088878,2086.9198466845987 2123.0,2084.704333333333 2123.0,2084.7 L 2123.0,2061.235 C 2123.0,2061.230883333333 2123.8703659518496,2059.1296340481504 2123.8732768747655,2059.1267231252345 L 2248.0,1935.0"/>
  <path fill="none" stroke="#fef40f" stroke-width="20" stroke-opacity="1" d="M 1981.0,2544.0 L 1989.55,2535.45 C 1989.5515,2535.4485 1990.0,2534.3657252172757 1990.0,2534.363603896932 L 1990.0,2220.636396103068 C 1990.0,2220.6342747827243 1990.4485,2219.5515 1990.45,2219.55 L 1999.0,2211.0"/>
  <path fill="none" stroke="#fee50b" stroke-width="20" stroke-opacity="1" d="M 1837.0,3500.0 L 1885.9393398282202,3451.06066017178 C 1885.9428753621262,3451.057124637874 1888.495,3450.0 1888.5,3450.0 L 2258.5,3450.0 C 2258.505,3450.0 2261.057124637874,3448.942875362126 2261.06066017178,3448.93933982822 L 2309.0,3401.0"/>
  <path fill="none" stroke="#ffd607" stroke-width="20" stroke-opacity="1" d="M 2264.0,2712.0 L 2372.1514718625763,2820.1514718625763 C 2372.154300289701,2820.154300289701 2373.0,2822.196 2373.0,2822.2 L 2373.0,2843.86 C 2373.0,2843.8638 2373.803414724784,2845.803414724784 2373.8061017305527,2845.8061017305527 L 2483.0,2955.0"/>
  <path fill="none" stroke="#ffc603" stroke-width="20" stroke-opacity="1" d="M 2637.0,2105.0 L 2662.93933982822,2130.93933982822 C 2662.942875362126,2130.942875362126 2664.0,2133.495 2664.0,2133.5 L 2664.0,2545.5 C 2664.0,2545.505 2665.057124637874,2548.057124637874 2665.06066017178,2548.06066017178 L 2691.0,2574.0"/>
  <path fill="none" stroke="#feb600" stroke-width="20" stroke-opacity="1" d="M 1396.0,2670.0 L 1403.6,2678.55 C 1403.6013333333333,2678.5515 1404.6000727965097,2679.0 1404.6020797289395,2679.0 L 1661.3979202710605,2679.0 C 1661.3999272034903,2679.0 1662.4485,2679.3986666666665 1662.45,2679.4 L 1671.0,2687.0"/>
  <path fill="none" stroke="#faa400" stroke-width="20" stroke-opacity="1" d="M 1981.0,2544.0 L 1981.0,2545.0 L 1981.0,2795.9292893218812 C 1981.0,2795.9295250241416 1981.0498333333333,2796.0498333333335 1981.05,2796.05 L 1982.0,2797.0"/>
  <path fill="none" stroke="#f59200" stroke-width="20" stroke-opacity="1" d="M 2691.0,2574.0 L 2623.06066017178,2641.93933982822 C 2623.057124637874,2641.942875362126 2620.505,2643.0 2620.5,2643.0 L 2334.5,2643.0 C 2334.495,2643.0 2331.942875362126,2644.057124637874 2331.93933982822,2644.06066017178 L 2264.0,2712.0"/>
  <path fill="none" stroke="#f18100" stroke-width="20" stroke-opacity="1" d="M 1308.0,1952.0 L 1483.9393398282202,1776.0606601717798 C 1483.9428753621262,1776.0571246378738 1486.495,1775.0 1486.5,1775.0 L 1635.5,1775.0 C 1635.505,1775.0 1638.0571246378738,1773.9428753621262 1638.0606601717798,1773.9393398282202 L 1814.0,1598.0"/>
  <path fill="none" stroke="#ed7100" stroke-width="20" stroke-opacity="1" d="M 1981.0,2544.0 L 2063.93933982822,2626.93933982822 C 2063.942875362126,2626.942875362126 2066.495,2628.0 2066.5,2628.0 L 2178.5,2628.0 C 2178.505,2628.0 2181.057124637874,2629.057124637874 2181.06066017178,2629.06066017178 L 2264.0,2712.0"/>
  <path fill="none" stroke="#e96100" stroke-width="20" stroke-opacity="1" d="M 1981.0,2544.0 L 1816.0606601717798,2379.06066017178 C 1816.0571246378738,2379.057124637874 1813.505,2378.0 1813.5,2378.0 L 1747.5,2378.0 C 1747.495,2378.0 1744.9428753621262,2376.942875362126 1744.9393398282202,2376.93933982822 L 1581.0,2213.0"/>
  <path fill="none" stroke="#e55200" stroke-width="20" stroke-opacity="1" d="M 1488.0,3132.0 L 1491.8,3128.2 C 1491.8006666666668,3128.1993333333335 1492.281899903433,3128.0 1492.2828427124746,3128.0 L 1854.7171572875254,3128.0 C 1854.718100096567,3128.0 1855.1993333333332,3127.8006666666665 1855.2,3127.8 L 1859.0,3124.0"/>
  <path fill="none" stroke="#e04300" stroke-width="20" stroke-opacity="1" d="M 1581.0,2213.0 L 1450.425886475598,2083.4226354337993 C 1450.4244668540125,2083.42122664902 1449.402,2083.0 1449.4,2083.0 L 1438.57,2083.0 C 1438.5681,2083.0 1437.599834683431,2082.5967564886882 1437.5984963378905,2082.595407848182 L 1308.0,1952.0"/>
  <path fill="none" stroke="#dc3400" stroke-width="20" stroke-opacity="1" d="M 1594.0,3432.0 L 1626.9393398282202,3464.93933982822 C 1626.9428753621262,3464.942875362126 1629.495,3466.0 1629.5,3466.0 L 1801.5,3466.0 C 1801.505,3466.0 1804.0571246378738,3467.057124637874 1804.0606601717798,3467.06066017178 L 1837.0,3500.0"/>
  <path fill="none" stroke="#d82600" stroke-width="20" stroke-opacity="1" d="M 1488.0,3132.0 L 1539.9393398282202,3183.93933982822 C 1539.9428753621262,3183.942875362126 1541.0,3186.495 1541.0,3186.5 L 1541.0,3377.5 C 1541.0,3377.505 1542.0571246378738,3380.057124637874 1542.0606601717798,3380.06066017178 L 1594.0,3432.0"/>
  <path fill="none" stroke="#d41900" stroke-width="20" stroke-opacity="1" d="M 1397.0,2885.0 L 1441.9393398282202,2929.93933982822 C 1441.9428753621262,2929.942875362126 1443.0,2932.495 1443.0,2932.5 L 1443.0,3085.5 C 1443.0,3085.505 1444.0571246378738,3088.057124637874 1444.0606601717798,3088.06066017178 L 1488.0,3132.0"/>
  <path fill="none" stroke="#d00c00" stroke-width="20" stroke-opacity="1" d="M 1396.0,2670.0 L 1487.9336221088124,2579.05491146225 C 1487.937176701783,2579.0513950907093 1489.0,2576.505 1489.0,2576.5 L 1489.0,2306.5 C 1489.0,2306.495 1490.0571246378738,2303.942875362126 1490.0606601717798,2303.93933982822 L 1581.0,2213.0"/>
  <path fill="none" stroke="#cc0000" stroke-width="20" stroke-opacity="1" d="M 1397.0,2885.0 L 1397.0,2671.0707106781188 C 1397.0,2671.0704749758584 1396.9501666666667,2670.9501666666665 1396.95,2670.95 L 1396.0,2670.0"/>
  <g>
    <circle r="24.49489742783178" fill="white" stroke="black" stroke-width="9.0" cx="1397" cy="2885"/>
    <text fill="black" stroke="none" font-size="60" font-family="p22" font-weight="100" text-anchor="start" dominant-baseline="middle" x="1467" y="2885">Colombo</text>
  </g>
  <g>
    <circle r="26.457513110645905" fill="white" stroke="black" stroke-width="9.0" cx="1396" cy="2670"/>
    <text fill="black" stroke="none" font-size="60" font-family="p22" font-weight="100" text-anchor="start" dominant-baseline="middle" x="1466" y="2670">Gampaha</text>
  </g>
  <g>
    <circle r="26.457513110645905" fill="white" stroke="black" stroke-width="9.0" cx="1488" cy="3132"/>
    <text fill="black" stroke="none" font-size="60" font-family="p22" font-weight="100" text-anchor="start" dominant-baseline="middle" x="1558" y="3132">Kalutara</text>
  </g>
  <g>
    <circle r="28.284271247461902" fill="white" stroke="black" stroke-width="9.0" cx="1981" cy="2544"/>
    <text fill="black" stroke="none" font-size="60" font-family="p22" font-weight="100" text-anchor="start" dominant-baseline="middle" x="2051" y="2544">Kandy</text>
  </g>
  <g>
    <circle r="30.0" fill="white" stroke="black" stroke-width="9.0" cx="1999" cy="2211"/>
    <text fill="black" stroke="none" font-size="60" font-family="p22" font-weight="100" text-anchor="start" dominant-baseline="middle" x="2069" y="2211">Matale</text>
  </g>
  <g>
    <circle r="31.622776601683796" fill="white" stroke="black" stroke-width="9.0" cx="1982" cy="2797"/>
    <text fill="black" stroke="none" font-size="60" font-family="p22" font-weight="100" text-anchor="start" dominant-baseline="middle" x="2052" y="2797">Nuwara Eliya</text>
  </g>
  <g>
    <circle r="22.360679774997898" fill="white" stroke="black" stroke-width="9.0" cx="1594" cy="3432"/>
    <text fill="black" stroke="none" font-size="60" font-family="p22" font-weight="100" text-anchor="start" dominant-baseline="middle" x="1664" y="3432">Galle</text>
  </g>
  <g>
    <circle r="22.360679774997898" fill="white" stroke="black" stroke-width="9.0" cx="1837" cy="3500"/>
    <text fill="black" stroke="none" font-size="60" font-family="p22" font-weight="100" text-anchor="start" dominant-baseline="middle" x="1907" y="3500">Matara</text>
  </g>
  <g>
    <circle r="22.360679774997898" fill="white" stroke="black" stroke-width="9.0" cx="2309" cy="3401"/>
    <text fill="black" stroke="none" font-size="60" font-family="p22" font-weight="100" text-anchor="start" dominant-baseline="middle" x="2379" y="3401">Hambantota</text>
  </g>
  <g>
    <text fill="lightgrey" stroke="none" font-size="30.0" font-family="p22" font-weight="100" text-anchor="start" dominant-baseline="middle" x="1504.0" y="500">Jaffna</text>
  </g>
  <g>
    <text fill="lightgrey" stroke="none" font-size="30.0" font-family="p22" font-weight="100" text-anchor="start" dominant-baseline="middle" x="1496.0" y="1188">Mannar</text>
  </g>
  <g>
    <circle r="24.49489742783178" fill="white" stroke="black" stroke-width="9.0" cx="1776" cy="1209"/>
    <text fill="black" stroke="none" font-size="60" font-family="p22" font-weight="100" text-anchor="start" dominant-baseline="middle" x="1846" y="1209">Vavuniya</text>
  </g>
  <g>
    <circle r="20.0" fill="white" stroke="black" stroke-width="9.0" cx="1845" cy="943"/>
    <text fill="black" stroke="none" font-size="60" font-family="p22" font-weight="100" text-anchor="start" dominant-baseline="middle" x="1915" y="943">Mullaitivu</text>
  </g>
  <g>
    <circle r="20.0" fill="white" stroke="black" stroke-width="9.0" cx="1637" cy="733"/>
    <text fill="black" stroke="none" font-size="60" font-family="p22" font-weight="100" text-anchor="start" dominant-baseline="middle" x="1707" y="733">Kilinochchi</text>
  </g>
  <g>
    <circle r="24.49489742783178" fill="white" stroke="black" stroke-width="9.0" cx="2637" cy="2105"/>
    <text fill="black" stroke="none" font-size="60" font-family="p22" font-weight="100" text-anchor="start" dominant-baseline="middle" x="2707" y="2105">Batticaloa</text>
  </g>
  <g>
    <circle r="22.360679774997898" fill="white" stroke="black" stroke-width="9.0" cx="2691" cy="2574"/>
    <text fill="black" stroke="none" font-size="60" font-family="p22" font-weight="100" text-anchor="start" dominant-baseline="middle" x="2761" y="2574">Ampara</text>
  </g>
  <g>
    <circle r="22.360679774997898" fill="white" stroke="black" stroke-width="9.0" cx="2304" cy="1464"/>
    <text fill="black" stroke="none" font-size="60" font-family="p22" font-weight="100" text-anchor="start" dominant-baseline="middle" x="2374" y="1464">Trincomalee</text>
  </g>
  <g>
    <circle r="28.284271247461902" fill="white" stroke="black" stroke-width="9.0" cx="1581" cy="2213"/>
    <text fill="black" stroke="none" font-size="60" font-family="p22" font-weight="100" text-anchor="start" dominant-baseline="middle" x="1651" y="2213">Kurunegala</text>
  </g>
  <g>
    <circle r="20.0" fill="white" stroke="black" stroke-width="9.0" cx="1308" cy="1952"/>
    <text fill="black" stroke="none" font-size="60" font-family="p22" font-weight="100" text-anchor="start" dominant-baseline="middle" x="1378" y="1952">Puttalam</text>
  </g>
  <g>
    <circle r="28.284271247461902" fill="white" stroke="black" stroke-width="9.0" cx="1814" cy="1598"/>
    <text fill="black" stroke="none" font-size="60" font-family="p22" font-weight="100" text-anchor="start" dominant-baseline="middle" x="1884" y="1598">Anuradhapura</text>
  </g>
  <g>
    <circle r="24.49489742783178" fill="white" stroke="black" stroke-width="9.0" cx="2248" cy="1935"/>
    <text fill="black" stroke="none" font-size="60" font-family="p22" font-weight="100" text-anchor="start" dominant-baseline="middle" x="2318" y="1935">Polonnaruwa</text>
  </g>
  <g>
    <circle r="28.284271247461902" fill="white" stroke="black" stroke-width="9.0" cx="2264" cy="2712"/>
    <text fill="black" stroke="none" font-size="60" font-family="p22" font-weight="100" text-anchor="start" dominant-baseline="middle" x="2334" y="2712">Badulla</text>
  </g>
  <g>
    <circle r="24.49489742783178" fill="white" stroke="black" stroke-width="9.0" cx="2483" cy="2955"/>
    <text fill="black" stroke="none" font-size="60" font-family="p22" font-weight="100" text-anchor="start" dominant-baseline="middle" x="2553" y="2955">Moneragala</text>
  </g>
  <g>
    <circle r="33.166247903553995" fill="white" stroke="black" stroke-width="9.0" cx="1859" cy="3124"/>
    <text fill="black" stroke="none" font-size="60" font-family="p22" font-weight="100" text-anchor="start" dominant-baseline="middle" x="1929" y="3124">Ratnapura</text>
  </g>
  <g>
    <circle r="31.622776601683796" fill="white" stroke="black" stroke-width="9.0" cx="1671" cy="2687"/>
    <text fill="black" stroke="none" font-size="60" font-family="p22" font-weight="100" text-anchor="start" dominant-baseline="middle" x="1741" y="2687">Kegalle</text>
  </g>
</svg>
