<?xml version="1.0" ?>
<svg xmlns="http://www.w3.org/2000/svg" width="4000" height="4000" padding="500">
  <text x="2000.0" y="125.0" fill="gray" stroke="none" font-size="60" font-family="p22" text-anchor="middle" dominant-baseline="hanging">Sri Lanka</text>
  <text x="2000.0" y="250.0" fill="gray" stroke="none" font-size="120" font-family="p22" text-anchor="middle" dominant-baseline="hanging">Population Optimized Hypothetical Railway Network</text>
  <text x="2000.0" y="3750.0" fill="gray" stroke="none" font-size="60" font-family="p22" text-anchor="middle" dominant-baseline="hanging">music by @bensound ~ visualization by @nuuuwan</text>
  <text x="3000.0" y="1000.0" fill="lightgrey" stroke="none" font-size="180" font-family="p22" text-anchor="start" dominant-baseline="hanging">341km</text>
  <path fill="none" stroke="#dee1ff" stroke-width="20" stroke-opacity="1" d="M 2373.0,2411.0 L 2429.930157143272,2355.0513972902327 C 2429.933723286128,2355.0478926325986 2431.0,2352.505 2431.0,2352.5 L 2431.0,2159.5 C 2431.0,2159.495 2432.057124637874,2156.942875362126 2432.06066017178,2156.93933982822 L 2488.0,2101.0"/>
  <path fill="none" stroke="#d7dffe" stroke-width="20" stroke-opacity="1" d="M 2073.0,2151.0 L 2201.93933982822,2279.93933982822 C 2201.942875362126,2279.942875362126 2204.495,2281.0 2204.5,2281.0 L 2241.5,2281.0 C 2241.505,2281.0 2244.057124637874,2282.057124637874 2244.06066017178,2282.06066017178 L 2373.0,2411.0"/>
  <path fill="none" stroke="#d0defe" stroke-width="20" stroke-opacity="1" d="M 1153.0,500.0 L 1187.9245076217783,533.9543824100623 C 1187.9280925963724,533.9578678020288 1189.0,536.495 1189.0,536.5 L 1189.0,644.5 C 1189.0,644.505 1190.0571246378738,647.0571246378739 1190.0606601717798,647.0606601717798 L 1225.0,682.0"/>
  <path fill="none" stroke="#c9deff" stroke-width="20" stroke-opacity="1" d="M 1225.0,682.0 L 1196.0606601717798,710.9393398282202 C 1196.0571246378738,710.9428753621261 1195.0,713.495 1195.0,713.5 L 1195.0,872.5 C 1195.0,872.505 1193.9428753621262,875.0571246378739 1193.9393398282202,875.0606601717798 L 1165.0,904.0"/>
  <path fill="none" stroke="#c2e0ff" stroke-width="20" stroke-opacity="1" d="M 1165.0,904.0 L 1170.7,909.7 C 1170.701,909.701 1171.4228498551495,910.0 1171.4242640687119,910.0 L 1318.6464466094067,910.0 C 1318.6476251207087,910.0 1319.2491666666667,910.2491666666666 1319.25,910.25 L 1324.0,915.0"/>
  <path fill="none" stroke="#bbe3ff" stroke-width="20" stroke-opacity="1" d="M 1134.0,1249.0 L 1149.2,1234.75 C 1149.2026666666666,1234.7475 1150.0,1232.9070696753936 1150.0,1232.903414390027 L 1150.0,920.0606601717798 C 1150.0,920.0571246378739 1150.7475,918.2525 1150.75,918.25 L 1165.0,904.0"/>
  <path fill="none" stroke="#b4e8ff" stroke-width="20" stroke-opacity="1" d="M 1529.0,3096.0 L 1601.9321491610904,3167.9465795778324 C 1601.9357086638868,3167.9500909792396 1604.495,3169.0 1604.5,3169.0 L 1683.5,3169.0 C 1683.505,3169.0 1686.0571246378738,3170.057124637874 1686.0606601717798,3170.06066017178 L 1759.0,3243.0"/>
  <path fill="none" stroke="#adeeff" stroke-width="20" stroke-opacity="1" d="M 1666.0,2429.0 L 1726.9393398282202,2489.93933982822 C 1726.9428753621262,2489.942875362126 1728.0,2492.495 1728.0,2492.5 L 1728.0,2604.5 C 1728.0,2604.505 1729.0484954773522,2607.0656839278004 1729.0520021511893,2607.069248088094 L 1789.0,2668.0"/>
  <path fill="none" stroke="#a6f6ff" stroke-width="20" stroke-opacity="1" d="M 2073.0,2151.0 L 1999.0606601717798,2077.06066017178 C 1999.0571246378738,2077.057124637874 1998.0,2074.505 1998.0,2074.5 L 1998.0,2016.5 C 1998.0,2016.495 1996.9499938058102,2013.9358045329157 1996.946482079408,2013.9322453507516 L 1924.0,1940.0"/>
  <path fill="none" stroke="#9ffeff" stroke-width="20" stroke-opacity="1" d="M 1924.0,1940.0 L 1864.0693894385784,1881.0518584641754 C 1864.0658248071163,1881.0483522692948 1861.505,1880.0 1861.5,1880.0 L 1726.5,1880.0 C 1726.495,1880.0 1723.9428753621262,1878.9428753621262 1723.9393398282202,1878.9393398282202 L 1664.0,1819.0"/>
  <path fill="none" stroke="#98fff4" stroke-width="20" stroke-opacity="1" d="M 2564.0,1242.0 L 2546.9,1260.05 C 2546.897,1260.0531666666666 2544.695736851279,1261.0 2544.6913747671697,1261.0 L 2355.3086252328303,1261.0 C 2355.304263148721,1261.0 2353.0531666666666,1261.897 2353.05,1261.9 L 2335.0,1279.0"/>
  <path fill="none" stroke="#91ffe9" stroke-width="20" stroke-opacity="1" d="M 2000.0,1213.0 L 2031.9393398282202,1244.9393398282202 C 2031.9428753621262,1244.9428753621262 2034.495,1246.0 2034.5,1246.0 L 2300.5,1246.0 C 2300.505,1246.0 2303.057124637874,1247.0571246378738 2303.06066017178,1247.0606601717798 L 2335.0,1279.0"/>
  <path fill="none" stroke="#8affdc" stroke-width="20" stroke-opacity="1" d="M 1230.0,2351.0 L 1234.75,2354.8 C 1234.7508333333333,2354.8006666666665 1235.0,2355.3190890244987 1235.0,2355.3201562118716 L 1235.0,2443.7171572875254 C 1235.0,2443.718100096567 1235.1993333333332,2444.1993333333335 1235.2,2444.2 L 1239.0,2448.0"/>
  <path fill="none" stroke="#83ffcd" stroke-width="20" stroke-opacity="1" d="M 1239.0,2448.0 L 1258.0,2467.0 C 1258.0033333333333,2467.0033333333336 1259.0,2469.4094995171654 1259.0,2469.414213562373 L 1259.0,2565.6564971157454 C 1259.0,2565.660975458693 1259.9468333333334,2567.9468333333334 1259.95,2567.95 L 1278.0,2586.0"/>
  <path fill="none" stroke="#7cfebd" stroke-width="20" stroke-opacity="1" d="M 2000.0,1213.0 L 1980.05,1232.95 C 1980.0465,1232.9535 1979.0,1235.4799744930235 1979.0,1235.4849242404916 L 1979.0,1532.5 C 1979.0,1532.505 1977.9677387587096,1535.0814165384948 1977.9642863799763,1535.0850333162155 L 1958.0,1556.0"/>
  <path fill="none" stroke="#75ffac" stroke-width="20" stroke-opacity="1" d="M 1631.0,3498.0 L 1631.95,3498.95 C 1631.9501666666667,3498.9501666666665 1632.0704749758584,3499.0 1632.0707106781188,3499.0 L 1896.9292893218812,3499.0 C 1896.9295250241416,3499.0 1897.0498333333333,3499.0498333333335 1897.05,3499.05 L 1898.0,3500.0"/>
  <path fill="none" stroke="#6eff99" stroke-width="20" stroke-opacity="1" d="M 1246.0,1801.0 L 1289.0702566368786,1758.9086128321412 C 1289.0733557814224,1758.905584122701 1290.0,1756.7043333333334 1290.0,1756.7 L 1290.0,1733.235 C 1290.0,1733.2308833333334 1290.8703659518494,1731.1296340481506 1290.8732768747655,1731.1267231252345 L 1333.0,1689.0"/>
  <path fill="none" stroke="#67ff85" stroke-width="20" stroke-opacity="1" d="M 1333.0,1689.0 L 1333.95,1689.95 C 1333.9501666666667,1689.9501666666667 1334.0704749758584,1690.0 1334.0707106781188,1690.0 L 1593.9292893218812,1690.0 C 1593.9295250241416,1690.0 1594.0498333333333,1690.0498333333333 1594.05,1690.05 L 1595.0,1691.0"/>
  <path fill="none" stroke="#60ff70" stroke-width="20" stroke-opacity="1" d="M 1639.0,1123.0 L 1682.9393398282202,1166.9393398282202 C 1682.9428753621262,1166.9428753621262 1685.495,1168.0 1685.5,1168.0 L 1953.5,1168.0 C 1953.505,1168.0 1956.0571246378738,1169.0571246378738 1956.0606601717798,1169.0606601717798 L 2000.0,1213.0"/>
  <path fill="none" stroke="#59ff59" stroke-width="20" stroke-opacity="1" d="M 1639.0,1123.0 L 1674.9393398282202,1087.0606601717798 C 1674.9428753621262,1087.0571246378738 1676.0,1084.505 1676.0,1084.5 L 1676.0,824.5 C 1676.0,824.495 1677.0571246378738,821.9428753621261 1677.0606601717798,821.9393398282202 L 1713.0,786.0"/>
  <path fill="none" stroke="#63fe52" stroke-width="20" stroke-opacity="1" d="M 1639.0,1123.0 L 1595.0725100035195,1165.9513235521142 C 1595.0689349701745,1165.954819140274 1594.0,1168.495 1594.0,1168.5 L 1594.0,1384.5 C 1594.0,1384.505 1592.954819140274,1387.0689349701745 1592.9513235521142,1387.0725100035195 L 1550.0,1431.0"/>
  <path fill="none" stroke="#6fff4b" stroke-width="20" stroke-opacity="1" d="M 1354.0,2115.0 L 1345.45,2106.45 C 1345.4485,2106.4485 1345.0,2105.3657252172757 1345.0,2105.363603896932 L 1345.0,2013.636396103068 C 1345.0,2013.6342747827243 1344.5515,2012.5515 1344.55,2012.55 L 1336.0,2004.0"/>
  <path fill="none" stroke="#7cff44" stroke-width="20" stroke-opacity="1" d="M 1354.0,2115.0 L 1329.0606601717798,2139.93933982822 C 1329.0571246378738,2139.942875362126 1328.0,2142.495 1328.0,2142.5 L 1328.0,2221.5 C 1328.0,2221.505 1326.9630056778365,2224.0768787191696 1326.959537469401,2224.0804803202373 L 1302.0,2250.0"/>
  <path fill="none" stroke="#8aff3d" stroke-width="20" stroke-opacity="1" d="M 1302.0,2250.0 L 1288.7,2236.7 C 1288.6976666666667,2236.6976666666665 1287.0133503379843,2236.0 1287.0100505063388,2236.0 L 1228.0259142264342,2236.0 C 1228.0224945123462,2236.0 1226.3023333333333,2235.2525 1226.3,2235.25 L 1213.0,2221.0"/>
  <path fill="none" stroke="#9aff36" stroke-width="20" stroke-opacity="1" d="M 1529.0,3096.0 L 1578.9393398282202,3145.93933982822 C 1578.9428753621262,3145.942875362126 1580.0,3148.495 1580.0,3148.5 L 1580.0,3444.5 C 1580.0,3444.505 1581.0468119570041,3447.067337681651 1581.0503130003387,3447.0709073728945 L 1631.0,3498.0"/>
  <path fill="none" stroke="#abff2f" stroke-width="20" stroke-opacity="1" d="M 1540.0,2784.0 L 1534.3,2788.75 C 1534.299,2788.7508333333335 1534.0,2789.389210775516 1534.0,2789.390512483795 L 1534.0,3089.609487516205 C 1534.0,3089.610789224484 1533.7508333333333,3090.299 1533.75,3090.3 L 1529.0,3096.0"/>
  <path fill="none" stroke="#befe28" stroke-width="20" stroke-opacity="1" d="M 1378.0,2794.0 L 1381.8,2789.25 C 1381.8006666666668,2789.2491666666665 1382.3190890244987,2789.0 1382.3201562118716,2789.0 L 1534.6464466094067,2789.0 C 1534.6476251207087,2789.0 1535.2491666666667,2788.7508333333335 1535.25,2788.75 L 1540.0,2784.0"/>
  <path fill="none" stroke="#d2fe21" stroke-width="20" stroke-opacity="1" d="M 1278.0,2586.0 L 1326.9393398282202,2634.93933982822 C 1326.9428753621262,2634.942875362126 1328.0,2637.495 1328.0,2637.5 L 1328.0,2742.5 C 1328.0,2742.505 1329.0571246378738,2745.057124637874 1329.0606601717798,2745.06066017178 L 1378.0,2794.0"/>
  <path fill="none" stroke="#e8ff1a" stroke-width="20" stroke-opacity="1" d="M 1278.0,2586.0 L 1308.9393398282202,2555.06066017178 C 1308.9428753621262,2555.057124637874 1311.495,2554.0 1311.5,2554.0 L 1359.5,2554.0 C 1359.505,2554.0 1362.0571246378738,2552.942875362126 1362.0606601717798,2552.93933982822 L 1394.0,2521.0"/>
  <path fill="none" stroke="#feff13" stroke-width="20" stroke-opacity="1" d="M 1438.0,2355.0 L 1417.036833968951,2376.9160372142783 C 1417.0333778557213,2376.9196504235642 1416.0,2379.495 1416.0,2379.5 L 1416.0,2497.5 C 1416.0,2497.505 1414.9428753621262,2500.057124637874 1414.9393398282202,2500.06066017178 L 1394.0,2521.0"/>
  <path fill="none" stroke="#ffe60c" stroke-width="20" stroke-opacity="1" d="M 1549.0,2211.0 L 1494.0701722409142,2264.9489379776737 C 1494.0666050001112,2264.952441517748 1493.0,2267.495 1493.0,2267.5 L 1493.0,2298.5 C 1493.0,2298.505 1491.9428753621262,2301.057124637874 1491.9393398282202,2301.06066017178 L 1438.0,2355.0"/>
  <path fill="none" stroke="#ffcd05" stroke-width="20" stroke-opacity="1" d="M 1134.0,1249.0 L 1162.9393398282202,1277.9393398282202 C 1162.9428753621262,1277.9428753621262 1165.495,1279.0 1165.5,1279.0 L 1242.5,1279.0 C 1242.505,1279.0 1245.0571246378738,1280.0571246378738 1245.0606601717798,1280.0606601717798 L 1273.0,1308.0"/>
  <path fill="none" stroke="#fdb100" stroke-width="20" stroke-opacity="1" d="M 1273.0,1308.0 L 1333.9307519119059,1367.9479978488107 C 1333.9343160721996,1367.9515045226478 1336.495,1369.0 1336.5,1369.0 L 1487.5,1369.0 C 1487.505,1369.0 1490.0484954773522,1370.0656839278004 1490.0520021511893,1370.0692480880941 L 1550.0,1431.0"/>
  <path fill="none" stroke="#f69300" stroke-width="20" stroke-opacity="1" d="M 1550.0,1431.0 L 1571.9160372142785,1451.963166031049 C 1571.9196504235642,1451.9666221442787 1573.0,1454.495 1573.0,1454.5 L 1573.0,1666.5 C 1573.0,1666.505 1574.0333778557213,1669.0803495764358 1574.036833968951,1669.0839627857215 L 1595.0,1691.0"/>
  <path fill="none" stroke="#ef7700" stroke-width="20" stroke-opacity="1" d="M 1595.0,1691.0 L 1628.9240809287112,1723.954821473605 C 1628.9276673256154,1723.9583054020266 1630.0,1726.495 1630.0,1726.5 L 1630.0,1783.5 C 1630.0,1783.505 1631.0571246378738,1786.0571246378738 1631.0606601717798,1786.0606601717798 L 1664.0,1819.0"/>
  <path fill="none" stroke="#e85c00" stroke-width="20" stroke-opacity="1" d="M 1664.0,1819.0 L 1607.0515562921216,1876.9303134269799 C 1607.0480511044811,1876.9338790488898 1606.0,1879.495 1606.0,1879.5 L 1606.0,1947.5 C 1606.0,1947.505 1604.9519488955189,1950.0661209511102 1604.9484437078784,1950.0696865730201 L 1548.0,2008.0"/>
  <path fill="none" stroke="#e14300" stroke-width="20" stroke-opacity="1" d="M 1549.0,2211.0 L 1548.05,2210.05 C 1548.0498333333333,2210.0498333333335 1548.0,2209.9295250241416 1548.0,2209.9292893218812 L 1548.0,2008.0"/>
  <path fill="none" stroke="#da2b00" stroke-width="20" stroke-opacity="1" d="M 1187.0,2082.0 L 1199.35,2094.35 C 1199.3521666666666,2094.3521666666666 1200.0,2095.9161746861573 1200.0,2095.9192388155425 L 1200.0,2207.0807611844575 C 1200.0,2207.0838253138427 1200.6478333333334,2208.6478333333334 1200.65,2208.65 L 1213.0,2221.0"/>
  <path fill="none" stroke="#d31500" stroke-width="20" stroke-opacity="1" d="M 1549.0,2211.0 L 1605.9393398282202,2267.93933982822 C 1605.9428753621262,2267.942875362126 1607.0,2270.495 1607.0,2270.5 L 1607.0,2368.5 C 1607.0,2368.505 1608.0571246378738,2371.057124637874 1608.0606601717798,2371.06066017178 L 1666.0,2429.0"/>
  <path fill="none" stroke="#cc0000" stroke-width="20" stroke-opacity="1" d="M 1187.0,2082.0 L 1249.9393398282202,2144.93933982822 C 1249.9428753621262,2144.942875362126 1252.495,2146.0 1252.5,2146.0 L 1482.5,2146.0 C 1482.505,2146.0 1485.0571246378738,2147.057124637874 1485.0606601717798,2147.06066017178 L 1549.0,2211.0"/>
  <g>
    <text fill="lightgrey" stroke="none" font-size="30.0" font-family="p22" font-weight="100" text-anchor="start" dominant-baseline="middle" x="1227.0" y="2082">Colombo</text>
  </g>
  <g>
    <text fill="lightgrey" stroke="none" font-size="30.0" font-family="p22" font-weight="100" text-anchor="start" dominant-baseline="middle" x="1394.0" y="2115">Kolonnawa</text>
  </g>
  <g>
    <circle r="22.360679774997898" fill="white" stroke="black" stroke-width="9.0" cx="1549" cy="2211"/>
    <text fill="black" stroke="none" font-size="60" font-family="p22" font-weight="100" text-anchor="start" dominant-baseline="middle" x="1619" y="2211">Kaduwela</text>
  </g>
  <g>
    <text fill="lightgrey" stroke="none" font-size="30.0" font-family="p22" font-weight="100" text-anchor="start" dominant-baseline="middle" x="1706.0" y="2429">Homagama</text>
  </g>
  <g>
    <text fill="lightgrey" stroke="none" font-size="30.0" font-family="p22" font-weight="100" text-anchor="start" dominant-baseline="middle" x="2113.0" y="2151">Seethawaka</text>
  </g>
  <g>
    <text fill="lightgrey" stroke="none" font-size="30.0" font-family="p22" font-weight="100" text-anchor="start" dominant-baseline="middle" x="1478.0" y="2355">Maharagama</text>
  </g>
  <g>
    <text fill="lightgrey" stroke="none" font-size="30.0" font-family="p22" font-weight="100" text-anchor="start" dominant-baseline="middle" x="1342.0" y="2250">Sri Jayawardanapura Kotte</text>
  </g>
  <g>
    <text fill="lightgrey" stroke="none" font-size="30.0" font-family="p22" font-weight="100" text-anchor="start" dominant-baseline="middle" x="1253.0" y="2221">Thimbirigasyaya</text>
  </g>
  <g>
    <circle r="14.142135623730951" fill="white" stroke="black" stroke-width="9.0" cx="1230" cy="2351"/>
    <text fill="black" stroke="none" font-size="45.0" font-family="p22" font-weight="100" text-anchor="start" dominant-baseline="middle" x="1285.0" y="2351">Dehiwala</text>
  </g>
  <g>
    <text fill="lightgrey" stroke="none" font-size="30.0" font-family="p22" font-weight="100" text-anchor="start" dominant-baseline="middle" x="1279.0" y="2448">Ratmalana</text>
  </g>
  <g>
    <circle r="20.0" fill="white" stroke="black" stroke-width="9.0" cx="1278" cy="2586"/>
    <text fill="black" stroke="none" font-size="60" font-family="p22" font-weight="100" text-anchor="start" dominant-baseline="middle" x="1348" y="2586">Moratuwa</text>
  </g>
  <g>
    <text fill="lightgrey" stroke="none" font-size="30.0" font-family="p22" font-weight="100" text-anchor="start" dominant-baseline="middle" x="1434.0" y="2521">Kesbewa</text>
  </g>
  <g>
    <text fill="lightgrey" stroke="none" font-size="30.0" font-family="p22" font-weight="100" text-anchor="start" dominant-baseline="middle" x="1174.0" y="1249">Negombo</text>
  </g>
  <g>
    <text fill="lightgrey" stroke="none" font-size="30.0" font-family="p22" font-weight="100" text-anchor="start" dominant-baseline="middle" x="1313.0" y="1308">Katana</text>
  </g>
  <g>
    <circle r="20.0" fill="white" stroke="black" stroke-width="9.0" cx="1639" cy="1123"/>
    <text fill="black" stroke="none" font-size="60" font-family="p22" font-weight="100" text-anchor="start" dominant-baseline="middle" x="1709" y="1123">Divulapitiya</text>
  </g>
  <g>
    <circle r="20.0" fill="white" stroke="black" stroke-width="9.0" cx="2000" cy="1213"/>
    <text fill="black" stroke="none" font-size="60" font-family="p22" font-weight="100" text-anchor="start" dominant-baseline="middle" x="2070" y="1213">Mirigama</text>
  </g>
  <g>
    <circle r="20.0" fill="white" stroke="black" stroke-width="9.0" cx="1550" cy="1431"/>
    <text fill="black" stroke="none" font-size="60" font-family="p22" font-weight="100" text-anchor="start" dominant-baseline="middle" x="1620" y="1431">Minuwangoda</text>
  </g>
  <g>
    <circle r="14.142135623730951" fill="white" stroke="black" stroke-width="9.0" cx="1246" cy="1801"/>
    <text fill="black" stroke="none" font-size="45.0" font-family="p22" font-weight="100" text-anchor="start" dominant-baseline="middle" x="1301.0" y="1801">Wattala</text>
  </g>
  <g>
    <text fill="lightgrey" stroke="none" font-size="30.0" font-family="p22" font-weight="100" text-anchor="start" dominant-baseline="middle" x="1373.0" y="1689">Ja-Ela</text>
  </g>
  <g>
    <circle r="20.0" fill="white" stroke="black" stroke-width="9.0" cx="1595" cy="1691"/>
    <text fill="black" stroke="none" font-size="60" font-family="p22" font-weight="100" text-anchor="start" dominant-baseline="middle" x="1665" y="1691">Gampaha</text>
  </g>
  <g>
    <circle r="14.142135623730951" fill="white" stroke="black" stroke-width="9.0" cx="1958" cy="1556"/>
    <text fill="black" stroke="none" font-size="45.0" font-family="p22" font-weight="100" text-anchor="start" dominant-baseline="middle" x="2013.0" y="1556">Attanagalla</text>
  </g>
  <g>
    <text fill="lightgrey" stroke="none" font-size="30.0" font-family="p22" font-weight="100" text-anchor="start" dominant-baseline="middle" x="1964.0" y="1940">Dompe</text>
  </g>
  <g>
    <circle r="20.0" fill="white" stroke="black" stroke-width="9.0" cx="1664" cy="1819"/>
    <text fill="black" stroke="none" font-size="60" font-family="p22" font-weight="100" text-anchor="start" dominant-baseline="middle" x="1734" y="1819">Mahara</text>
  </g>
  <g>
    <circle r="14.142135623730951" fill="white" stroke="black" stroke-width="9.0" cx="1336" cy="2004"/>
    <text fill="black" stroke="none" font-size="45.0" font-family="p22" font-weight="100" text-anchor="start" dominant-baseline="middle" x="1391.0" y="2004">Kelaniya</text>
  </g>
  <g>
    <text fill="lightgrey" stroke="none" font-size="30.0" font-family="p22" font-weight="100" text-anchor="start" dominant-baseline="middle" x="1588.0" y="2008">Biyagama</text>
  </g>
  <g>
    <text fill="lightgrey" stroke="none" font-size="30.0" font-family="p22" font-weight="100" text-anchor="start" dominant-baseline="middle" x="1418.0" y="2794">Panadura</text>
  </g>
  <g>
    <text fill="lightgrey" stroke="none" font-size="30.0" font-family="p22" font-weight="100" text-anchor="start" dominant-baseline="middle" x="1580.0" y="2784">Bandaragama</text>
  </g>
  <g>
    <circle r="14.142135623730951" fill="white" stroke="black" stroke-width="9.0" cx="1789" cy="2668"/>
    <text fill="black" stroke="none" font-size="45.0" font-family="p22" font-weight="100" text-anchor="start" dominant-baseline="middle" x="1844.0" y="2668">Horana</text>
  </g>
  <g>
    <circle r="20.0" fill="white" stroke="black" stroke-width="9.0" cx="1529" cy="3096"/>
    <text fill="black" stroke="none" font-size="60" font-family="p22" font-weight="100" text-anchor="start" dominant-baseline="middle" x="1599" y="3096">Kalutara</text>
  </g>
  <g>
    <text fill="lightgrey" stroke="none" font-size="30.0" font-family="p22" font-weight="100" text-anchor="start" dominant-baseline="middle" x="1671.0" y="3498">Beruwala</text>
  </g>
  <g>
    <circle r="14.142135623730951" fill="white" stroke="black" stroke-width="9.0" cx="1759" cy="3243"/>
    <text fill="black" stroke="none" font-size="45.0" font-family="p22" font-weight="100" text-anchor="start" dominant-baseline="middle" x="1814.0" y="3243">Dodangoda</text>
  </g>
  <g>
    <circle r="14.142135623730951" fill="white" stroke="black" stroke-width="9.0" cx="1898" cy="3500"/>
    <text fill="black" stroke="none" font-size="45.0" font-family="p22" font-weight="100" text-anchor="start" dominant-baseline="middle" x="1953.0" y="3500">Mathugama</text>
  </g>
  <g>
    <circle r="14.142135623730951" fill="white" stroke="black" stroke-width="9.0" cx="1713" cy="786"/>
    <text fill="black" stroke="none" font-size="45.0" font-family="p22" font-weight="100" text-anchor="start" dominant-baseline="middle" x="1768.0" y="786">Pannala</text>
  </g>
  <g>
    <circle r="14.142135623730951" fill="white" stroke="black" stroke-width="9.0" cx="1153" cy="500"/>
    <text fill="black" stroke="none" font-size="45.0" font-family="p22" font-weight="100" text-anchor="start" dominant-baseline="middle" x="1208.0" y="500">Mahawewa</text>
  </g>
  <g>
    <text fill="lightgrey" stroke="none" font-size="30.0" font-family="p22" font-weight="100" text-anchor="start" dominant-baseline="middle" x="1265.0" y="682">Nattandiya</text>
  </g>
  <g>
    <circle r="20.0" fill="white" stroke="black" stroke-width="9.0" cx="1165" cy="904"/>
    <text fill="black" stroke="none" font-size="60" font-family="p22" font-weight="100" text-anchor="start" dominant-baseline="middle" x="1235" y="904">Wennappuwa</text>
  </g>
  <g>
    <circle r="14.142135623730951" fill="white" stroke="black" stroke-width="9.0" cx="1324" cy="915"/>
    <text fill="black" stroke="none" font-size="45.0" font-family="p22" font-weight="100" text-anchor="start" dominant-baseline="middle" x="1379.0" y="915">Dankotuwa</text>
  </g>
  <g>
    <text fill="lightgrey" stroke="none" font-size="30.0" font-family="p22" font-weight="100" text-anchor="start" dominant-baseline="middle" x="2413.0" y="2411">Eheliyagoda</text>
  </g>
  <g>
    <circle r="14.142135623730951" fill="white" stroke="black" stroke-width="9.0" cx="2564" cy="1242"/>
    <text fill="black" stroke="none" font-size="45.0" font-family="p22" font-weight="100" text-anchor="start" dominant-baseline="middle" x="2619.0" y="1242">Galigamuwa</text>
  </g>
  <g>
    <text fill="lightgrey" stroke="none" font-size="30.0" font-family="p22" font-weight="100" text-anchor="start" dominant-baseline="middle" x="2375.0" y="1279">Warakapola</text>
  </g>
  <g>
    <circle r="14.142135623730951" fill="white" stroke="black" stroke-width="9.0" cx="2488" cy="2101"/>
    <text fill="black" stroke="none" font-size="45.0" font-family="p22" font-weight="100" text-anchor="start" dominant-baseline="middle" x="2543.0" y="2101">Dehiovita</text>
  </g>
</svg>
