<?xml version="1.0" ?>
<svg xmlns="http://www.w3.org/2000/svg" width="4000" height="4000" padding="500">
  <text x="2000.0" y="125.0" fill="gray" stroke="none" font-size="60" font-family="p22" text-anchor="middle" dominant-baseline="hanging">Sri Lanka</text>
  <text x="2000.0" y="250.0" fill="gray" stroke="none" font-size="120" font-family="p22" text-anchor="middle" dominant-baseline="hanging">Population Optimized Hypothetical Railway Network</text>
  <text x="2000.0" y="3750.0" fill="gray" stroke="none" font-size="60" font-family="p22" text-anchor="middle" dominant-baseline="hanging">music by @bensound ~ visualization by @nuuuwan</text>
  <text x="3000.0" y="1000.0" fill="lightgrey" stroke="none" font-size="180" font-family="p22" text-anchor="start" dominant-baseline="hanging">28km</text>
  <path fill="none" stroke="#dee1ff" stroke-width="20" stroke-opacity="1" d="M 2048.0,1301.0 L 2044.2,1305.75 C 2044.1993333333332,1305.7508333333333 2043.6809109755013,1306.0 2043.6798437881284,1306.0 L 1941.2828427124746,1306.0 C 1941.281899903433,1306.0 1940.8006666666668,1306.1993333333332 1940.8,1306.2 L 1937.0,1310.0"/>
  <path fill="none" stroke="#d7dffe" stroke-width="20" stroke-opacity="1" d="M 2473.0,2601.0 L 2436.06066017178,2637.93933982822 C 2436.057124637874,2637.942875362126 2433.505,2639.0 2433.5,2639.0 L 2243.5,2639.0 C 2243.495,2639.0 2240.942875362126,2640.057124637874 2240.93933982822,2640.06066017178 L 2205.0,2676.0"/>
  <path fill="none" stroke="#d0defe" stroke-width="20" stroke-opacity="1" d="M 2031.0,3023.0 L 2030.05,3024.9 C 2030.0498333333333,3024.9003333333335 2030.0,3025.1114307208786 2030.0,3025.111803398875 L 2030.0,3206.9292893218812 C 2030.0,3206.9295250241416 2029.9501666666667,3207.0498333333335 2029.95,3207.05 L 2029.0,3208.0"/>
  <path fill="none" stroke="#c9deff" stroke-width="20" stroke-opacity="1" d="M 1975.0,3500.0 L 2040.9472254525408,3433.068487600406 C 2040.9507347010324,3433.0649259750717 2042.0,3430.505 2042.0,3430.5 L 2042.0,3386.5 C 2042.0,3386.495 2043.0571246378738,3383.942875362126 2043.0606601717798,3383.93933982822 L 2110.0,3317.0"/>
  <path fill="none" stroke="#c2e0ff" stroke-width="20" stroke-opacity="1" d="M 2029.0,3208.0 L 2067.9746951672796,3246.9746951672796 C 2067.9781128500554,3246.9781128500554 2069.0,3249.445166666667 2069.0,3249.45 L 2069.0,3275.6225 C 2069.0,3275.6270916666667 2069.982703001777,3277.95873463588 2069.9859896338894,3277.9619411062336 L 2110.0,3317.0"/>
  <path fill="none" stroke="#bbe3ff" stroke-width="20" stroke-opacity="1" d="M 2110.0,3317.0 L 2117.6,3309.4 C 2117.6013333333335,3309.3986666666665 2118.563799806866,3309.0 2118.565685424949,3309.0 L 2365.434314575051,3309.0 C 2365.436200193134,3309.0 2366.3986666666665,3308.6013333333335 2366.4,3308.6 L 2374.0,3301.0"/>
  <path fill="none" stroke="#b4e8ff" stroke-width="20" stroke-opacity="1" d="M 2439.0,3159.0 L 2408.0442187541107,3190.9231494098235 C 2408.0407380249303,3190.926738911791 2407.0,3193.495 2407.0,3193.5 L 2407.0,3266.5 C 2407.0,3266.505 2405.942875362126,3269.057124637874 2405.93933982822,3269.06066017178 L 2374.0,3301.0"/>
  <path fill="none" stroke="#adeeff" stroke-width="20" stroke-opacity="1" d="M 2418.0,2900.0 L 2428.45,2909.5 C 2428.4518333333335,2909.5016666666666 2429.0,2910.7408257592415 2429.0,2910.7433034373657 L 2429.0,3147.2566965626343 C 2429.0,3147.2591742407585 2429.4983333333334,3148.5481666666665 2429.5,3148.55 L 2439.0,3159.0"/>
  <path fill="none" stroke="#a6f6ff" stroke-width="20" stroke-opacity="1" d="M 2473.0,2601.0 L 2446.06066017178,2627.93933982822 C 2446.057124637874,2627.942875362126 2445.0,2630.495 2445.0,2630.5 L 2445.0,2870.5 C 2445.0,2870.505 2443.9622673219765,2873.076167221654 2443.9587966441236,2873.079766443131 L 2418.0,2900.0"/>
  <path fill="none" stroke="#9ffeff" stroke-width="20" stroke-opacity="1" d="M 2463.0,2252.0 L 2467.75,2256.75 C 2467.7508333333335,2256.7508333333335 2468.0,2257.3523748792913 2468.0,2257.3535533905933 L 2468.0,2596.6798437881284 C 2468.0,2596.6809109755013 2468.2491666666665,2597.1993333333335 2468.25,2597.2 L 2473.0,2601.0"/>
  <path fill="none" stroke="#98fff4" stroke-width="20" stroke-opacity="1" d="M 2487.0,2094.0 L 2475.6,2104.45 C 2475.598,2104.4518333333335 2475.0,2105.811227893039 2475.0,2105.813941029805 L 2475.0,2239.1514718625763 C 2475.0,2239.154300289701 2474.402,2240.598 2474.4,2240.6 L 2463.0,2252.0"/>
  <path fill="none" stroke="#91ffe9" stroke-width="20" stroke-opacity="1" d="M 2309.0,1354.0 L 2323.25,1367.3 C 2323.2525,1367.3023333333333 2325.022494512346,1368.0 2325.025914226434,1368.0 L 2384.974085773566,1368.0 C 2384.977505487654,1368.0 2386.6976666666665,1368.7475 2386.7,1368.75 L 2400.0,1383.0"/>
  <path fill="none" stroke="#8affdc" stroke-width="20" stroke-opacity="1" d="M 2192.0,1215.0 L 2250.215563179785,1272.2288587191108 C 2250.218177969186,1272.2314291900473 2251.0,1274.0963333333334 2251.0,1274.1 L 2251.0,1293.955 C 2251.0,1293.9584833333333 2251.730142269455,1295.7427309292734 2251.7325842168448,1295.745214979204 L 2309.0,1354.0"/>
  <path fill="none" stroke="#83ffcd" stroke-width="20" stroke-opacity="1" d="M 2306.0,1486.0 L 2307.9,1484.1 C 2307.9003333333335,1484.0996666666667 2308.0,1483.8590500482835 2308.0,1483.8585786437627 L 2308.0,1355.0707106781188 C 2308.0,1355.0704749758584 2308.0498333333335,1354.9501666666667 2308.05,1354.95 L 2309.0,1354.0"/>
  <path fill="none" stroke="#7cfebd" stroke-width="20" stroke-opacity="1" d="M 2156.0,1861.0 L 2173.1,1878.1 C 2173.103,1878.103 2174.0,1880.2685495654487 2174.0,1880.2727922061358 L 2174.0,1970.7272077938642 C 2174.0,1970.7314504345513 2174.897,1972.897 2174.9,1972.9 L 2192.0,1990.0"/>
  <path fill="none" stroke="#75ffac" stroke-width="20" stroke-opacity="1" d="M 2057.0,1780.0 L 2096.3715085331323,1820.3557962464606 C 2096.3736035046886,1820.3579435923057 2097.897,1821.0 2097.9,1821.0 L 2114.145,1821.0 C 2114.14785,1821.0 2115.6099535873095,1821.595076670546 2115.6119935658626,1821.5970668935245 L 2156.0,1861.0"/>
  <path fill="none" stroke="#6eff99" stroke-width="20" stroke-opacity="1" d="M 2188.0,1757.0 L 2172.8,1772.2 C 2172.7973333333334,1772.2026666666666 2172.0,1774.1275996137322 2172.0,1774.1313708498985 L 2172.0,1843.8686291501015 C 2172.0,1843.8724003862678 2171.2026666666666,1845.7973333333334 2171.2,1845.8 L 2156.0,1861.0"/>
  <path fill="none" stroke="#67ff85" stroke-width="20" stroke-opacity="1" d="M 2209.0,1623.0 L 2199.5,1632.5 C 2199.4983333333334,1632.5016666666668 2199.0,1633.7047497585827 2199.0,1633.7071067811864 L 2199.0,1746.256696562634 C 2199.0,1746.2591742407587 2198.4518333333335,1747.4983333333332 2198.45,1747.5 L 2188.0,1757.0"/>
  <path fill="none" stroke="#60ff70" stroke-width="20" stroke-opacity="1" d="M 2048.0,1631.0 L 2042.3,1624.35 C 2042.299,1624.3488333333332 2041.5405593678781,1624.0 2041.5390227771354,1624.0 L 1950.4609772228646,1624.0 C 1950.4594406321219,1624.0 1949.6511666666668,1623.701 1949.65,1623.7 L 1943.0,1618.0"/>
  <path fill="none" stroke="#59ff59" stroke-width="20" stroke-opacity="1" d="M 1943.0,1618.0 L 1940.15,1620.85 C 1940.1495,1620.8505 1940.0,1621.2114249275749 1940.0,1621.212132034356 L 1940.0,1699.75 C 1940.0,1699.7508333333333 1939.8505,1700.1993333333332 1939.85,1700.2 L 1937.0,1704.0"/>
  <path fill="none" stroke="#63fe52" stroke-width="20" stroke-opacity="1" d="M 1943.0,1618.0 L 1924.95,1599.95 C 1924.9468333333334,1599.9468333333334 1922.660975458693,1599.0 1922.6564971157457,1599.0 L 1879.3435028842543,1599.0 C 1879.339024541307,1599.0 1877.0531666666666,1598.0531666666666 1877.05,1598.05 L 1859.0,1580.0"/>
  <path fill="none" stroke="#6fff4b" stroke-width="20" stroke-opacity="1" d="M 1829.0,1456.0 L 1843.25,1470.25 C 1843.2525,1470.2525 1844.0,1472.0571246378738 1844.0,1472.0606601717798 L 1844.0,1563.9393398282202 C 1844.0,1563.9428753621262 1844.7475,1565.7475 1844.75,1565.75 L 1859.0,1580.0"/>
  <path fill="none" stroke="#7cff44" stroke-width="20" stroke-opacity="1" d="M 2355.0,948.0 L 2340.75,962.25 C 2340.7475,962.2525 2340.0,964.0571246378739 2340.0,964.0606601717798 L 2340.0,1042.9393398282202 C 2340.0,1042.9428753621262 2339.2525,1044.7475 2339.25,1044.75 L 2325.0,1059.0"/>
  <path fill="none" stroke="#8aff3d" stroke-width="20" stroke-opacity="1" d="M 2322.0,1918.0 L 2322.95,1918.95 C 2322.9501666666665,1918.9501666666667 2323.0704749758584,1919.0 2323.0707106781188,1919.0 L 2493.888196601125,1919.0 C 2493.8885692791214,1919.0 2494.0498333333335,1919.0996666666667 2494.05,1919.1 L 2495.0,1921.0"/>
  <path fill="none" stroke="#9aff36" stroke-width="20" stroke-opacity="1" d="M 2347.0,1682.0 L 2318.06066017178,1653.0606601717798 C 2318.057124637874,1653.0571246378738 2315.505,1652.0 2315.5,1652.0 L 2240.5,1652.0 C 2240.495,1652.0 2237.9251123778067,1650.9609419652131 2237.9215174359265,1650.9574668547289 L 2209.0,1623.0"/>
  <path fill="none" stroke="#abff2f" stroke-width="20" stroke-opacity="1" d="M 2229.0,851.0 L 2275.9853192395162,898.964180057006 C 2275.988701508718,898.9676327901494 2278.445166666667,900.0 2278.45,900.0 L 2304.6225,900.0 C 2304.6270916666667,900.0 2306.980748849358,900.9607335667181 2306.9840289458443,900.9639467224597 L 2355.0,948.0"/>
  <path fill="none" stroke="#befe28" stroke-width="20" stroke-opacity="1" d="M 2426.0,500.0 L 2410.8,514.25 C 2410.7973333333334,514.2525 2410.0,516.0929303246065 2410.0,516.0965856099731 L 2410.0,629.9393398282202 C 2410.0,629.9428753621261 2409.2525,631.7475 2409.25,631.75 L 2395.0,646.0"/>
  <path fill="none" stroke="#d2fe21" stroke-width="20" stroke-opacity="1" d="M 2495.0,1921.0 L 2491.2,1924.8 C 2491.1993333333335,1924.8006666666668 2491.0,1925.281899903433 2491.0,1925.2828427124746 L 2491.0,2088.6798437881284 C 2491.0,2088.6809109755013 2490.8006666666665,2089.2491666666665 2490.8,2089.25 L 2487.0,2094.0"/>
  <path fill="none" stroke="#e8ff1a" stroke-width="20" stroke-opacity="1" d="M 2497.0,1672.0 L 2496.05,1672.95 C 2496.0498333333335,1672.9501666666667 2496.0,1673.0704749758584 2496.0,1673.0707106781188 L 2496.0,1919.9292893218812 C 2496.0,1919.9295250241416 2495.9501666666665,1920.0498333333333 2495.95,1920.05 L 2495.0,1921.0"/>
  <path fill="none" stroke="#feff13" stroke-width="20" stroke-opacity="1" d="M 2306.0,1486.0 L 2398.8232233047033,1578.8232233047033 C 2398.8238125603543,1578.8238125603543 2399.2491666666665,1579.0 2399.25,1579.0 L 2403.7625,1579.0 C 2403.7632916666666,1579.0 2404.1673780676633,1579.1673780676633 2404.1679378605318,1579.1679378605318 L 2497.0,1672.0"/>
  <path fill="none" stroke="#ffe60c" stroke-width="20" stroke-opacity="1" d="M 2306.0,1486.0 L 2258.071537872063,1532.9503302477754 C 2258.0679660791557,1532.9538291469494 2257.0,1535.495 2257.0,1535.5 L 2257.0,1572.5 C 2257.0,1572.505 2255.9538291469494,1575.067966079156 2255.950330247775,1575.0715378720627 L 2209.0,1623.0"/>
  <path fill="none" stroke="#ffcd05" stroke-width="20" stroke-opacity="1" d="M 2127.0,1499.0 L 2166.93933982822,1538.9393398282202 C 2166.942875362126,1538.9428753621262 2168.0,1541.495 2168.0,1541.5 L 2168.0,1580.5 C 2168.0,1580.505 2169.057124637874,1583.0571246378738 2169.06066017178,1583.0606601717798 L 2209.0,1623.0"/>
  <path fill="none" stroke="#fdb100" stroke-width="20" stroke-opacity="1" d="M 1986.0,1488.0 L 1991.7,1493.7 C 1991.701,1493.701 1992.4228498551495,1494.0 1992.4242640687119,1494.0 L 2121.6464466094067,1494.0 C 2121.6476251207087,1494.0 2122.2491666666665,1494.2491666666667 2122.25,1494.25 L 2127.0,1499.0"/>
  <path fill="none" stroke="#f69300" stroke-width="20" stroke-opacity="1" d="M 1829.0,1456.0 L 1832.8,1452.2 C 1832.8006666666668,1452.1993333333332 1833.281899903433,1452.0 1833.2828427124746,1452.0 L 1916.6798437881284,1452.0 C 1916.6809109755013,1452.0 1917.1993333333332,1451.7508333333333 1917.2,1451.75 L 1921.0,1447.0"/>
  <path fill="none" stroke="#ef7700" stroke-width="20" stroke-opacity="1" d="M 1921.0,1447.0 L 1940.1379310344828,1467.094827586207 C 1940.1408045977012,1467.0978448275862 1942.2458333333334,1468.0 1942.25,1468.0 L 1964.8125,1468.0 C 1964.8164583333332,1468.0 1966.8368903383168,1468.8368903383168 1966.839689302659,1468.839689302659 L 1986.0,1488.0"/>
  <path fill="none" stroke="#e85c00" stroke-width="20" stroke-opacity="1" d="M 1937.0,1310.0 L 1929.4,1317.6 C 1929.3986666666667,1317.6013333333333 1929.0,1318.563799806866 1929.0,1318.5656854249492 L 1929.0,1438.4343145750508 C 1929.0,1438.436200193134 1928.6013333333333,1439.3986666666667 1928.6,1439.4 L 1921.0,1447.0"/>
  <path fill="none" stroke="#e14300" stroke-width="20" stroke-opacity="1" d="M 1908.0,1105.0 L 1922.25,1118.3 C 1922.2525,1118.3023333333333 1923.0,1120.0224945123462 1923.0,1120.0259142264342 L 1923.0,1293.9740857735658 C 1923.0,1293.9775054876538 1923.6976666666667,1295.7475 1923.7,1295.75 L 1937.0,1310.0"/>
  <path fill="none" stroke="#da2b00" stroke-width="20" stroke-opacity="1" d="M 2094.0,975.0 L 2029.0687256765552,1038.947467136726 C 2029.0651632576332,1038.9509755796037 2026.505,1040.0 2026.5,1040.0 L 1974.5,1040.0 C 1974.495,1040.0 1971.9428753621262,1041.0571246378738 1971.9393398282202,1041.0606601717798 L 1908.0,1105.0"/>
  <path fill="none" stroke="#d31500" stroke-width="20" stroke-opacity="1" d="M 2229.0,851.0 L 2167.424264068712,912.575735931288 C 2167.4228498551497,912.5771501448504 2166.402,913.0 2166.4,913.0 L 2155.57,913.0 C 2155.5681,913.0 2154.601571718606,913.4049598925642 2154.600239182548,913.4063142734758 L 2094.0,975.0"/>
  <path fill="none" stroke="#cc0000" stroke-width="20" stroke-opacity="1" d="M 2395.0,646.0 L 2313.054290011897,728.9330076988028 C 2313.0507757118576,728.9365643398069 2312.0,731.495 2312.0,731.5 L 2312.0,766.5 C 2312.0,766.505 2310.942875362126,769.0571246378739 2310.93933982822,769.0606601717798 L 2229.0,851.0"/>
  <g>
    <circle r="14.142135623730951" fill="white" stroke="black" stroke-width="9.0" cx="2426" cy="500"/>
    <text fill="black" stroke="none" font-size="45.0" font-family="p22" font-weight="100" text-anchor="start" dominant-baseline="middle" x="2481.0" y="500">Sammanthranapura</text>
  </g>
  <g>
    <text fill="lightgrey" stroke="none" font-size="30.0" font-family="p22" font-weight="100" text-anchor="start" dominant-baseline="middle" x="2435.0" y="646">Mattakkuliya</text>
  </g>
  <g>
    <circle r="20.0" fill="white" stroke="black" stroke-width="9.0" cx="2229" cy="851"/>
    <text fill="black" stroke="none" font-size="60" font-family="p22" font-weight="100" text-anchor="start" dominant-baseline="middle" x="2299" y="851">Modara</text>
  </g>
  <g>
    <text fill="lightgrey" stroke="none" font-size="30.0" font-family="p22" font-weight="100" text-anchor="start" dominant-baseline="middle" x="2395.0" y="948">Madampitiya</text>
  </g>
  <g>
    <circle r="14.142135623730951" fill="white" stroke="black" stroke-width="9.0" cx="2325" cy="1059"/>
    <text fill="black" stroke="none" font-size="45.0" font-family="p22" font-weight="100" text-anchor="start" dominant-baseline="middle" x="2380.0" y="1059">Mahawatta</text>
  </g>
  <g>
    <text fill="lightgrey" stroke="none" font-size="30.0" font-family="p22" font-weight="100" text-anchor="start" dominant-baseline="middle" x="2134.0" y="975">Aluthmawatha</text>
  </g>
  <g>
    <text fill="lightgrey" stroke="none" font-size="30.0" font-family="p22" font-weight="100" text-anchor="start" dominant-baseline="middle" x="1948.0" y="1105">Lunupokuna</text>
  </g>
  <g>
    <circle r="14.142135623730951" fill="white" stroke="black" stroke-width="9.0" cx="2192" cy="1215"/>
    <text fill="black" stroke="none" font-size="45.0" font-family="p22" font-weight="100" text-anchor="start" dominant-baseline="middle" x="2247.0" y="1215">Bloemendhal</text>
  </g>
  <g>
    <circle r="14.142135623730951" fill="white" stroke="black" stroke-width="9.0" cx="2048" cy="1301"/>
    <text fill="black" stroke="none" font-size="45.0" font-family="p22" font-weight="100" text-anchor="start" dominant-baseline="middle" x="2103.0" y="1301">Kotahena East</text>
  </g>
  <g>
    <circle r="20.0" fill="white" stroke="black" stroke-width="9.0" cx="1937" cy="1310"/>
    <text fill="black" stroke="none" font-size="60" font-family="p22" font-weight="100" text-anchor="start" dominant-baseline="middle" x="2007" y="1310">Kotahena West</text>
  </g>
  <g>
    <text fill="lightgrey" stroke="none" font-size="30.0" font-family="p22" font-weight="100" text-anchor="start" dominant-baseline="middle" x="1869.0" y="1456">Kochchikade North</text>
  </g>
  <g>
    <circle r="20.0" fill="white" stroke="black" stroke-width="9.0" cx="1921" cy="1447"/>
    <text fill="black" stroke="none" font-size="60" font-family="p22" font-weight="100" text-anchor="start" dominant-baseline="middle" x="1991" y="1447">Jinthupitiya</text>
  </g>
  <g>
    <text fill="lightgrey" stroke="none" font-size="30.0" font-family="p22" font-weight="100" text-anchor="start" dominant-baseline="middle" x="2026.0" y="1488">Masangasweediya</text>
  </g>
  <g>
    <text fill="lightgrey" stroke="none" font-size="30.0" font-family="p22" font-weight="100" text-anchor="start" dominant-baseline="middle" x="2167.0" y="1499">New Bazaar</text>
  </g>
  <g>
    <circle r="20.0" fill="white" stroke="black" stroke-width="9.0" cx="2306" cy="1486"/>
    <text fill="black" stroke="none" font-size="60" font-family="p22" font-weight="100" text-anchor="start" dominant-baseline="middle" x="2376" y="1486">Grandpass South</text>
  </g>
  <g>
    <circle r="20.0" fill="white" stroke="black" stroke-width="9.0" cx="2309" cy="1354"/>
    <text fill="black" stroke="none" font-size="60" font-family="p22" font-weight="100" text-anchor="start" dominant-baseline="middle" x="2379" y="1354">Grandpass North</text>
  </g>
  <g>
    <circle r="14.142135623730951" fill="white" stroke="black" stroke-width="9.0" cx="2400" cy="1383"/>
    <text fill="black" stroke="none" font-size="45.0" font-family="p22" font-weight="100" text-anchor="start" dominant-baseline="middle" x="2455.0" y="1383">Nawagampura</text>
  </g>
  <g>
    <circle r="14.142135623730951" fill="white" stroke="black" stroke-width="9.0" cx="2347" cy="1682"/>
    <text fill="black" stroke="none" font-size="45.0" font-family="p22" font-weight="100" text-anchor="start" dominant-baseline="middle" x="2402.0" y="1682">Maligawatta East</text>
  </g>
  <g>
    <circle r="22.360679774997898" fill="white" stroke="black" stroke-width="9.0" cx="2209" cy="1623"/>
    <text fill="black" stroke="none" font-size="60" font-family="p22" font-weight="100" text-anchor="start" dominant-baseline="middle" x="2279" y="1623">Khettarama</text>
  </g>
  <g>
    <circle r="14.142135623730951" fill="white" stroke="black" stroke-width="9.0" cx="2048" cy="1631"/>
    <text fill="black" stroke="none" font-size="45.0" font-family="p22" font-weight="100" text-anchor="start" dominant-baseline="middle" x="2103.0" y="1631">Aluthkade East</text>
  </g>
  <g>
    <circle r="20.0" fill="white" stroke="black" stroke-width="9.0" cx="1943" cy="1618"/>
    <text fill="black" stroke="none" font-size="60" font-family="p22" font-weight="100" text-anchor="start" dominant-baseline="middle" x="2013" y="1618">Aluthkade West</text>
  </g>
  <g>
    <text fill="lightgrey" stroke="none" font-size="30.0" font-family="p22" font-weight="100" text-anchor="start" dominant-baseline="middle" x="1899.0" y="1580">Kochchikade South</text>
  </g>
  <g>
    <circle r="14.142135623730951" fill="white" stroke="black" stroke-width="9.0" cx="1937" cy="1704"/>
    <text fill="black" stroke="none" font-size="45.0" font-family="p22" font-weight="100" text-anchor="start" dominant-baseline="middle" x="1992.0" y="1704">Keselwatta</text>
  </g>
  <g>
    <circle r="14.142135623730951" fill="white" stroke="black" stroke-width="9.0" cx="2057" cy="1780"/>
    <text fill="black" stroke="none" font-size="45.0" font-family="p22" font-weight="100" text-anchor="start" dominant-baseline="middle" x="2112.0" y="1780">Panchikawatta</text>
  </g>
  <g>
    <text fill="lightgrey" stroke="none" font-size="30.0" font-family="p22" font-weight="100" text-anchor="start" dominant-baseline="middle" x="2228.0" y="1757">Maligawatta West</text>
  </g>
  <g>
    <circle r="20.0" fill="white" stroke="black" stroke-width="9.0" cx="2156" cy="1861"/>
    <text fill="black" stroke="none" font-size="60" font-family="p22" font-weight="100" text-anchor="start" dominant-baseline="middle" x="2226" y="1861">Maligakanda</text>
  </g>
  <g>
    <circle r="14.142135623730951" fill="white" stroke="black" stroke-width="9.0" cx="2192" cy="1990"/>
    <text fill="black" stroke="none" font-size="45.0" font-family="p22" font-weight="100" text-anchor="start" dominant-baseline="middle" x="2247.0" y="1990">Kuppiyawatta West</text>
  </g>
  <g>
    <circle r="14.142135623730951" fill="white" stroke="black" stroke-width="9.0" cx="2322" cy="1918"/>
    <text fill="black" stroke="none" font-size="45.0" font-family="p22" font-weight="100" text-anchor="start" dominant-baseline="middle" x="2377.0" y="1918">Kuppiyawatta East</text>
  </g>
  <g>
    <text fill="lightgrey" stroke="none" font-size="30.0" font-family="p22" font-weight="100" text-anchor="start" dominant-baseline="middle" x="2537.0" y="1672">Dematagoda</text>
  </g>
  <g>
    <circle r="20.0" fill="white" stroke="black" stroke-width="9.0" cx="2495" cy="1921"/>
    <text fill="black" stroke="none" font-size="60" font-family="p22" font-weight="100" text-anchor="start" dominant-baseline="middle" x="2565" y="1921">Wanathamulla</text>
  </g>
  <g>
    <text fill="lightgrey" stroke="none" font-size="30.0" font-family="p22" font-weight="100" text-anchor="start" dominant-baseline="middle" x="2527.0" y="2094">Borella North</text>
  </g>
  <g>
    <text fill="lightgrey" stroke="none" font-size="30.0" font-family="p22" font-weight="100" text-anchor="start" dominant-baseline="middle" x="2503.0" y="2252">Borella South</text>
  </g>
  <g>
    <circle r="20.0" fill="white" stroke="black" stroke-width="9.0" cx="2473" cy="2601"/>
    <text fill="black" stroke="none" font-size="60" font-family="p22" font-weight="100" text-anchor="start" dominant-baseline="middle" x="2543" y="2601">Narahenpita</text>
  </g>
  <g>
    <circle r="14.142135623730951" fill="white" stroke="black" stroke-width="9.0" cx="2205" cy="2676"/>
    <text fill="black" stroke="none" font-size="45.0" font-family="p22" font-weight="100" text-anchor="start" dominant-baseline="middle" x="2260.0" y="2676">Thimbirigasyaya</text>
  </g>
  <g>
    <circle r="14.142135623730951" fill="white" stroke="black" stroke-width="9.0" cx="2031" cy="3023"/>
    <text fill="black" stroke="none" font-size="45.0" font-family="p22" font-weight="100" text-anchor="start" dominant-baseline="middle" x="2086.0" y="3023">Havelock Town</text>
  </g>
  <g>
    <text fill="lightgrey" stroke="none" font-size="30.0" font-family="p22" font-weight="100" text-anchor="start" dominant-baseline="middle" x="2458.0" y="2900">Kirula</text>
  </g>
  <g>
    <text fill="lightgrey" stroke="none" font-size="30.0" font-family="p22" font-weight="100" text-anchor="start" dominant-baseline="middle" x="2479.0" y="3159">Kirulapone</text>
  </g>
  <g>
    <text fill="lightgrey" stroke="none" font-size="30.0" font-family="p22" font-weight="100" text-anchor="start" dominant-baseline="middle" x="2069.0" y="3208">Wellawatta North</text>
  </g>
  <g>
    <circle r="14.142135623730951" fill="white" stroke="black" stroke-width="9.0" cx="1975" cy="3500"/>
    <text fill="black" stroke="none" font-size="45.0" font-family="p22" font-weight="100" text-anchor="start" dominant-baseline="middle" x="2030.0" y="3500">Wellawatta South</text>
  </g>
  <g>
    <circle r="20.0" fill="white" stroke="black" stroke-width="9.0" cx="2110" cy="3317"/>
    <text fill="black" stroke="none" font-size="60" font-family="p22" font-weight="100" text-anchor="start" dominant-baseline="middle" x="2180" y="3317">Pamankada West</text>
  </g>
  <g>
    <text fill="lightgrey" stroke="none" font-size="30.0" font-family="p22" font-weight="100" text-anchor="start" dominant-baseline="middle" x="2414.0" y="3301">Pamankada East</text>
  </g>
</svg>
