<?xml version="1.0" ?>
<svg xmlns="http://www.w3.org/2000/svg" width="4000" height="4000" padding="500">
  <text x="2000.0" y="125.0" fill="gray" stroke="none" font-size="60" font-family="p22" text-anchor="middle" dominant-baseline="hanging">Sri Lanka</text>
  <text x="2000.0" y="250.0" fill="gray" stroke="none" font-size="120" font-family="p22" text-anchor="middle" dominant-baseline="hanging">Population Optimized Hypothetical Railway Network</text>
  <text x="2000.0" y="3750.0" fill="gray" stroke="none" font-size="60" font-family="p22" text-anchor="middle" dominant-baseline="hanging">music by @bensound ~ visualization by @nuuuwan</text>
  <text x="3000.0" y="1000.0" fill="lightgrey" stroke="none" font-size="180" font-family="p22" text-anchor="start" dominant-baseline="hanging">1,642km</text>
  <path fill="none" stroke="#dce0ff" stroke-width="20" stroke-opacity="1" d="M 1999.0,2211.0 L 1907.0606601717798,2119.06066017178 C 1907.0571246378738,2119.057124637874 1906.0,2116.505 1906.0,2116.5 L 1906.0,1691.5 C 1906.0,1691.495 1904.9428753621262,1688.9428753621262 1904.9393398282202,1688.9393398282202 L 1814.0,1598.0"/>
  <path fill="none" stroke="#d3defe" stroke-width="20" stroke-opacity="1" d="M 1397.0,2885.0 L 1494.9393398282202,2787.06066017178 C 1494.9428753621262,2787.057124637874 1497.495,2786.0 1497.5,2786.0 L 1569.5,2786.0 C 1569.505,2786.0 1572.0624234079703,2784.9482008261093 1572.0659766635154,2784.94468310312 L 1671.0,2687.0"/>
  <path fill="none" stroke="#cadeff" stroke-width="20" stroke-opacity="1" d="M 1982.0,2797.0 L 2022.9518907141874,2755.073064268808 C 2022.9553844118066,2755.0694873879124 2025.495,2754.0 2025.5,2754.0 L 2220.5,2754.0 C 2220.505,2754.0 2223.057124637874,2752.942875362126 2223.06066017178,2752.93933982822 L 2264.0,2712.0"/>
  <path fill="none" stroke="#c1e1ff" stroke-width="20" stroke-opacity="1" d="M 1837.0,3500.0 L 1847.45,3488.6 C 1847.4518333333333,3488.598 1848.0,3487.188772106961 1848.0,3487.186058970195 L 1848.0,3135.7778174593054 C 1848.0,3135.775224734441 1848.5481666666667,3134.4518333333335 1848.55,3134.45 L 1859.0,3124.0"/>
  <path fill="none" stroke="#b8e5ff" stroke-width="20" stroke-opacity="1" d="M 1581.0,2213.0 L 1696.9393398282202,2097.06066017178 C 1696.9428753621262,2097.057124637874 1698.0,2094.505 1698.0,2094.5 L 1698.0,1716.5 C 1698.0,1716.495 1699.0525779280954,1713.9383481242487 1699.0560982556142,1713.9347974490788 L 1814.0,1598.0"/>
  <path fill="none" stroke="#afecff" stroke-width="20" stroke-opacity="1" d="M 1982.0,2797.0 L 1922.0606601717798,2856.93933982822 C 1922.0571246378738,2856.942875362126 1921.0,2859.495 1921.0,2859.5 L 1921.0,3061.5 C 1921.0,3061.505 1919.9343160721996,3064.048495477352 1919.9307519119059,3064.0520021511893 L 1859.0,3124.0"/>
  <path fill="none" stroke="#a6f6ff" stroke-width="20" stroke-opacity="1" d="M 1981.0,2544.0 L 1910.0680512610977,2613.9467827841954 C 1910.0644910902274,2613.950293508248 1907.505,2615.0 1907.5,2615.0 L 1743.5,2615.0 C 1743.495,2615.0 1740.950293508248,2616.0644910902274 1740.9467827841952,2616.068051261098 L 1671.0,2687.0"/>
  <path fill="none" stroke="#9dfffb" stroke-width="20" stroke-opacity="1" d="M 1456.0,1188.0 L 1465.5,1198.45 C 1465.5016666666668,1198.4518333333333 1466.7408257592413,1199.0 1466.743303437366,1199.0 L 1764.256696562634,1199.0 C 1764.2591742407587,1199.0 1765.5481666666667,1199.4983333333332 1765.55,1199.5 L 1776.0,1209.0"/>
  <path fill="none" stroke="#94ffed" stroke-width="20" stroke-opacity="1" d="M 1776.0,1209.0 L 1808.9393398282202,1176.0606601717798 C 1808.9428753621262,1176.0571246378738 1810.0,1173.505 1810.0,1173.5 L 1810.0,978.5 C 1810.0,978.495 1811.0723326743846,975.9583054020264 1811.0759190712888,975.9548214736051 L 1845.0,943.0"/>
  <path fill="none" stroke="#8bffdd" stroke-width="20" stroke-opacity="1" d="M 1776.0,1209.0 L 1794.05,1228.0 C 1794.0531666666666,1228.0033333333333 1795.0,1230.374713717672 1795.0,1230.3793114224134 L 1795.0,1577.6564971157457 C 1795.0,1577.660975458693 1795.9468333333334,1579.9468333333334 1795.95,1579.95 L 1814.0,1598.0"/>
  <path fill="none" stroke="#81ffca" stroke-width="20" stroke-opacity="1" d="M 1464.0,500.0 L 1549.9332266661531,584.945488428611 C 1549.9367825772658,584.9490034671824 1551.0,587.495 1551.0,587.5 L 1551.0,644.5 C 1551.0,644.505 1552.0509965328176,647.063217422734 1552.054511571389,647.066773333847 L 1637.0,733.0"/>
  <path fill="none" stroke="#78ffb5" stroke-width="20" stroke-opacity="1" d="M 2304.0,1464.0 L 2277.06066017178,1490.9393398282202 C 2277.057124637874,1490.9428753621262 2276.0,1493.495 2276.0,1493.5 L 2276.0,1905.5 C 2276.0,1905.505 2274.942875362126,1908.0571246378738 2274.93933982822,1908.0606601717798 L 2248.0,1935.0"/>
  <path fill="none" stroke="#6ffe9e" stroke-width="20" stroke-opacity="1" d="M 1999.0,2211.0 L 2122.084460289844,2086.922923094915 C 2122.087512088878,2086.9198466845987 2123.0,2084.704333333333 2123.0,2084.7 L 2123.0,2061.235 C 2123.0,2061.230883333333 2123.8703659518496,2059.1296340481504 2123.8732768747655,2059.1267231252345 L 2248.0,1935.0"/>
  <path fill="none" stroke="#66ff84" stroke-width="20" stroke-opacity="1" d="M 1981.0,2544.0 L 1989.55,2535.45 C 1989.5515,2535.4485 1990.0,2534.3657252172757 1990.0,2534.363603896932 L 1990.0,2220.636396103068 C 1990.0,2220.6342747827243 1990.4485,2219.5515 1990.45,2219.55 L 1999.0,2211.0"/>
  <path fill="none" stroke="#5dff68" stroke-width="20" stroke-opacity="1" d="M 1464.0,500.0 L 1637.9393398282202,673.9393398282202 C 1637.9428753621262,673.9428753621261 1639.0,676.495 1639.0,676.5 L 1639.0,1421.5 C 1639.0,1421.505 1640.0571246378738,1424.0571246378738 1640.0606601717798,1424.0606601717798 L 1814.0,1598.0"/>
  <path fill="none" stroke="#5fff54" stroke-width="20" stroke-opacity="1" d="M 1837.0,3500.0 L 1885.9393398282202,3451.06066017178 C 1885.9428753621262,3451.057124637874 1888.495,3450.0 1888.5,3450.0 L 2258.5,3450.0 C 2258.505,3450.0 2261.057124637874,3448.942875362126 2261.06066017178,3448.93933982822 L 2309.0,3401.0"/>
  <path fill="none" stroke="#6eff4b" stroke-width="20" stroke-opacity="1" d="M 2264.0,2712.0 L 2372.1514718625763,2820.1514718625763 C 2372.154300289701,2820.154300289701 2373.0,2822.196 2373.0,2822.2 L 2373.0,2843.86 C 2373.0,2843.8638 2373.803414724784,2845.803414724784 2373.8061017305527,2845.8061017305527 L 2483.0,2955.0"/>
  <path fill="none" stroke="#7fff42" stroke-width="20" stroke-opacity="1" d="M 2637.0,2105.0 L 2662.93933982822,2130.93933982822 C 2662.942875362126,2130.942875362126 2664.0,2133.495 2664.0,2133.5 L 2664.0,2545.5 C 2664.0,2545.505 2665.057124637874,2548.057124637874 2665.06066017178,2548.06066017178 L 2691.0,2574.0"/>
  <path fill="none" stroke="#92fe39" stroke-width="20" stroke-opacity="1" d="M 1396.0,2670.0 L 1403.6,2678.55 C 1403.6013333333333,2678.5515 1404.6000727965097,2679.0 1404.6020797289395,2679.0 L 1661.3979202710605,2679.0 C 1661.3999272034903,2679.0 1662.4485,2679.3986666666665 1662.45,2679.4 L 1671.0,2687.0"/>
  <path fill="none" stroke="#a8ff30" stroke-width="20" stroke-opacity="1" d="M 1981.0,2544.0 L 1981.0,2545.0 L 1981.0,2795.9292893218812 C 1981.0,2795.9295250241416 1981.0498333333333,2796.0498333333335 1981.05,2796.05 L 1982.0,2797.0"/>
  <path fill="none" stroke="#c0ff27" stroke-width="20" stroke-opacity="1" d="M 2691.0,2574.0 L 2623.06066017178,2641.93933982822 C 2623.057124637874,2641.942875362126 2620.505,2643.0 2620.5,2643.0 L 2334.5,2643.0 C 2334.495,2643.0 2331.942875362126,2644.057124637874 2331.93933982822,2644.06066017178 L 2264.0,2712.0"/>
  <path fill="none" stroke="#dafe1e" stroke-width="20" stroke-opacity="1" d="M 1308.0,1952.0 L 1483.9393398282202,1776.0606601717798 C 1483.9428753621262,1776.0571246378738 1486.495,1775.0 1486.5,1775.0 L 1635.5,1775.0 C 1635.505,1775.0 1638.0571246378738,1773.9428753621262 1638.0606601717798,1773.9393398282202 L 1814.0,1598.0"/>
  <path fill="none" stroke="#f7ff15" stroke-width="20" stroke-opacity="1" d="M 1981.0,2544.0 L 2063.93933982822,2626.93933982822 C 2063.942875362126,2626.942875362126 2066.495,2628.0 2066.5,2628.0 L 2178.5,2628.0 C 2178.505,2628.0 2181.057124637874,2629.057124637874 2181.06066017178,2629.06066017178 L 2264.0,2712.0"/>
  <path fill="none" stroke="#ffe70c" stroke-width="20" stroke-opacity="1" d="M 1981.0,2544.0 L 1816.0606601717798,2379.06066017178 C 1816.0571246378738,2379.057124637874 1813.505,2378.0 1813.5,2378.0 L 1747.5,2378.0 C 1747.495,2378.0 1744.9428753621262,2376.942875362126 1744.9393398282202,2376.93933982822 L 1581.0,2213.0"/>
  <path fill="none" stroke="#fec603" stroke-width="20" stroke-opacity="1" d="M 1488.0,3132.0 L 1491.8,3128.2 C 1491.8006666666668,3128.1993333333335 1492.281899903433,3128.0 1492.2828427124746,3128.0 L 1854.7171572875254,3128.0 C 1854.718100096567,3128.0 1855.1993333333332,3127.8006666666665 1855.2,3127.8 L 1859.0,3124.0"/>
  <path fill="none" stroke="#f9a000" stroke-width="20" stroke-opacity="1" d="M 1581.0,2213.0 L 1450.425886475598,2083.4226354337993 C 1450.4244668540125,2083.42122664902 1449.402,2083.0 1449.4,2083.0 L 1438.57,2083.0 C 1438.5681,2083.0 1437.599834683431,2082.5967564886882 1437.5984963378905,2082.595407848182 L 1308.0,1952.0"/>
  <path fill="none" stroke="#f07b00" stroke-width="20" stroke-opacity="1" d="M 1594.0,3432.0 L 1626.9393398282202,3464.93933982822 C 1626.9428753621262,3464.942875362126 1629.495,3466.0 1629.5,3466.0 L 1801.5,3466.0 C 1801.505,3466.0 1804.0571246378738,3467.057124637874 1804.0606601717798,3467.06066017178 L 1837.0,3500.0"/>
  <path fill="none" stroke="#e75900" stroke-width="20" stroke-opacity="1" d="M 1488.0,3132.0 L 1539.9393398282202,3183.93933982822 C 1539.9428753621262,3183.942875362126 1541.0,3186.495 1541.0,3186.5 L 1541.0,3377.5 C 1541.0,3377.505 1542.0571246378738,3380.057124637874 1542.0606601717798,3380.06066017178 L 1594.0,3432.0"/>
  <path fill="none" stroke="#de3900" stroke-width="20" stroke-opacity="1" d="M 1397.0,2885.0 L 1441.9393398282202,2929.93933982822 C 1441.9428753621262,2929.942875362126 1443.0,2932.495 1443.0,2932.5 L 1443.0,3085.5 C 1443.0,3085.505 1444.0571246378738,3088.057124637874 1444.0606601717798,3088.06066017178 L 1488.0,3132.0"/>
  <path fill="none" stroke="#d51b00" stroke-width="20" stroke-opacity="1" d="M 1396.0,2670.0 L 1487.9336221088124,2579.05491146225 C 1487.937176701783,2579.0513950907093 1489.0,2576.505 1489.0,2576.5 L 1489.0,2306.5 C 1489.0,2306.495 1490.0571246378738,2303.942875362126 1490.0606601717798,2303.93933982822 L 1581.0,2213.0"/>
  <path fill="none" stroke="#cc0000" stroke-width="20" stroke-opacity="1" d="M 1397.0,2885.0 L 1397.0,2671.0707106781188 C 1397.0,2671.0704749758584 1396.9501666666667,2670.9501666666665 1396.95,2670.95 L 1396.0,2670.0"/>
  <g>
    <circle r="20.0" fill="white" stroke="black" stroke-width="9.0" cx="1397" cy="2885"/>
    <text fill="black" stroke="none" font-size="60" font-family="p22" font-weight="100" text-anchor="start" dominant-baseline="middle" x="1467" y="2885">Colombo</text>
  </g>
  <g>
    <circle r="20.0" fill="white" stroke="black" stroke-width="9.0" cx="1396" cy="2670"/>
    <text fill="black" stroke="none" font-size="60" font-family="p22" font-weight="100" text-anchor="start" dominant-baseline="middle" x="1466" y="2670">Gampaha</text>
  </g>
  <g>
    <circle r="20.0" fill="white" stroke="black" stroke-width="9.0" cx="1488" cy="3132"/>
    <text fill="black" stroke="none" font-size="60" font-family="p22" font-weight="100" text-anchor="start" dominant-baseline="middle" x="1558" y="3132">Kalutara</text>
  </g>
  <g>
    <circle r="24.49489742783178" fill="white" stroke="black" stroke-width="9.0" cx="1981" cy="2544"/>
    <text fill="black" stroke="none" font-size="60" font-family="p22" font-weight="100" text-anchor="start" dominant-baseline="middle" x="2051" y="2544">Kandy</text>
  </g>
  <g>
    <circle r="20.0" fill="white" stroke="black" stroke-width="9.0" cx="1999" cy="2211"/>
    <text fill="black" stroke="none" font-size="60" font-family="p22" font-weight="100" text-anchor="start" dominant-baseline="middle" x="2069" y="2211">Matale</text>
  </g>
  <g>
    <circle r="20.0" fill="white" stroke="black" stroke-width="9.0" cx="1982" cy="2797"/>
    <text fill="black" stroke="none" font-size="60" font-family="p22" font-weight="100" text-anchor="start" dominant-baseline="middle" x="2052" y="2797">Nuwara Eliya</text>
  </g>
  <g>
    <text fill="lightgrey" stroke="none" font-size="30.0" font-family="p22" font-weight="100" text-anchor="start" dominant-baseline="middle" x="1634.0" y="3432">Galle</text>
  </g>
  <g>
    <circle r="20.0" fill="white" stroke="black" stroke-width="9.0" cx="1837" cy="3500"/>
    <text fill="black" stroke="none" font-size="60" font-family="p22" font-weight="100" text-anchor="start" dominant-baseline="middle" x="1907" y="3500">Matara</text>
  </g>
  <g>
    <circle r="14.142135623730951" fill="white" stroke="black" stroke-width="9.0" cx="2309" cy="3401"/>
    <text fill="black" stroke="none" font-size="45.0" font-family="p22" font-weight="100" text-anchor="start" dominant-baseline="middle" x="2364.0" y="3401">Hambantota</text>
  </g>
  <g>
    <text fill="lightgrey" stroke="none" font-size="30.0" font-family="p22" font-weight="100" text-anchor="start" dominant-baseline="middle" x="1504.0" y="500">Jaffna</text>
  </g>
  <g>
    <circle r="14.142135623730951" fill="white" stroke="black" stroke-width="9.0" cx="1456" cy="1188"/>
    <text fill="black" stroke="none" font-size="45.0" font-family="p22" font-weight="100" text-anchor="start" dominant-baseline="middle" x="1511.0" y="1188">Mannar</text>
  </g>
  <g>
    <circle r="20.0" fill="white" stroke="black" stroke-width="9.0" cx="1776" cy="1209"/>
    <text fill="black" stroke="none" font-size="60" font-family="p22" font-weight="100" text-anchor="start" dominant-baseline="middle" x="1846" y="1209">Vavuniya</text>
  </g>
  <g>
    <circle r="14.142135623730951" fill="white" stroke="black" stroke-width="9.0" cx="1845" cy="943"/>
    <text fill="black" stroke="none" font-size="45.0" font-family="p22" font-weight="100" text-anchor="start" dominant-baseline="middle" x="1900.0" y="943">Mullaitivu</text>
  </g>
  <g>
    <circle r="14.142135623730951" fill="white" stroke="black" stroke-width="9.0" cx="1637" cy="733"/>
    <text fill="black" stroke="none" font-size="45.0" font-family="p22" font-weight="100" text-anchor="start" dominant-baseline="middle" x="1692.0" y="733">Kilinochchi</text>
  </g>
  <g>
    <circle r="14.142135623730951" fill="white" stroke="black" stroke-width="9.0" cx="2637" cy="2105"/>
    <text fill="black" stroke="none" font-size="45.0" font-family="p22" font-weight="100" text-anchor="start" dominant-baseline="middle" x="2692.0" y="2105">Batticaloa</text>
  </g>
  <g>
    <text fill="lightgrey" stroke="none" font-size="30.0" font-family="p22" font-weight="100" text-anchor="start" dominant-baseline="middle" x="2731.0" y="2574">Ampara</text>
  </g>
  <g>
    <circle r="14.142135623730951" fill="white" stroke="black" stroke-width="9.0" cx="2304" cy="1464"/>
    <text fill="black" stroke="none" font-size="45.0" font-family="p22" font-weight="100" text-anchor="start" dominant-baseline="middle" x="2359.0" y="1464">Trincomalee</text>
  </g>
  <g>
    <circle r="22.360679774997898" fill="white" stroke="black" stroke-width="9.0" cx="1581" cy="2213"/>
    <text fill="black" stroke="none" font-size="60" font-family="p22" font-weight="100" text-anchor="start" dominant-baseline="middle" x="1651" y="2213">Kurunegala</text>
  </g>
  <g>
    <text fill="lightgrey" stroke="none" font-size="30.0" font-family="p22" font-weight="100" text-anchor="start" dominant-baseline="middle" x="1348.0" y="1952">Puttalam</text>
  </g>
  <g>
    <circle r="24.49489742783178" fill="white" stroke="black" stroke-width="9.0" cx="1814" cy="1598"/>
    <text fill="black" stroke="none" font-size="60" font-family="p22" font-weight="100" text-anchor="start" dominant-baseline="middle" x="1884" y="1598">Anuradhapura</text>
  </g>
  <g>
    <text fill="lightgrey" stroke="none" font-size="30.0" font-family="p22" font-weight="100" text-anchor="start" dominant-baseline="middle" x="2288.0" y="1935">Polonnaruwa</text>
  </g>
  <g>
    <circle r="22.360679774997898" fill="white" stroke="black" stroke-width="9.0" cx="2264" cy="2712"/>
    <text fill="black" stroke="none" font-size="60" font-family="p22" font-weight="100" text-anchor="start" dominant-baseline="middle" x="2334" y="2712">Badulla</text>
  </g>
  <g>
    <circle r="14.142135623730951" fill="white" stroke="black" stroke-width="9.0" cx="2483" cy="2955"/>
    <text fill="black" stroke="none" font-size="45.0" font-family="p22" font-weight="100" text-anchor="start" dominant-baseline="middle" x="2538.0" y="2955">Moneragala</text>
  </g>
  <g>
    <circle r="20.0" fill="white" stroke="black" stroke-width="9.0" cx="1859" cy="3124"/>
    <text fill="black" stroke="none" font-size="60" font-family="p22" font-weight="100" text-anchor="start" dominant-baseline="middle" x="1929" y="3124">Ratnapura</text>
  </g>
  <g>
    <circle r="20.0" fill="white" stroke="black" stroke-width="9.0" cx="1671" cy="2687"/>
    <text fill="black" stroke="none" font-size="60" font-family="p22" font-weight="100" text-anchor="start" dominant-baseline="middle" x="1741" y="2687">Kegalle</text>
  </g>
</svg>
