<?xml version="1.0" ?>
<svg xmlns="http://www.w3.org/2000/svg" width="4000" height="4000" padding="500">
  <text x="2000.0" y="125.0" fill="gray" stroke="none" font-size="60" font-family="p22" text-anchor="middle" dominant-baseline="hanging">Sri Lanka</text>
  <text x="2000.0" y="250.0" fill="gray" stroke="none" font-size="120" font-family="p22" text-anchor="middle" dominant-baseline="hanging">Population Optimized Hypothetical Railway Network</text>
  <text x="2000.0" y="3750.0" fill="gray" stroke="none" font-size="60" font-family="p22" text-anchor="middle" dominant-baseline="hanging">music by @bensound ~ visualization by @nuuuwan</text>
  <text x="3000.0" y="1000.0" fill="lightgrey" stroke="none" font-size="180" font-family="p22" text-anchor="start" dominant-baseline="hanging">201km</text>
  <path fill="none" stroke="#adeeff" stroke-width="20" stroke-opacity="1" d="M 1396.0,2670.0 L 1487.9336221088124,2579.05491146225 C 1487.937176701783,2579.0513950907093 1489.0,2576.505 1489.0,2576.5 L 1489.0,2306.5 C 1489.0,2306.495 1490.0571246378738,2303.942875362126 1490.0606601717798,2303.93933982822 L 1581.0,2213.0"/>
  <path fill="none" stroke="#75ffac" stroke-width="20" stroke-opacity="1" d="M 1594.0,3432.0 L 1626.9393398282202,3464.93933982822 C 1626.9428753621262,3464.942875362126 1629.495,3466.0 1629.5,3466.0 L 1801.5,3466.0 C 1801.505,3466.0 1804.0571246378738,3467.057124637874 1804.0606601717798,3467.06066017178 L 1837.0,3500.0"/>
  <path fill="none" stroke="#8aff3d" stroke-width="20" stroke-opacity="1" d="M 1488.0,3132.0 L 1539.9393398282202,3183.93933982822 C 1539.9428753621262,3183.942875362126 1541.0,3186.495 1541.0,3186.5 L 1541.0,3377.5 C 1541.0,3377.505 1542.0571246378738,3380.057124637874 1542.0606601717798,3380.06066017178 L 1594.0,3432.0"/>
  <path fill="none" stroke="#ffcd05" stroke-width="20" stroke-opacity="1" d="M 1397.0,2885.0 L 1441.9393398282202,2929.93933982822 C 1441.9428753621262,2929.942875362126 1443.0,2932.495 1443.0,2932.5 L 1443.0,3085.5 C 1443.0,3085.505 1444.0571246378738,3088.057124637874 1444.0606601717798,3088.06066017178 L 1488.0,3132.0"/>
  <path fill="none" stroke="#cc0000" stroke-width="20" stroke-opacity="1" d="M 1397.0,2885.0 L 1397.0,2671.0707106781188 C 1397.0,2671.0704749758584 1396.9501666666667,2670.9501666666665 1396.95,2670.95 L 1396.0,2670.0"/>
  <g>
    <text fill="lightgrey" stroke="none" font-size="30.0" font-family="p22" font-weight="100" text-anchor="start" dominant-baseline="middle" x="1437.0" y="2885">Colombo</text>
  </g>
  <g>
    <text fill="lightgrey" stroke="none" font-size="30.0" font-family="p22" font-weight="100" text-anchor="start" dominant-baseline="middle" x="1436.0" y="2670">Gampaha</text>
  </g>
  <g>
    <text fill="lightgrey" stroke="none" font-size="30.0" font-family="p22" font-weight="100" text-anchor="start" dominant-baseline="middle" x="1528.0" y="3132">Kalutara</text>
  </g>
  <g>
    <text fill="lightgrey" stroke="none" font-size="30.0" font-family="p22" font-weight="100" text-anchor="start" dominant-baseline="middle" x="1634.0" y="3432">Galle</text>
  </g>
  <g>
    <circle r="14.142135623730951" fill="white" stroke="black" stroke-width="9.0" cx="1837" cy="3500"/>
    <text fill="black" stroke="none" font-size="45.0" font-family="p22" font-weight="100" text-anchor="start" dominant-baseline="middle" x="1892.0" y="3500">Matara</text>
  </g>
  <g>
    <circle r="14.142135623730951" fill="white" stroke="black" stroke-width="9.0" cx="1581" cy="2213"/>
    <text fill="black" stroke="none" font-size="45.0" font-family="p22" font-weight="100" text-anchor="start" dominant-baseline="middle" x="1636.0" y="2213">Kurunegala</text>
  </g>
</svg>
