<?xml version="1.0" ?>
<svg xmlns="http://www.w3.org/2000/svg" width="4000" height="4000" padding="500">
  <text x="2000.0" y="125.0" fill="gray" stroke="none" font-size="60" font-family="p22" text-anchor="middle" dominant-baseline="hanging">Sri Lanka</text>
  <text x="2000.0" y="250.0" fill="gray" stroke="none" font-size="120" font-family="p22" text-anchor="middle" dominant-baseline="hanging">Population Optimized Hypothetical Railway Network</text>
  <text x="2000.0" y="3750.0" fill="gray" stroke="none" font-size="60" font-family="p22" text-anchor="middle" dominant-baseline="hanging">music by @bensound ~ visualization by @nuuuwan</text>
  <text x="3000.0" y="1000.0" fill="lightgrey" stroke="none" font-size="180" font-family="p22" text-anchor="start" dominant-baseline="hanging">488km</text>
  <path fill="none" stroke="#c9deff" stroke-width="20" stroke-opacity="1" d="M 1280.0,1892.0 L 1465.9365000572518,1707.057812777279 C 1465.940045057061,1707.054286734688 1468.495,1706.0 1468.5,1706.0 L 1618.5,1706.0 C 1618.505,1706.0 1621.0571246378738,1704.9428753621262 1621.0606601717798,1704.9393398282202 L 1806.0,1520.0"/>
  <path fill="none" stroke="#adeeff" stroke-width="20" stroke-opacity="1" d="M 1979.0,2505.0 L 2064.93933982822,2590.93933982822 C 2064.942875362126,2590.942875362126 2067.495,2592.0 2067.5,2592.0 L 2185.5,2592.0 C 2185.505,2592.0 2188.051066765524,2593.0631479927138 2188.054582038987,2593.066703671619 L 2274.0,2680.0"/>
  <path fill="none" stroke="#91ffe9" stroke-width="20" stroke-opacity="1" d="M 1979.0,2505.0 L 1808.0606601717798,2334.06066017178 C 1808.0571246378738,2334.057124637874 1805.505,2333.0 1805.5,2333.0 L 1736.5,2333.0 C 1736.495,2333.0 1733.9428753621262,2331.942875362126 1733.9393398282202,2331.93933982822 L 1562.0,2160.0"/>
  <path fill="none" stroke="#75ffac" stroke-width="20" stroke-opacity="1" d="M 1467.0,3118.0 L 1470.8,3113.25 C 1470.8006666666668,3113.2491666666665 1471.3190890244987,3113.0 1471.3201562118716,3113.0 L 1847.6798437881284,3113.0 C 1847.6809109755013,3113.0 1848.2491666666667,3112.8006666666665 1848.25,3112.8 L 1853.0,3109.0"/>
  <path fill="none" stroke="#59ff59" stroke-width="20" stroke-opacity="1" d="M 1562.0,2160.0 L 1429.528340125278,2026.532312607423 C 1429.526578991527,2026.5305382320648 1428.2525,2026.0 1428.25,2026.0 L 1414.7125,2026.0 C 1414.710125,2026.0 1413.4978657970098,2025.4978657970098 1413.4961864184045,2025.4961864184045 L 1280.0,1892.0"/>
  <path fill="none" stroke="#8aff3d" stroke-width="20" stroke-opacity="1" d="M 1576.0,3429.0 L 1609.9393398282202,3462.93933982822 C 1609.9428753621262,3462.942875362126 1612.495,3464.0 1612.5,3464.0 L 1792.5,3464.0 C 1792.505,3464.0 1795.0571246378738,3465.057124637874 1795.0606601717798,3465.06066017178 L 1830.0,3500.0"/>
  <path fill="none" stroke="#d2fe21" stroke-width="20" stroke-opacity="1" d="M 1467.0,3118.0 L 1519.9393398282202,3170.93933982822 C 1519.9428753621262,3170.942875362126 1521.0,3173.495 1521.0,3173.5 L 1521.0,3372.5 C 1521.0,3372.505 1522.0571246378738,3375.057124637874 1522.0606601717798,3375.06066017178 L 1576.0,3429.0"/>
  <path fill="none" stroke="#ffcd05" stroke-width="20" stroke-opacity="1" d="M 1372.0,2860.0 L 1418.9282343602597,2905.950562811088 C 1418.9318069123922,2905.9540609350506 1420.0,2908.495 1420.0,2908.5 L 1420.0,3069.5 C 1420.0,3069.505 1421.0571246378738,3072.057124637874 1421.0606601717798,3072.06066017178 L 1467.0,3118.0"/>
  <path fill="none" stroke="#e85c00" stroke-width="20" stroke-opacity="1" d="M 1370.0,2637.0 L 1464.9393398282202,2542.06066017178 C 1464.9428753621262,2542.057124637874 1466.0,2539.505 1466.0,2539.5 L 1466.0,2257.5 C 1466.0,2257.495 1467.0571246378738,2254.942875362126 1467.0606601717798,2254.93933982822 L 1562.0,2160.0"/>
  <path fill="none" stroke="#cc0000" stroke-width="20" stroke-opacity="1" d="M 1372.0,2860.0 L 1371.05,2859.05 C 1371.0498333333333,2859.0498333333335 1371.0,2858.9295250241416 1371.0,2858.9292893218812 L 1371.0,2638.0707106781188 C 1371.0,2638.0704749758584 1370.9501666666667,2637.9501666666665 1370.95,2637.95 L 1370.0,2637.0"/>
  <g>
    <text fill="lightgrey" stroke="none" font-size="30.0" font-family="p22" font-weight="100" text-anchor="start" dominant-baseline="middle" x="1412.0" y="2860">Colombo</text>
  </g>
  <g>
    <text fill="lightgrey" stroke="none" font-size="30.0" font-family="p22" font-weight="100" text-anchor="start" dominant-baseline="middle" x="1410.0" y="2637">Gampaha</text>
  </g>
  <g>
    <circle r="20.0" fill="white" stroke="black" stroke-width="9.0" cx="1467" cy="3118"/>
    <text fill="black" stroke="none" font-size="60" font-family="p22" font-weight="100" text-anchor="start" dominant-baseline="middle" x="1537" y="3118">Kalutara</text>
  </g>
  <g>
    <text fill="lightgrey" stroke="none" font-size="30.0" font-family="p22" font-weight="100" text-anchor="start" dominant-baseline="middle" x="2019.0" y="2505">Kandy</text>
  </g>
  <g>
    <text fill="lightgrey" stroke="none" font-size="30.0" font-family="p22" font-weight="100" text-anchor="start" dominant-baseline="middle" x="1616.0" y="3429">Galle</text>
  </g>
  <g>
    <circle r="14.142135623730951" fill="white" stroke="black" stroke-width="9.0" cx="1830" cy="3500"/>
    <text fill="black" stroke="none" font-size="45.0" font-family="p22" font-weight="100" text-anchor="start" dominant-baseline="middle" x="1885.0" y="3500">Matara</text>
  </g>
  <g>
    <circle r="20.0" fill="white" stroke="black" stroke-width="9.0" cx="1562" cy="2160"/>
    <text fill="black" stroke="none" font-size="60" font-family="p22" font-weight="100" text-anchor="start" dominant-baseline="middle" x="1632" y="2160">Kurunegala</text>
  </g>
  <g>
    <text fill="lightgrey" stroke="none" font-size="30.0" font-family="p22" font-weight="100" text-anchor="start" dominant-baseline="middle" x="1320.0" y="1892">Puttalam</text>
  </g>
  <g>
    <circle r="14.142135623730951" fill="white" stroke="black" stroke-width="9.0" cx="1806" cy="1520"/>
    <text fill="black" stroke="none" font-size="45.0" font-family="p22" font-weight="100" text-anchor="start" dominant-baseline="middle" x="1861.0" y="1520">Anuradhapura</text>
  </g>
  <g>
    <circle r="14.142135623730951" fill="white" stroke="black" stroke-width="9.0" cx="2274" cy="2680"/>
    <text fill="black" stroke="none" font-size="45.0" font-family="p22" font-weight="100" text-anchor="start" dominant-baseline="middle" x="2329.0" y="2680">Badulla</text>
  </g>
  <g>
    <circle r="14.142135623730951" fill="white" stroke="black" stroke-width="9.0" cx="1853" cy="3109"/>
    <text fill="black" stroke="none" font-size="45.0" font-family="p22" font-weight="100" text-anchor="start" dominant-baseline="middle" x="1908.0" y="3109">Ratnapura</text>
  </g>
</svg>
