<?xml version="1.0" ?>
<svg xmlns="http://www.w3.org/2000/svg" width="4000" height="4000" padding="500">
  <text x="2000.0" y="125.0" fill="gray" stroke="none" font-size="60" font-family="p22" text-anchor="middle" dominant-baseline="hanging">Sri Lanka</text>
  <text x="2000.0" y="250.0" fill="gray" stroke="none" font-size="120" font-family="p22" text-anchor="middle" dominant-baseline="hanging">Population Optimized Hypothetical Railway Network</text>
  <text x="2000.0" y="3750.0" fill="gray" stroke="none" font-size="60" font-family="p22" text-anchor="middle" dominant-baseline="hanging">music by @bensound ~ visualization by @nuuuwan</text>
  <text x="3000.0" y="1000.0" fill="lightgrey" stroke="none" font-size="180" font-family="p22" text-anchor="start" dominant-baseline="hanging">337km</text>
  <text x="3000.0" y="1120.0" fill="lightgrey" stroke="none" font-size="90.0" font-family="p22" text-anchor="start" dominant-baseline="hanging">+ Ja-Ela to Wattala</text>
  <path fill="none" stroke="#c2cbff" stroke-width="40" stroke-opacity="1" d="M 1511.0,1068.0 L 1416.0606601717798,1162.9393398282202 C 1416.0571246378738,1162.9428753621262 1415.0,1165.495 1415.0,1165.5 L 1415.0,1218.5 C 1415.0,1218.505 1413.9428753621262,1221.0571246378738 1413.9393398282202,1221.0606601717798 L 1319.0,1316.0"/>
  <path fill="none" stroke="#b8ceff" stroke-width="40" stroke-opacity="1" d="M 1988.0,500.0 L 1655.0606601717798,832.9393398282202 C 1655.0571246378738,832.9428753621261 1654.0,835.495 1654.0,835.5 L 1654.0,979.5 C 1654.0,979.505 1652.9428753621262,982.0571246378739 1652.9393398282202,982.0606601717798 L 1319.0,1316.0"/>
  <path fill="none" stroke="#aed3ff" stroke-width="40" stroke-opacity="1" d="M 2243.0,2697.0 L 2223.05,2716.95 C 2223.0465,2716.9535 2220.5200255069767,2718.0 2220.5150757595084,2718.0 L 1326.4849242404916,2718.0 C 1326.4799744930235,2718.0 1323.9535,2719.0465 1323.95,2719.05 L 1304.0,2739.0"/>
  <path fill="none" stroke="#a4dcff" stroke-width="40" stroke-opacity="1" d="M 1986.0,2216.0 L 1881.0656750290768,2112.0556214910666 C 1881.06212277898,2112.0521027527634 1878.505,2111.0 1878.5,2111.0 L 1664.5,2111.0 C 1664.495,2111.0 1661.9428753621262,2109.942875362126 1661.9393398282202,2109.93933982822 L 1558.0,2006.0"/>
  <path fill="none" stroke="#9ae7ff" stroke-width="40" stroke-opacity="1" d="M 1558.0,2006.0 L 1475.0606601717798,2088.93933982822 C 1475.0571246378738,2088.942875362126 1474.0,2091.495 1474.0,2091.5 L 1474.0,2956.5 C 1474.0,2956.505 1472.9491489339455,2959.0633611977933 1472.9456343818852,2959.066917589759 L 1390.0,3043.0"/>
  <path fill="none" stroke="#91f6fe" stroke-width="40" stroke-opacity="1" d="M 1558.0,2006.0 L 1501.0606601717798,2062.93933982822 C 1501.0571246378738,2062.942875362126 1500.0,2065.495 1500.0,2065.5 L 1500.0,2242.5 C 1500.0,2242.505 1498.9428753621262,2245.057124637874 1498.9393398282202,2245.06066017178 L 1442.0,2302.0"/>
  <path fill="none" stroke="#87fef5" stroke-width="40" stroke-opacity="1" d="M 1188.0,1933.0 L 1215.920897809074,1959.9581082294505 C 1215.9244948163769,1959.961581202019 1217.0,1962.495 1217.0,1962.5 L 1217.0,2210.5 C 1217.0,2210.505 1218.0755051836231,2213.0384187979807 1218.079102190926,2213.0418917705492 L 1246.0,2240.0"/>
  <path fill="none" stroke="#7dffe1" stroke-width="40" stroke-opacity="1" d="M 2088.0,1073.0 L 2162.9323390010068,1146.9463871720461 C 2162.9358978710034,1146.949899214806 2164.0,1149.495 2164.0,1149.5 L 2164.0,1277.5 C 2164.0,1277.505 2165.057124637874,1280.0571246378738 2165.06066017178,1280.0606601717798 L 2240.0,1355.0"/>
  <path fill="none" stroke="#73ffc9" stroke-width="40" stroke-opacity="1" d="M 1986.0,2216.0 L 1944.0606601717798,2257.93933982822 C 1944.0571246378738,2257.942875362126 1941.505,2259.0 1941.5,2259.0 L 1486.5,2259.0 C 1486.495,2259.0 1483.9428753621262,2260.057124637874 1483.9393398282202,2260.06066017178 L 1442.0,2302.0"/>
  <path fill="none" stroke="#69ffae" stroke-width="40" stroke-opacity="1" d="M 1558.0,2006.0 L 1581.9393398282202,2029.9393398282202 C 1581.9428753621262,2029.9428753621262 1583.0,2032.495 1583.0,2032.5 L 1583.0,3472.5 C 1583.0,3472.505 1584.0571246378738,3475.057124637874 1584.0606601717798,3475.06066017178 L 1609.0,3500.0"/>
  <path fill="none" stroke="#60ff91" stroke-width="40" stroke-opacity="1" d="M 1558.0,2006.0 L 1442.0606601717798,2121.93933982822 C 1442.0571246378738,2121.942875362126 1439.505,2123.0 1439.5,2123.0 L 1364.5,2123.0 C 1364.495,2123.0 1361.9428753621262,2124.057124637874 1361.9393398282202,2124.06066017178 L 1246.0,2240.0"/>
  <path fill="none" stroke="#56ff70" stroke-width="40" stroke-opacity="1" d="M 1284.0,2525.0 L 1293.5,2534.5 C 1293.5016666666668,2534.5016666666666 1294.0,2535.7047497585827 1294.0,2535.7071067811867 L 1294.0,2728.2928932188133 C 1294.0,2728.2952502414173 1294.4983333333332,2729.4983333333334 1294.5,2729.5 L 1304.0,2739.0"/>
  <path fill="none" stroke="#4cfe4c" stroke-width="40" stroke-opacity="1" d="M 1644.0,2901.0 L 1574.0606601717798,2970.93933982822 C 1574.0571246378738,2970.942875362126 1571.505,2972.0 1571.5,2972.0 L 1462.5,2972.0 C 1462.495,2972.0 1459.9428753621262,2973.057124637874 1459.9393398282202,2973.06066017178 L 1390.0,3043.0"/>
  <path fill="none" stroke="#5fff42" stroke-width="40" stroke-opacity="1" d="M 1284.0,2525.0 L 1634.9393398282202,2174.06066017178 C 1634.9428753621262,2174.057124637874 1636.0,2171.505 1636.0,2171.5 L 1636.0,853.5 C 1636.0,853.495 1637.0571246378738,850.9428753621261 1637.0606601717798,850.9393398282202 L 1988.0,500.0"/>
  <path fill="none" stroke="#75ff38" stroke-width="40" stroke-opacity="1" d="M 1246.0,2240.0 L 1281.9393398282202,2204.06066017178 C 1281.9428753621262,2204.057124637874 1283.0,2201.505 1283.0,2201.5 L 1283.0,1353.5 C 1283.0,1353.495 1284.0571246378738,1350.9428753621262 1284.0606601717798,1350.9393398282202 L 1319.0,1316.0"/>
  <path fill="none" stroke="#8fff2f" stroke-width="40" stroke-opacity="1" d="M 2243.0,2697.0 L 2242.05,2696.05 C 2242.0498333333335,2696.0498333333335 2242.0,2695.9295250241416 2242.0,2695.9292893218812 L 2242.0,1357.1414213562373 C 2242.0,1357.1409499517165 2241.9003333333335,1356.9003333333333 2241.9,1356.9 L 2240.0,1355.0"/>
  <path fill="none" stroke="#abff25" stroke-width="40" stroke-opacity="1" d="M 1558.0,2006.0 L 1475.0606601717798,2088.93933982822 C 1475.0571246378738,2088.942875362126 1474.0,2091.495 1474.0,2091.5 L 1474.0,2956.5 C 1474.0,2956.505 1472.9491489339455,2959.0633611977933 1472.9456343818852,2959.066917589759 L 1390.0,3043.0"/>
  <path fill="none" stroke="#caff1b" stroke-width="40" stroke-opacity="1" d="M 1188.0,1933.0 L 1616.9393398282202,1504.0606601717798 C 1616.9428753621262,1504.0571246378738 1619.495,1503.0 1619.5,1503.0 L 1656.5,1503.0 C 1656.505,1503.0 1659.0571246378738,1501.9428753621262 1659.0606601717798,1501.9393398282202 L 2088.0,1073.0"/>
  <path fill="none" stroke="#ecff11" stroke-width="40" stroke-opacity="1" d="M 1442.0,2302.0 L 1412.0606601717798,2272.06066017178 C 1412.0571246378738,2272.057124637874 1409.505,2271.0 1409.5,2271.0 L 1278.5,2271.0 C 1278.495,2271.0 1275.9428753621262,2269.942875362126 1275.9393398282202,2269.93933982822 L 1246.0,2240.0"/>
  <path fill="none" stroke="#ffeb07" stroke-width="40" stroke-opacity="1" d="M 1644.0,2901.0 L 1574.0606601717798,2970.93933982822 C 1574.0571246378738,2970.942875362126 1571.505,2972.0 1571.5,2972.0 L 1462.5,2972.0 C 1462.495,2972.0 1459.9428753621262,2973.057124637874 1459.9393398282202,2973.06066017178 L 1390.0,3043.0"/>
  <path fill="none" stroke="#fdc200" stroke-width="40" stroke-opacity="1" d="M 1284.0,2525.0 L 1463.4343145750508,2704.434314575051 C 1463.436200193134,2704.436200193134 1464.0,2705.7973333333334 1464.0,2705.8 L 1464.0,2720.24 C 1464.0,2720.2425333333335 1464.5356098165228,2721.5356098165225 1464.5374011537017,2721.537401153702 L 1644.0,2901.0"/>
  <path fill="none" stroke="#f39500" stroke-width="40" stroke-opacity="1" d="M 2243.0,2697.0 L 2242.05,2696.05 C 2242.0498333333335,2696.0498333333335 2242.0,2695.9295250241416 2242.0,2695.9292893218812 L 2242.0,1357.1414213562373 C 2242.0,1357.1409499517165 2241.9003333333335,1356.9003333333333 2241.9,1356.9 L 2240.0,1355.0"/>
  <path fill="none" stroke="#e96b00" stroke-width="40" stroke-opacity="1" d="M 2243.0,2697.0 L 2117.06066017178,2571.06066017178 C 2117.057124637874,2571.057124637874 2116.0,2568.505 2116.0,2568.5 L 2116.0,628.5 C 2116.0,628.495 2114.9387379356954,625.9470290455727 2114.9351885642427,625.9435074035846 L 1988.0,500.0"/>
  <path fill="none" stroke="#df4400" stroke-width="40" stroke-opacity="1" d="M 1986.0,2216.0 L 1654.0606601717798,1884.0606601717798 C 1654.0571246378738,1884.0571246378738 1653.0,1881.505 1653.0,1881.5 L 1653.0,1650.5 C 1653.0,1650.495 1651.9412916574727,1647.9444614429292 1651.9377508268956,1647.9409312136415 L 1319.0,1316.0"/>
  <path fill="none" stroke="#d52000" stroke-width="40" stroke-opacity="1" d="M 1518.0,1762.0 L 1537.0,1781.0 C 1537.0033333333333,1781.0033333333333 1538.0,1783.4094995171652 1538.0,1783.414213562373 L 1538.0,1983.55 C 1538.0,1983.5548333333334 1538.9966666666667,1986.0465 1539.0,1986.05 L 1558.0,2006.0"/>
  <path fill="none" stroke="#cc0000" stroke-width="40" stroke-opacity="1" d="M 1558.0,2006.0 L 1648.9335597931247,2095.9451515345036 C 1648.9371145938144,2095.9486676960555 1650.0,2098.495 1650.0,2098.5 L 1650.0,2441.5 C 1650.0,2441.505 1651.0571246378738,2444.057124637874 1651.0606601717798,2444.06066017178 L 1742.0,2535.0"/>
  <g>
    <circle r="34.64101615137754" fill="white" stroke="gray" stroke-width="10.0" cx="1188" cy="1933"/>
    <text fill="black" stroke="none" font-size="60" font-family="p22" font-weight="100" text-anchor="start" dominant-baseline="central" x="1228" y="1933">Colombo</text>
  </g>
  <g>
    <circle r="60.0" fill="white" stroke="gray" stroke-width="10.0" cx="1558" cy="2006"/>
    <text fill="black" stroke="none" font-size="60" font-family="p22" font-weight="100" text-anchor="start" dominant-baseline="central" x="1598" y="2006">Kolonnawa</text>
  </g>
  <g>
    <circle r="40.0" fill="white" stroke="gray" stroke-width="10.0" cx="1986" cy="2216"/>
    <text fill="black" stroke="none" font-size="60" font-family="p22" font-weight="100" text-anchor="start" dominant-baseline="central" x="2026" y="2216">Kaduwela</text>
  </g>
  <g>
    <circle r="44.721359549995796" fill="white" stroke="gray" stroke-width="10.0" cx="2243" cy="2697"/>
    <text fill="black" stroke="none" font-size="60" font-family="p22" font-weight="100" text-anchor="start" dominant-baseline="central" x="2283" y="2697">Homagama</text>
  </g>
  <g>
    <text fill="black" stroke="none" font-size="60" font-family="p22" font-weight="100" text-anchor="start" dominant-baseline="central" x="1782" y="2535">Maharagama</text>
  </g>
  <g>
    <circle r="40.0" fill="white" stroke="gray" stroke-width="10.0" cx="1442" cy="2302"/>
    <text fill="black" stroke="none" font-size="60" font-family="p22" font-weight="100" text-anchor="start" dominant-baseline="central" x="1482" y="2302">Sri Jayawardanapura Kotte</text>
  </g>
  <g>
    <circle r="44.721359549995796" fill="white" stroke="gray" stroke-width="10.0" cx="1246" cy="2240"/>
    <text fill="black" stroke="none" font-size="60" font-family="p22" font-weight="100" text-anchor="start" dominant-baseline="central" x="1286" y="2240">Thimbirigasyaya</text>
  </g>
  <g>
    <circle r="40.0" fill="white" stroke="gray" stroke-width="10.0" cx="1284" cy="2525"/>
    <text fill="black" stroke="none" font-size="60" font-family="p22" font-weight="100" text-anchor="start" dominant-baseline="central" x="1324" y="2525">Dehiwala</text>
  </g>
  <g>
    <circle r="34.64101615137754" fill="white" stroke="gray" stroke-width="10.0" cx="1304" cy="2739"/>
    <text fill="black" stroke="none" font-size="60" font-family="p22" font-weight="100" text-anchor="start" dominant-baseline="central" x="1344" y="2739">Ratmalana</text>
  </g>
  <g>
    <circle r="44.721359549995796" fill="white" stroke="gray" stroke-width="10.0" cx="1390" cy="3043"/>
    <text fill="black" stroke="none" font-size="60" font-family="p22" font-weight="100" text-anchor="start" dominant-baseline="central" x="1430" y="3043">Moratuwa</text>
  </g>
  <g>
    <circle r="40.0" fill="white" stroke="gray" stroke-width="10.0" cx="1644" cy="2901"/>
    <text fill="black" stroke="none" font-size="60" font-family="p22" font-weight="100" text-anchor="start" dominant-baseline="central" x="1684" y="2901">Kesbewa</text>
  </g>
  <g>
    <circle r="40.0" fill="white" stroke="gray" stroke-width="10.0" cx="1988" cy="500"/>
    <text fill="black" stroke="none" font-size="60" font-family="p22" font-weight="100" text-anchor="start" dominant-baseline="central" x="2028" y="500">Minuwangoda</text>
  </g>
  <g>
    <circle r="44.721359549995796" fill="white" stroke="gray" stroke-width="10.0" cx="1319" cy="1316"/>
    <text fill="black" stroke="none" font-size="60" font-family="p22" font-weight="100" text-anchor="start" dominant-baseline="central" x="1359" y="1316">Wattala</text>
  </g>
  <g>
    <text fill="black" stroke="none" font-size="60" font-family="p22" font-weight="100" text-anchor="start" dominant-baseline="central" x="1551" y="1068">Ja-Ela</text>
  </g>
  <g>
    <circle r="34.64101615137754" fill="white" stroke="gray" stroke-width="10.0" cx="2088" cy="1073"/>
    <text fill="black" stroke="none" font-size="60" font-family="p22" font-weight="100" text-anchor="start" dominant-baseline="central" x="2128" y="1073">Gampaha</text>
  </g>
  <g>
    <text fill="#ddd" stroke="none" font-size="60" font-family="p22" font-weight="100" text-anchor="start" dominant-baseline="central" x="2851" y="1621">Dompe</text>
  </g>
  <g>
    <circle r="40.0" fill="white" stroke="gray" stroke-width="10.0" cx="2240" cy="1355"/>
    <text fill="black" stroke="none" font-size="60" font-family="p22" font-weight="100" text-anchor="start" dominant-baseline="central" x="2280" y="1355">Mahara</text>
  </g>
  <g>
    <text fill="black" stroke="none" font-size="60" font-family="p22" font-weight="100" text-anchor="start" dominant-baseline="central" x="1558" y="1762">Kelaniya</text>
  </g>
  <g>
    <text fill="#ddd" stroke="none" font-size="60" font-family="p22" font-weight="100" text-anchor="start" dominant-baseline="central" x="2024" y="1770">Biyagama</text>
  </g>
  <g>
    <text fill="black" stroke="none" font-size="60" font-family="p22" font-weight="100" text-anchor="start" dominant-baseline="central" x="1649" y="3500">Panadura</text>
  </g>
  <g>
    <text fill="#ddd" stroke="none" font-size="60" font-family="p22" font-weight="100" text-anchor="start" dominant-baseline="central" x="2005" y="3478">Bandaragama</text>
  </g>
  <g>
    <text fill="#ddd" stroke="none" font-size="60" font-family="p22" font-weight="100" text-anchor="start" dominant-baseline="central" x="2556" y="3223">Horana</text>
  </g>
</svg>
