<?xml version="1.0" ?>
<svg xmlns="http://www.w3.org/2000/svg" width="4000" height="4000" padding="500">
  <text x="2000.0" y="125.0" fill="gray" stroke="none" font-size="60" font-family="p22" text-anchor="middle" dominant-baseline="hanging">Sri Lanka</text>
  <text x="2000.0" y="250.0" fill="gray" stroke="none" font-size="120" font-family="p22" text-anchor="middle" dominant-baseline="hanging">Population Optimized Hypothetical Railway Network</text>
  <text x="2000.0" y="3750.0" fill="gray" stroke="none" font-size="60" font-family="p22" text-anchor="middle" dominant-baseline="hanging">music by @bensound ~ visualization by @nuuuwan</text>
  <text x="3000.0" y="1000.0" fill="lightgrey" stroke="none" font-size="180" font-family="p22" text-anchor="start" dominant-baseline="hanging">447km</text>
  <path fill="none" stroke="#c9deff" stroke-width="20" stroke-opacity="1" d="M 1732.0,499.0 L 1841.9393398282202,608.9393398282202 C 1841.9428753621262,608.9428753621261 1843.0,611.495 1843.0,611.5 L 1843.0,1554.5 C 1843.0,1554.505 1844.0523304955032,1557.0618971363715 1844.0558499954882,1557.0654486318108 L 1953.0,1667.0"/>
  <path fill="none" stroke="#adeeff" stroke-width="20" stroke-opacity="1" d="M 1283.0,2155.0 L 1525.9393398282202,1912.0606601717798 C 1525.9428753621262,1912.0571246378738 1528.495,1911.0 1528.5,1911.0 L 1707.5,1911.0 C 1707.505,1911.0 1710.0571246378738,1909.9428753621262 1710.0606601717798,1909.9393398282202 L 1953.0,1667.0"/>
  <path fill="none" stroke="#91ffe9" stroke-width="20" stroke-opacity="1" d="M 2721.0,1935.0 L 2570.06066017178,2085.93933982822 C 2570.057124637874,2085.942875362126 2569.0,2088.495 2569.0,2088.5 L 2569.0,2590.5 C 2569.0,2590.505 2567.942875362126,2593.057124637874 2567.93933982822,2593.06066017178 L 2418.0,2743.0"/>
  <path fill="none" stroke="#75ffac" stroke-width="20" stroke-opacity="1" d="M 2721.0,1935.0 L 2588.06066017178,1802.0606601717798 C 2588.057124637874,1802.0571246378738 2585.505,1801.0 2585.5,1801.0 L 2089.5,1801.0 C 2089.495,1801.0 2086.938952862356,1799.9468124707832 2086.935404209722,1799.9432901044647 L 1953.0,1667.0"/>
  <path fill="none" stroke="#59ff59" stroke-width="20" stroke-opacity="1" d="M 1278.0,1627.0 L 1297.0,1646.0 C 1297.0033333333333,1646.0033333333333 1299.4094995171652,1647.0 1299.414213562373,1647.0 L 1931.585786437627,1647.0 C 1931.5905004828348,1647.0 1933.9966666666667,1647.9966666666667 1934.0,1648.0 L 1953.0,1667.0"/>
  <path fill="none" stroke="#8aff3d" stroke-width="20" stroke-opacity="1" d="M 1506.0,2763.0 L 1515.5,2753.5 C 1515.5016666666668,2753.4983333333334 1516.7047497585827,2753.0 1516.7071067811864,2753.0 L 2407.2928932188133,2753.0 C 2407.2952502414173,2753.0 2408.4983333333334,2752.5016666666666 2408.5,2752.5 L 2418.0,2743.0"/>
  <path fill="none" stroke="#d2fe21" stroke-width="20" stroke-opacity="1" d="M 1506.0,2763.0 L 1633.9393398282202,2890.93933982822 C 1633.9428753621262,2890.942875362126 1635.0,2893.495 1635.0,2893.5 L 1635.0,3368.5 C 1635.0,3368.505 1636.0530352266119,3371.0611982903843 1636.0565570835572,3371.064747448546 L 1764.0,3500.0"/>
  <path fill="none" stroke="#ffcd05" stroke-width="20" stroke-opacity="1" d="M 1283.0,2155.0 L 1392.9393398282202,2264.93933982822 C 1392.9428753621262,2264.942875362126 1394.0,2267.495 1394.0,2267.5 L 1394.0,2650.5 C 1394.0,2650.505 1395.0618544307451,2653.0523735876136 1395.0654057833565,2653.0558932317194 L 1506.0,2763.0"/>
  <path fill="none" stroke="#e85c00" stroke-width="20" stroke-opacity="1" d="M 1278.0,1627.0 L 1503.9393398282202,1401.0606601717798 C 1503.9428753621262,1401.0571246378738 1505.0,1398.505 1505.0,1398.5 L 1505.0,727.5 C 1505.0,727.495 1506.0571246378738,724.9428753621261 1506.0606601717798,724.9393398282202 L 1732.0,499.0"/>
  <path fill="none" stroke="#cc0000" stroke-width="20" stroke-opacity="1" d="M 1283.0,2155.0 L 1281.1,2153.1 C 1281.0996666666667,2153.0996666666665 1281.0,2152.8590500482833 1281.0,2152.8585786437625 L 1281.0,1629.1802775637732 C 1281.0,1629.1796766385605 1280.8505,1628.9003333333333 1280.85,1628.9 L 1278.0,1627.0"/>
  <g>
    <circle r="20.0" fill="white" stroke="black" stroke-width="9.0" cx="1283" cy="2155"/>
    <text fill="black" stroke="none" font-size="60" font-family="p22" font-weight="100" text-anchor="start" dominant-baseline="middle" x="1353" y="2155">Colombo</text>
  </g>
  <g>
    <circle r="20.0" fill="white" stroke="black" stroke-width="9.0" cx="1278" cy="1627"/>
    <text fill="black" stroke="none" font-size="60" font-family="p22" font-weight="100" text-anchor="start" dominant-baseline="middle" x="1348" y="1627">Gampaha</text>
  </g>
  <g>
    <circle r="20.0" fill="white" stroke="black" stroke-width="9.0" cx="1506" cy="2763"/>
    <text fill="black" stroke="none" font-size="60" font-family="p22" font-weight="100" text-anchor="start" dominant-baseline="middle" x="1576" y="2763">Kalutara</text>
  </g>
  <g>
    <text fill="lightgrey" stroke="none" font-size="30.0" font-family="p22" font-weight="100" text-anchor="start" dominant-baseline="middle" x="2761.0" y="1935">Nuwara-Eliya</text>
  </g>
  <g>
    <circle r="14.142135623730951" fill="white" stroke="black" stroke-width="9.0" cx="1764" cy="3500"/>
    <text fill="black" stroke="none" font-size="45.0" font-family="p22" font-weight="100" text-anchor="start" dominant-baseline="middle" x="1819.0" y="3500">Galle</text>
  </g>
  <g>
    <text fill="lightgrey" stroke="none" font-size="30.0" font-family="p22" font-weight="100" text-anchor="start" dominant-baseline="middle" x="1772.0" y="499">Kurunegala</text>
  </g>
  <g>
    <text fill="lightgrey" stroke="none" font-size="30.0" font-family="p22" font-weight="100" text-anchor="start" dominant-baseline="middle" x="2458.0" y="2743">Ratnapura</text>
  </g>
  <g>
    <circle r="22.360679774997898" fill="white" stroke="black" stroke-width="9.0" cx="1953" cy="1667"/>
    <text fill="black" stroke="none" font-size="60" font-family="p22" font-weight="100" text-anchor="start" dominant-baseline="middle" x="2023" y="1667">Kegalle</text>
  </g>
</svg>
