<?xml version="1.0" ?>
<svg xmlns="http://www.w3.org/2000/svg" width="6000" height="6000" padding="500">
  <text x="3000.0" y="125.0" fill="gray" stroke="none" font-size="60" font-family="p22" text-anchor="middle" dominant-baseline="hanging">Sri Lanka</text>
  <text x="3000.0" y="250.0" fill="gray" stroke="none" font-size="120" font-family="p22" text-anchor="middle" dominant-baseline="hanging">Population Optimized Hypothetical Railway Network</text>
  <text x="3000.0" y="5750.0" fill="gray" stroke="none" font-size="60" font-family="p22" text-anchor="middle" dominant-baseline="hanging">music by @bensound ~ visualization by @nuuuwan</text>
  <text x="4500.0" y="1500.0" fill="lightgrey" stroke="none" font-size="180" font-family="p22" text-anchor="start" dominant-baseline="hanging">46km</text>
  <path fill="none" stroke="#e0e2ff" stroke-width="20" stroke-opacity="1" d="M 3342.0,4127.0 L 3198.06066017178,4270.93933982822 C 3198.057124637874,4270.942875362126 3197.0,4273.495 3197.0,4273.5 L 3197.0,4559.5 C 3197.0,4559.505 3195.942875362126,4562.057124637874 3195.93933982822,4562.06066017178 L 3052.0,4706.0"/>
  <path fill="none" stroke="#dce0fe" stroke-width="20" stroke-opacity="1" d="M 3197.0,3595.0 L 3256.93933982822,3535.06066017178 C 3256.942875362126,3535.057124637874 3258.0,3532.505 3258.0,3532.5 L 3258.0,3045.5 C 3258.0,3045.495 3259.0656839278004,3042.951504522648 3259.069248088094,3042.9479978488107 L 3320.0,2983.0"/>
  <path fill="none" stroke="#d7dffe" stroke-width="20" stroke-opacity="1" d="M 2658.0,3910.0 L 2725.931626243918,3976.947109921542 C 2725.9351874897716,3976.950619555137 2727.0,3979.495 2727.0,3979.5 L 2727.0,4390.5 C 2727.0,4390.505 2728.057124637874,4393.057124637874 2728.06066017178,4393.06066017178 L 2795.0,4460.0"/>
  <path fill="none" stroke="#d2deff" stroke-width="20" stroke-opacity="1" d="M 2564.0,2195.0 L 2550.7,2208.3 C 2550.6976666666665,2208.3023333333335 2549.0133503379843,2209.0 2549.0100505063388,2209.0 L 2009.0259142264342,2209.0 C 2009.0224945123462,2209.0 2007.3023333333333,2209.7475 2007.3,2209.75 L 1994.0,2224.0"/>
  <path fill="none" stroke="#cedeff" stroke-width="20" stroke-opacity="1" d="M 2895.0,2507.0 L 2957.93933982822,2569.93933982822 C 2957.942875362126,2569.942875362126 2960.495,2571.0 2960.5,2571.0 L 3030.5,2571.0 C 3030.505,2571.0 3033.0654154264876,2572.048768310449 3033.068978688784,2572.0522758967713 L 3096.0,2634.0"/>
  <path fill="none" stroke="#c9deff" stroke-width="20" stroke-opacity="1" d="M 3260.0,2769.0 L 3305.93933982822,2814.93933982822 C 3305.942875362126,2814.942875362126 3308.495,2816.0 3308.5,2816.0 L 3487.5,2816.0 C 3487.505,2816.0 3490.0681930876076,2817.0459390649494 3490.07176563974,2817.049437188912 L 3537.0,2863.0"/>
  <path fill="none" stroke="#c4dffe" stroke-width="20" stroke-opacity="1" d="M 2870.0,3229.0 L 2850.05,3209.05 C 2850.0465,3209.0465 2847.5200255069767,3208.0 2847.5150757595084,3208.0 L 2567.4849242404916,3208.0 C 2567.4799744930233,3208.0 2564.9535,3206.9535 2564.95,3206.95 L 2545.0,3187.0"/>
  <path fill="none" stroke="#c0e1ff" stroke-width="20" stroke-opacity="1" d="M 3542.0,1432.0 L 3432.06066017178,1541.9393398282202 C 3432.057124637874,1541.9428753621262 3431.0,1544.495 3431.0,1544.5 L 3431.0,1579.5 C 3431.0,1579.505 3429.942875362126,1582.0571246378738 3429.93933982822,1582.0606601717798 L 3321.0,1691.0"/>
  <path fill="none" stroke="#bbe3ff" stroke-width="20" stroke-opacity="1" d="M 2715.0,2094.0 L 2665.0711092587167,2142.949892883611 C 2665.067538894521,2142.9533932406657 2662.505,2144.0 2662.5,2144.0 L 2616.5,2144.0 C 2616.495,2144.0 2613.942875362126,2145.057124637874 2613.93933982822,2145.06066017178 L 2564.0,2195.0"/>
  <path fill="none" stroke="#b6e6ff" stroke-width="20" stroke-opacity="1" d="M 2895.0,2814.0 L 2926.93933982822,2845.93933982822 C 2926.942875362126,2845.942875362126 2929.495,2847.0 2929.5,2847.0 L 3068.5,2847.0 C 3068.505,2847.0 3071.057124637874,2848.057124637874 3071.06066017178,2848.06066017178 L 3103.0,2880.0"/>
  <path fill="none" stroke="#b2eafe" stroke-width="20" stroke-opacity="1" d="M 2457.0,3410.0 L 2555.93933982822,3508.93933982822 C 2555.942875362126,3508.942875362126 2557.0,3511.495 2557.0,3511.5 L 2557.0,3807.5 C 2557.0,3807.505 2558.057124637874,3810.057124637874 2558.06066017178,3810.06066017178 L 2658.0,3910.0"/>
  <path fill="none" stroke="#adeeff" stroke-width="20" stroke-opacity="1" d="M 2277.0,2898.0 L 2278.9,2898.95 C 2278.9003333333335,2898.9501666666665 2279.1114307208786,2899.0 2279.111803398875,2899.0 L 2464.8585786437625,2899.0 C 2464.8590500482833,2899.0 2465.0996666666665,2899.0996666666665 2465.1,2899.1 L 2467.0,2901.0"/>
  <path fill="none" stroke="#a8f3ff" stroke-width="20" stroke-opacity="1" d="M 2467.0,2901.0 L 2478.4,2912.4 C 2478.402,2912.402 2479.845699710299,2913.0 2479.8485281374237,2913.0 L 2689.1514718625763,2913.0 C 2689.154300289701,2913.0 2690.598,2913.598 2690.6,2913.6 L 2702.0,2925.0"/>
  <path fill="none" stroke="#a4f8ff" stroke-width="20" stroke-opacity="1" d="M 2545.0,3187.0 L 2502.06066017178,3229.93933982822 C 2502.057124637874,3229.942875362126 2501.0,3232.495 2501.0,3232.5 L 2501.0,3363.5 C 2501.0,3363.505 2499.9548191402737,3366.0689349701747 2499.951323552114,3366.0725100035197 L 2457.0,3410.0"/>
  <path fill="none" stroke="#9ffeff" stroke-width="20" stroke-opacity="1" d="M 2702.0,2925.0 L 2624.06066017178,3002.93933982822 C 2624.057124637874,3002.942875362126 2623.0,3005.495 2623.0,3005.5 L 2623.0,3106.5 C 2623.0,3106.505 2621.949629946403,3109.063836336335 2621.94611700308,3109.0673943173933 L 2545.0,3187.0"/>
  <path fill="none" stroke="#9afff8" stroke-width="20" stroke-opacity="1" d="M 2702.0,2925.0 L 2722.93933982822,2904.06066017178 C 2722.942875362126,2904.057124637874 2725.495,2903.0 2725.5,2903.0 L 3079.5,2903.0 C 3079.505,2903.0 3082.033377855721,2901.9196504235642 3082.036833968951,2901.9160372142783 L 3103.0,2880.0"/>
  <path fill="none" stroke="#96fff1" stroke-width="20" stroke-opacity="1" d="M 3197.0,3595.0 L 3268.93205032732,3665.9466797748914 C 3268.9356101595627,3665.950190842308 3270.0,3668.495 3270.0,3668.5 L 3270.0,4053.5 C 3270.0,4053.505 3271.057124637874,4056.057124637874 3271.06066017178,4056.06066017178 L 3342.0,4127.0"/>
  <path fill="none" stroke="#91ffe9" stroke-width="20" stroke-opacity="1" d="M 3260.0,2769.0 L 3205.070172240914,2822.9489379776737 C 3205.066605000111,2822.952441517748 3202.505,2824.0 3202.5,2824.0 L 3160.5,2824.0 C 3160.495,2824.0 3157.942875362126,2825.057124637874 3157.93933982822,2825.06066017178 L 3103.0,2880.0"/>
  <path fill="none" stroke="#8cffe0" stroke-width="20" stroke-opacity="1" d="M 3773.0,3420.0 L 3886.8585786437625,3533.8585786437625 C 3886.8590500482833,3533.8590500482833 3887.1993333333335,3534.0 3887.2,3534.0 L 3890.81,3534.0 C 3890.8106333333335,3534.0 3891.1339024541307,3534.1339024541307 3891.1343502884256,3534.1343502884256 L 4005.0,3648.0"/>
  <path fill="none" stroke="#88ffd7" stroke-width="20" stroke-opacity="1" d="M 2795.0,4460.0 L 2917.575735931288,4582.575735931288 C 2917.5771501448503,4582.577150144851 2918.598,4583.0 2918.6,4583.0 L 2929.43,4583.0 C 2929.4319,4583.0 2930.400064408037,4583.403343624496 2930.4014024160906,4583.404692599829 L 3052.0,4706.0"/>
  <path fill="none" stroke="#83ffcd" stroke-width="20" stroke-opacity="1" d="M 3081.0,1836.0 L 3074.35,1842.65 C 3074.3488333333335,1842.6511666666668 3073.5066751689924,1843.0 3073.5050252531696,1843.0 L 2902.4609772228646,1843.0 C 2902.4594406321216,1843.0 2901.701,1843.3488333333332 2901.7,1843.35 L 2896.0,1850.0"/>
  <path fill="none" stroke="#7effc3" stroke-width="20" stroke-opacity="1" d="M 3788.0,4003.0 L 3727.06066017178,4063.93933982822 C 3727.057124637874,4063.942875362126 3724.505,4065.0 3724.5,4065.0 L 3405.5,4065.0 C 3405.495,4065.0 3402.942875362126,4066.057124637874 3402.93933982822,4066.06066017178 L 3342.0,4127.0"/>
  <path fill="none" stroke="#79ffb8" stroke-width="20" stroke-opacity="1" d="M 3052.0,4706.0 L 3051.05,4707.9 C 3051.0498333333335,4707.900333333333 3051.0,4708.111430720879 3051.0,4708.111803398875 L 3051.0,5011.888196601125 C 3051.0,5011.888569279121 3050.9003333333335,5012.0498333333335 3050.9,5012.05 L 3049.0,5013.0"/>
  <path fill="none" stroke="#75ffac" stroke-width="20" stroke-opacity="1" d="M 2958.0,5500.0 L 3069.93933982822,5388.06066017178 C 3069.942875362126,5388.057124637874 3071.0,5385.505 3071.0,5385.5 L 3071.0,5309.5 C 3071.0,5309.495 3072.057124637874,5306.942875362126 3072.06066017178,5306.93933982822 L 3183.0,5196.0"/>
  <path fill="none" stroke="#70fea0" stroke-width="20" stroke-opacity="1" d="M 3049.0,5013.0 L 3114.947225452541,5079.931512399594 C 3114.950734701032,5079.935074024928 3116.0,5082.495 3116.0,5082.5 L 3116.0,5126.5 C 3116.0,5126.505 3117.049265298968,5129.064925975072 3117.052774547459,5129.068487600406 L 3183.0,5196.0"/>
  <path fill="none" stroke="#6bff93" stroke-width="20" stroke-opacity="1" d="M 3183.0,5196.0 L 3196.3,5182.7 C 3196.3023333333335,5182.697666666667 3197.9866496620157,5182.0 3197.9899494936612,5182.0 L 3609.0100505063388,5182.0 C 3609.0133503379843,5182.0 3610.6976666666665,5181.302333333333 3610.7,5181.3 L 3624.0,5168.0"/>
  <path fill="none" stroke="#67ff85" stroke-width="20" stroke-opacity="1" d="M 3732.0,4932.0 L 3679.06066017178,4984.93933982822 C 3679.057124637874,4984.942875362126 3678.0,4987.495 3678.0,4987.5 L 3678.0,5112.5 C 3678.0,5112.505 3676.942875362126,5115.057124637874 3676.93933982822,5115.06066017178 L 3624.0,5168.0"/>
  <path fill="none" stroke="#62ff77" stroke-width="20" stroke-opacity="1" d="M 3697.0,4500.0 L 3714.1,4516.15 C 3714.103,4516.152833333334 3715.0,4518.233815367513 3715.0,4518.237941840314 L 3715.0,4912.762058159686 C 3715.0,4912.766184632487 3715.8471666666665,4914.897 3715.85,4914.9 L 3732.0,4932.0"/>
  <path fill="none" stroke="#5dfe68" stroke-width="20" stroke-opacity="1" d="M 3788.0,4003.0 L 3744.06066017178,4046.93933982822 C 3744.057124637874,4046.942875362126 3743.0,4049.495 3743.0,4049.5 L 3743.0,4452.5 C 3743.0,4452.505 3741.942875362126,4455.057124637874 3741.93933982822,4455.06066017178 L 3697.0,4500.0"/>
  <path fill="none" stroke="#59ff59" stroke-width="20" stroke-opacity="1" d="M 3773.0,3420.0 L 3779.65,3427.6 C 3779.6511666666665,3427.6013333333335 3780.0,3428.529735599668 3780.0,3428.531507290637 L 3780.0,3994.434314575051 C 3780.0,3994.436200193134 3780.3986666666665,3995.3986666666665 3780.4,3995.4 L 3788.0,4003.0"/>
  <path fill="none" stroke="#5fff54" stroke-width="20" stroke-opacity="1" d="M 3812.0,3156.0 L 3793.0,3175.0 C 3792.9966666666664,3175.0033333333336 3792.0,3177.4094995171654 3792.0,3177.414213562373 L 3792.0,3399.6564971157454 C 3792.0,3399.660975458693 3791.0531666666666,3401.9468333333334 3791.05,3401.95 L 3773.0,3420.0"/>
  <path fill="none" stroke="#67ff4f" stroke-width="20" stroke-opacity="1" d="M 3516.0,1923.0 L 3538.9612022577153,1946.9179190184536 C 3538.9646649168562,1946.9215259550588 3541.495,1948.0 3541.5,1948.0 L 3641.5,1948.0 C 3641.505,1948.0 3644.057124637874,1949.0571246378738 3644.06066017178,1949.0606601717798 L 3667.0,1972.0"/>
  <path fill="none" stroke="#6fff4b" stroke-width="20" stroke-opacity="1" d="M 3321.0,1691.0 L 3416.9447929862354,1787.9339145634133 C 3416.948310342948,1787.9374681815352 3418.0,1790.495 3418.0,1790.5 L 3418.0,1824.5 C 3418.0,1824.505 3419.062531818465,1827.0516896570518 3419.066085436587,1827.0552070137644 L 3516.0,1923.0"/>
  <path fill="none" stroke="#77ff46" stroke-width="20" stroke-opacity="1" d="M 3510.0,2144.0 L 3512.85,2141.15 C 3512.8505,2141.1495 3513.0,2140.7885750724254 3513.0,2140.787867965644 L 3513.0,1926.212132034356 C 3513.0,1926.2114249275749 3513.1495,1925.8505 3513.15,1925.85 L 3516.0,1923.0"/>
  <path fill="none" stroke="#80ff41" stroke-width="20" stroke-opacity="1" d="M 3260.0,2769.0 L 3288.9215174359265,2796.957466854729 C 3288.9251123778067,2796.960941965213 3290.0,2799.495 3290.0,2799.5 L 3290.0,2951.5 C 3290.0,2951.505 3291.057124637874,2954.057124637874 3291.06066017178,2954.06066017178 L 3320.0,2983.0"/>
  <path fill="none" stroke="#8aff3d" stroke-width="20" stroke-opacity="1" d="M 3096.0,2634.0 L 3161.947225452541,2700.931512399594 C 3161.950734701032,2700.9350740249283 3164.495,2702.0 3164.5,2702.0 L 3191.575,2702.0 C 3191.57975,2702.0 3194.0042684059804,2703.0042684059804 3194.007627163191,2703.007627163191 L 3260.0,2769.0"/>
  <path fill="none" stroke="#95ff38" stroke-width="20" stroke-opacity="1" d="M 3314.0,2595.0 L 3288.0412033558764,2621.920233556869 C 3288.0377326780235,2621.923832778346 3287.0,2624.495 3287.0,2624.5 L 3287.0,2739.5 C 3287.0,2739.505 3285.9622673219765,2742.076167221654 3285.9587966441236,2742.079766443131 L 3260.0,2769.0"/>
  <path fill="none" stroke="#a0fe33" stroke-width="20" stroke-opacity="1" d="M 3349.0,2371.0 L 3331.9,2388.1 C 3331.897,2388.103 3331.0,2390.2685495654487 3331.0,2390.272792206136 L 3331.0,2576.797918471983 C 3331.0,2576.8019254104097 3330.1528333333335,2578.8471666666665 3330.15,2578.85 L 3314.0,2595.0"/>
  <path fill="none" stroke="#abff2f" stroke-width="20" stroke-opacity="1" d="M 3081.0,2385.0 L 3070.55,2374.55 C 3070.5481666666665,2374.5481666666665 3069.224775265559,2374.0 3069.2221825406946,2374.0 L 2917.7778174593054,2374.0 C 2917.775224734441,2374.0 2916.4518333333335,2373.4518333333335 2916.45,2373.45 L 2906.0,2363.0"/>
  <path fill="none" stroke="#b8ff2a" stroke-width="20" stroke-opacity="1" d="M 2906.0,2363.0 L 2900.3,2368.7 C 2900.299,2368.701 2900.0,2369.4228498551497 2900.0,2369.424264068712 L 2900.0,2500.609487516205 C 2900.0,2500.610789224484 2899.7508333333335,2501.299 2899.75,2501.3 L 2895.0,2507.0"/>
  <path fill="none" stroke="#c5ff25" stroke-width="20" stroke-opacity="1" d="M 2906.0,2363.0 L 2875.0773603341836,2333.0436928237405 C 2875.0737691330696,2333.0402138476616 2872.505,2332.0 2872.5,2332.0 L 2798.5,2332.0 C 2798.495,2332.0 2795.942875362126,2330.942875362126 2795.93933982822,2330.93933982822 L 2765.0,2300.0"/>
  <path fill="none" stroke="#d2fe21" stroke-width="20" stroke-opacity="1" d="M 2715.0,2094.0 L 2738.93933982822,2117.93933982822 C 2738.942875362126,2117.942875362126 2740.0,2120.495 2740.0,2120.5 L 2740.0,2273.5 C 2740.0,2273.505 2741.057124637874,2276.057124637874 2741.06066017178,2276.06066017178 L 2765.0,2300.0"/>
  <path fill="none" stroke="#e0ff1c" stroke-width="20" stroke-opacity="1" d="M 3592.0,1248.0 L 3568.0820809815464,1270.9612022577155 C 3568.0784740449412,1270.9646649168565 3567.0,1273.495 3567.0,1273.5 L 3567.0,1405.5 C 3567.0,1405.505 3565.942875362126,1408.0571246378738 3565.93933982822,1408.0606601717798 L 3542.0,1432.0"/>
  <path fill="none" stroke="#efff17" stroke-width="20" stroke-opacity="1" d="M 3537.0,2863.0 L 3538.9,2865.85 C 3538.9003333333335,2865.8505 3539.1796766385605,2866.0 3539.1802775637734,2866.0 L 3822.8197224362266,2866.0 C 3822.8203233614395,2866.0 3823.1495,2866.0996666666665 3823.15,2866.1 L 3826.0,2868.0"/>
  <path fill="none" stroke="#feff13" stroke-width="20" stroke-opacity="1" d="M 3578.0,2471.0 L 3529.06066017178,2422.06066017178 C 3529.057124637874,2422.057124637874 3526.505,2421.0 3526.5,2421.0 L 3399.5,2421.0 C 3399.495,2421.0 3396.9536067693725,2419.932251805482 3396.9501071264604,2419.9286807412864 L 3349.0,2371.0"/>
  <path fill="none" stroke="#ffee0e" stroke-width="20" stroke-opacity="1" d="M 3381.0,1086.0 L 3460.93933982822,1165.9393398282202 C 3460.942875362126,1165.9428753621262 3463.495,1167.0 3463.5,1167.0 L 3509.5,1167.0 C 3509.505,1167.0 3512.057124637874,1168.0571246378738 3512.06066017178,1168.0606601717798 L 3592.0,1248.0"/>
  <path fill="none" stroke="#fede09" stroke-width="20" stroke-opacity="1" d="M 3710.0,500.0 L 3685.081249597353,523.9603369256223 C 3685.0776454320285,523.9638024692035 3684.0,526.495 3684.0,526.5 L 3684.0,717.5 C 3684.0,717.505 3682.942875362126,720.0571246378739 3682.93933982822,720.0606601717798 L 3659.0,744.0"/>
  <path fill="none" stroke="#ffcd05" stroke-width="20" stroke-opacity="1" d="M 3826.0,2868.0 L 3819.35,2874.65 C 3819.3488333333335,2874.6511666666665 3819.0,2875.4933248310076 3819.0,2875.4949747468304 L 3819.0,3148.5050252531696 C 3819.0,3148.5066751689924 3818.6511666666665,3149.3488333333335 3818.65,3149.35 L 3812.0,3156.0"/>
  <path fill="none" stroke="#ffbb00" stroke-width="20" stroke-opacity="1" d="M 3828.0,2454.0 L 3827.05,2454.95 C 3827.0498333333335,2454.9501666666665 3827.0,2455.0704749758584 3827.0,2455.0707106781188 L 3827.0,2866.9292893218812 C 3827.0,2866.9295250241416 3826.9501666666665,2867.0498333333335 3826.95,2867.05 L 3826.0,2868.0"/>
  <path fill="none" stroke="#faa700" stroke-width="20" stroke-opacity="1" d="M 3510.0,2144.0 L 3664.7171572875254,2298.7171572875254 C 3664.718100096567,2298.718100096567 3665.3986666666665,2299.0 3665.4,2299.0 L 3672.62,2299.0 C 3672.6212666666665,2299.0 3673.2678049082615,2299.2678049082615 3673.2687005768507,2299.2687005768507 L 3828.0,2454.0"/>
  <path fill="none" stroke="#f69300" stroke-width="20" stroke-opacity="1" d="M 3510.0,2144.0 L 3430.067227537199,2222.945948111408 C 3430.063670112075,2222.9494616177035 3429.0,2225.495 3429.0,2225.5 L 3429.0,2289.5 C 3429.0,2289.505 3427.942875362126,2292.057124637874 3427.93933982822,2292.06066017178 L 3349.0,2371.0"/>
  <path fill="none" stroke="#f18000" stroke-width="20" stroke-opacity="1" d="M 3212.0,2166.0 L 3278.93933982822,2232.93933982822 C 3278.942875362126,2232.942875362126 3280.0,2235.495 3280.0,2235.5 L 3280.0,2301.5 C 3280.0,2301.505 3281.0648125102284,2304.049380444863 3281.068373756082,2304.052890078458 L 3349.0,2371.0"/>
  <path fill="none" stroke="#ec6e00" stroke-width="20" stroke-opacity="1" d="M 2978.0,2147.0 L 2986.55,2155.55 C 2986.5515,2155.5515 2987.6342747827243,2156.0 2987.636396103068,2156.0 L 3202.3273187976465,2156.0 C 3202.329561068321,2156.0 3203.4485,2156.4983333333334 3203.45,2156.5 L 3212.0,2166.0"/>
  <path fill="none" stroke="#e85c00" stroke-width="20" stroke-opacity="1" d="M 2715.0,2094.0 L 2721.65,2086.4 C 2721.6511666666665,2086.3986666666665 2722.529735599668,2086.0 2722.531507290637,2086.0 L 2861.5050252531696,2086.0 C 2861.5066751689924,2086.0 2862.3488333333335,2085.6511666666665 2862.35,2085.65 L 2869.0,2079.0"/>
  <path fill="none" stroke="#e34b00" stroke-width="20" stroke-opacity="1" d="M 2869.0,2079.0 L 2900.955286934247,2111.9236289625574 C 2900.958769311133,2111.9272168660154 2903.495,2113.0 2903.5,2113.0 L 2942.5,2113.0 C 2942.505,2113.0 2945.057124637874,2114.057124637874 2945.06066017178,2114.06066017178 L 2978.0,2147.0"/>
  <path fill="none" stroke="#de3b00" stroke-width="20" stroke-opacity="1" d="M 2896.0,1850.0 L 2882.7,1862.35 C 2882.6976666666665,1862.3521666666666 2882.0,1863.9520644965314 2882.0,1863.9552486587272 L 2882.0,2065.0807611844575 C 2882.0,2065.0838253138427 2881.3521666666666,2066.6478333333334 2881.35,2066.65 L 2869.0,2079.0"/>
  <path fill="none" stroke="#da2b00" stroke-width="20" stroke-opacity="1" d="M 2847.0,1508.0 L 2869.93933982822,1530.9393398282202 C 2869.942875362126,1530.9428753621262 2871.0,1533.495 2871.0,1533.5 L 2871.0,1823.5 C 2871.0,1823.505 2872.057124637874,1826.0571246378738 2872.06066017178,1826.0606601717798 L 2896.0,1850.0"/>
  <path fill="none" stroke="#d51c00" stroke-width="20" stroke-opacity="1" d="M 3156.0,1291.0 L 3049.055761126673,1398.9344633073392 C 3049.0522419229173,1398.9380150963148 3046.505,1400.0 3046.5,1400.0 L 2956.5,1400.0 C 2956.495,1400.0 2953.942875362126,1401.0571246378738 2953.93933982822,1401.0606601717798 L 2847.0,1508.0"/>
  <path fill="none" stroke="#d00d00" stroke-width="20" stroke-opacity="1" d="M 3381.0,1086.0 L 3279.703649108073,1188.2894523712598 C 3279.701303611046,1188.2918208633555 3278.0033333333336,1189.0 3278.0,1189.0 L 3259.95,1189.0 C 3259.9468333333334,1189.0 3258.3272298201878,1189.6662384304936 3258.324979752697,1189.6684666526692 L 3156.0,1291.0"/>
  <path fill="none" stroke="#cc0000" stroke-width="20" stroke-opacity="1" d="M 3659.0,744.0 L 3521.06066017178,881.9393398282202 C 3521.057124637874,881.9428753621261 3520.0,884.495 3520.0,884.5 L 3520.0,945.5 C 3520.0,945.505 3518.942875362126,948.0571246378739 3518.93933982822,948.0606601717798 L 3381.0,1086.0"/>
  <g>
    <circle r="14.142135623730951" fill="white" stroke="black" stroke-width="9.0" cx="3710" cy="500"/>
    <text fill="black" stroke="none" font-size="45.0" font-family="p22" font-weight="100" text-anchor="start" dominant-baseline="middle" x="3765.0" y="500">Sammanthranapura</text>
  </g>
  <g>
    <text fill="lightgrey" stroke="none" font-size="30.0" font-family="p22" font-weight="100" text-anchor="start" dominant-baseline="middle" x="3699.0" y="744">Mattakkuliya</text>
  </g>
  <g>
    <circle r="20.0" fill="white" stroke="black" stroke-width="9.0" cx="3381" cy="1086"/>
    <text fill="black" stroke="none" font-size="60" font-family="p22" font-weight="100" text-anchor="start" dominant-baseline="middle" x="3451" y="1086">Modara</text>
  </g>
  <g>
    <text fill="lightgrey" stroke="none" font-size="30.0" font-family="p22" font-weight="100" text-anchor="start" dominant-baseline="middle" x="3632.0" y="1248">Madampitiya</text>
  </g>
  <g>
    <text fill="lightgrey" stroke="none" font-size="30.0" font-family="p22" font-weight="100" text-anchor="start" dominant-baseline="middle" x="3582.0" y="1432">Mahawatta</text>
  </g>
  <g>
    <text fill="lightgrey" stroke="none" font-size="30.0" font-family="p22" font-weight="100" text-anchor="start" dominant-baseline="middle" x="3196.0" y="1291">Aluthmawatha</text>
  </g>
  <g>
    <text fill="lightgrey" stroke="none" font-size="30.0" font-family="p22" font-weight="100" text-anchor="start" dominant-baseline="middle" x="2887.0" y="1508">Lunupokuna</text>
  </g>
  <g>
    <text fill="lightgrey" stroke="none" font-size="30.0" font-family="p22" font-weight="100" text-anchor="start" dominant-baseline="middle" x="3361.0" y="1691">Bloemendhal</text>
  </g>
  <g>
    <circle r="14.142135623730951" fill="white" stroke="black" stroke-width="9.0" cx="3081" cy="1836"/>
    <text fill="black" stroke="none" font-size="45.0" font-family="p22" font-weight="100" text-anchor="start" dominant-baseline="middle" x="3136.0" y="1836">Kotahena East</text>
  </g>
  <g>
    <circle r="20.0" fill="white" stroke="black" stroke-width="9.0" cx="2896" cy="1850"/>
    <text fill="black" stroke="none" font-size="60" font-family="p22" font-weight="100" text-anchor="start" dominant-baseline="middle" x="2966" y="1850">Kotahena West</text>
  </g>
  <g>
    <circle r="20.0" fill="white" stroke="black" stroke-width="9.0" cx="2715" cy="2094"/>
    <text fill="black" stroke="none" font-size="60" font-family="p22" font-weight="100" text-anchor="start" dominant-baseline="middle" x="2785" y="2094">Kochchikade North</text>
  </g>
  <g>
    <circle r="20.0" fill="white" stroke="black" stroke-width="9.0" cx="2869" cy="2079"/>
    <text fill="black" stroke="none" font-size="60" font-family="p22" font-weight="100" text-anchor="start" dominant-baseline="middle" x="2939" y="2079">Jinthupitiya</text>
  </g>
  <g>
    <text fill="lightgrey" stroke="none" font-size="30.0" font-family="p22" font-weight="100" text-anchor="start" dominant-baseline="middle" x="3018.0" y="2147">Masangasweediya</text>
  </g>
  <g>
    <text fill="lightgrey" stroke="none" font-size="30.0" font-family="p22" font-weight="100" text-anchor="start" dominant-baseline="middle" x="3252.0" y="2166">New Bazaar</text>
  </g>
  <g>
    <circle r="20.0" fill="white" stroke="black" stroke-width="9.0" cx="3510" cy="2144"/>
    <text fill="black" stroke="none" font-size="60" font-family="p22" font-weight="100" text-anchor="start" dominant-baseline="middle" x="3580" y="2144">Grandpass South</text>
  </g>
  <g>
    <circle r="20.0" fill="white" stroke="black" stroke-width="9.0" cx="3516" cy="1923"/>
    <text fill="black" stroke="none" font-size="60" font-family="p22" font-weight="100" text-anchor="start" dominant-baseline="middle" x="3586" y="1923">Grandpass North</text>
  </g>
  <g>
    <circle r="14.142135623730951" fill="white" stroke="black" stroke-width="9.0" cx="3667" cy="1972"/>
    <text fill="black" stroke="none" font-size="45.0" font-family="p22" font-weight="100" text-anchor="start" dominant-baseline="middle" x="3722.0" y="1972">Nawagampura</text>
  </g>
  <g>
    <circle r="14.142135623730951" fill="white" stroke="black" stroke-width="9.0" cx="3578" cy="2471"/>
    <text fill="black" stroke="none" font-size="45.0" font-family="p22" font-weight="100" text-anchor="start" dominant-baseline="middle" x="3633.0" y="2471">Maligawatta East</text>
  </g>
  <g>
    <circle r="22.360679774997898" fill="white" stroke="black" stroke-width="9.0" cx="3349" cy="2371"/>
    <text fill="black" stroke="none" font-size="60" font-family="p22" font-weight="100" text-anchor="start" dominant-baseline="middle" x="3419" y="2371">Khettarama</text>
  </g>
  <g>
    <circle r="14.142135623730951" fill="white" stroke="black" stroke-width="9.0" cx="3081" cy="2385"/>
    <text fill="black" stroke="none" font-size="45.0" font-family="p22" font-weight="100" text-anchor="start" dominant-baseline="middle" x="3136.0" y="2385">Aluthkade East</text>
  </g>
  <g>
    <circle r="20.0" fill="white" stroke="black" stroke-width="9.0" cx="2906" cy="2363"/>
    <text fill="black" stroke="none" font-size="60" font-family="p22" font-weight="100" text-anchor="start" dominant-baseline="middle" x="2976" y="2363">Aluthkade West</text>
  </g>
  <g>
    <text fill="lightgrey" stroke="none" font-size="30.0" font-family="p22" font-weight="100" text-anchor="start" dominant-baseline="middle" x="2805.0" y="2300">Kochchikade South</text>
  </g>
  <g>
    <text fill="lightgrey" stroke="none" font-size="30.0" font-family="p22" font-weight="100" text-anchor="start" dominant-baseline="middle" x="2604.0" y="2195">Pettah</text>
  </g>
  <g>
    <circle r="14.142135623730951" fill="white" stroke="black" stroke-width="9.0" cx="1994" cy="2224"/>
    <text fill="black" stroke="none" font-size="45.0" font-family="p22" font-weight="100" text-anchor="start" dominant-baseline="middle" x="2049.0" y="2224">Fort</text>
  </g>
  <g>
    <circle r="14.142135623730951" fill="white" stroke="black" stroke-width="9.0" cx="2277" cy="2898"/>
    <text fill="black" stroke="none" font-size="45.0" font-family="p22" font-weight="100" text-anchor="start" dominant-baseline="middle" x="2332.0" y="2898">Galle Face</text>
  </g>
  <g>
    <text fill="lightgrey" stroke="none" font-size="30.0" font-family="p22" font-weight="100" text-anchor="start" dominant-baseline="middle" x="2507.0" y="2901">Slave Island</text>
  </g>
  <g>
    <circle r="20.0" fill="white" stroke="black" stroke-width="9.0" cx="2702" cy="2925"/>
    <text fill="black" stroke="none" font-size="60" font-family="p22" font-weight="100" text-anchor="start" dominant-baseline="middle" x="2772" y="2925">Hunupitiya</text>
  </g>
  <g>
    <circle r="14.142135623730951" fill="white" stroke="black" stroke-width="9.0" cx="2895" cy="2814"/>
    <text fill="black" stroke="none" font-size="45.0" font-family="p22" font-weight="100" text-anchor="start" dominant-baseline="middle" x="2950.0" y="2814">Suduwella</text>
  </g>
  <g>
    <text fill="lightgrey" stroke="none" font-size="30.0" font-family="p22" font-weight="100" text-anchor="start" dominant-baseline="middle" x="2935.0" y="2507">Keselwatta</text>
  </g>
  <g>
    <text fill="lightgrey" stroke="none" font-size="30.0" font-family="p22" font-weight="100" text-anchor="start" dominant-baseline="middle" x="3136.0" y="2634">Panchikawatta</text>
  </g>
  <g>
    <text fill="lightgrey" stroke="none" font-size="30.0" font-family="p22" font-weight="100" text-anchor="start" dominant-baseline="middle" x="3354.0" y="2595">Maligawatta West</text>
  </g>
  <g>
    <circle r="24.49489742783178" fill="white" stroke="black" stroke-width="9.0" cx="3260" cy="2769"/>
    <text fill="black" stroke="none" font-size="60" font-family="p22" font-weight="100" text-anchor="start" dominant-baseline="middle" x="3330" y="2769">Maligakanda</text>
  </g>
  <g>
    <circle r="20.0" fill="white" stroke="black" stroke-width="9.0" cx="3103" cy="2880"/>
    <text fill="black" stroke="none" font-size="60" font-family="p22" font-weight="100" text-anchor="start" dominant-baseline="middle" x="3173" y="2880">Maradana</text>
  </g>
  <g>
    <circle r="14.142135623730951" fill="white" stroke="black" stroke-width="9.0" cx="2870" cy="3229"/>
    <text fill="black" stroke="none" font-size="45.0" font-family="p22" font-weight="100" text-anchor="start" dominant-baseline="middle" x="2925.0" y="3229">Ibbanwala</text>
  </g>
  <g>
    <circle r="20.0" fill="white" stroke="black" stroke-width="9.0" cx="2545" cy="3187"/>
    <text fill="black" stroke="none" font-size="60" font-family="p22" font-weight="100" text-anchor="start" dominant-baseline="middle" x="2615" y="3187">Wekanda</text>
  </g>
  <g>
    <text fill="lightgrey" stroke="none" font-size="30.0" font-family="p22" font-weight="100" text-anchor="start" dominant-baseline="middle" x="2497.0" y="3410">Kollupitiya</text>
  </g>
  <g>
    <text fill="lightgrey" stroke="none" font-size="30.0" font-family="p22" font-weight="100" text-anchor="start" dominant-baseline="middle" x="2698.0" y="3910">Bambalapitiya</text>
  </g>
  <g>
    <text fill="lightgrey" stroke="none" font-size="30.0" font-family="p22" font-weight="100" text-anchor="start" dominant-baseline="middle" x="3237.0" y="3595">Kurunduwatta</text>
  </g>
  <g>
    <text fill="lightgrey" stroke="none" font-size="30.0" font-family="p22" font-weight="100" text-anchor="start" dominant-baseline="middle" x="3360.0" y="2983">Kuppiyawatta West</text>
  </g>
  <g>
    <text fill="lightgrey" stroke="none" font-size="30.0" font-family="p22" font-weight="100" text-anchor="start" dominant-baseline="middle" x="3577.0" y="2863">Kuppiyawatta East</text>
  </g>
  <g>
    <text fill="lightgrey" stroke="none" font-size="30.0" font-family="p22" font-weight="100" text-anchor="start" dominant-baseline="middle" x="3868.0" y="2454">Dematagoda</text>
  </g>
  <g>
    <circle r="20.0" fill="white" stroke="black" stroke-width="9.0" cx="3826" cy="2868"/>
    <text fill="black" stroke="none" font-size="60" font-family="p22" font-weight="100" text-anchor="start" dominant-baseline="middle" x="3896" y="2868">Wanathamulla</text>
  </g>
  <g>
    <text fill="lightgrey" stroke="none" font-size="30.0" font-family="p22" font-weight="100" text-anchor="start" dominant-baseline="middle" x="3852.0" y="3156">Borella North</text>
  </g>
  <g>
    <circle r="20.0" fill="white" stroke="black" stroke-width="9.0" cx="3773" cy="3420"/>
    <text fill="black" stroke="none" font-size="60" font-family="p22" font-weight="100" text-anchor="start" dominant-baseline="middle" x="3843" y="3420">Borella South</text>
  </g>
  <g>
    <circle r="14.142135623730951" fill="white" stroke="black" stroke-width="9.0" cx="4005" cy="3648"/>
    <text fill="black" stroke="none" font-size="45.0" font-family="p22" font-weight="100" text-anchor="start" dominant-baseline="middle" x="4060.0" y="3648">Gothamipura</text>
  </g>
  <g>
    <circle r="20.0" fill="white" stroke="black" stroke-width="9.0" cx="3788" cy="4003"/>
    <text fill="black" stroke="none" font-size="60" font-family="p22" font-weight="100" text-anchor="start" dominant-baseline="middle" x="3858" y="4003">Narahenpita</text>
  </g>
  <g>
    <circle r="20.0" fill="white" stroke="black" stroke-width="9.0" cx="3342" cy="4127"/>
    <text fill="black" stroke="none" font-size="60" font-family="p22" font-weight="100" text-anchor="start" dominant-baseline="middle" x="3412" y="4127">Thimbirigasyaya</text>
  </g>
  <g>
    <text fill="lightgrey" stroke="none" font-size="30.0" font-family="p22" font-weight="100" text-anchor="start" dominant-baseline="middle" x="2835.0" y="4460">Milagiriya</text>
  </g>
  <g>
    <circle r="20.0" fill="white" stroke="black" stroke-width="9.0" cx="3052" cy="4706"/>
    <text fill="black" stroke="none" font-size="60" font-family="p22" font-weight="100" text-anchor="start" dominant-baseline="middle" x="3122" y="4706">Havelock Town</text>
  </g>
  <g>
    <text fill="lightgrey" stroke="none" font-size="30.0" font-family="p22" font-weight="100" text-anchor="start" dominant-baseline="middle" x="3737.0" y="4500">Kirula</text>
  </g>
  <g>
    <text fill="lightgrey" stroke="none" font-size="30.0" font-family="p22" font-weight="100" text-anchor="start" dominant-baseline="middle" x="3772.0" y="4932">Kirulapone</text>
  </g>
  <g>
    <text fill="lightgrey" stroke="none" font-size="30.0" font-family="p22" font-weight="100" text-anchor="start" dominant-baseline="middle" x="3089.0" y="5013">Wellawatta North</text>
  </g>
  <g>
    <circle r="14.142135623730951" fill="white" stroke="black" stroke-width="9.0" cx="2958" cy="5500"/>
    <text fill="black" stroke="none" font-size="45.0" font-family="p22" font-weight="100" text-anchor="start" dominant-baseline="middle" x="3013.0" y="5500">Wellawatta South</text>
  </g>
  <g>
    <circle r="20.0" fill="white" stroke="black" stroke-width="9.0" cx="3183" cy="5196"/>
    <text fill="black" stroke="none" font-size="60" font-family="p22" font-weight="100" text-anchor="start" dominant-baseline="middle" x="3253" y="5196">Pamankada West</text>
  </g>
  <g>
    <text fill="lightgrey" stroke="none" font-size="30.0" font-family="p22" font-weight="100" text-anchor="start" dominant-baseline="middle" x="3664.0" y="5168">Pamankada East</text>
  </g>
</svg>
