<?xml version="1.0" ?>
<svg xmlns="http://www.w3.org/2000/svg" width="6000" height="6000" padding="500">
  <circle r="80" fill="#cc0000" stroke="none" stroke-width="9.0" cx="1500.0" cy-offset="1500.0" cy="1500.0"/>
  <circle r="80" fill="#e85c00" stroke="none" stroke-width="9.0" cx="1500.0" cy-offset="1500.0" cy="1660.0"/>
  <circle r="80" fill="#ffcd05" stroke="none" stroke-width="9.0" cx="1500.0" cy-offset="1500.0" cy="1820.0"/>
  <circle r="80" fill="#d2fe21" stroke="none" stroke-width="9.0" cx="1500.0" cy-offset="1500.0" cy="1980.0"/>
  <circle r="80" fill="#8aff3d" stroke="none" stroke-width="9.0" cx="1500.0" cy-offset="1500.0" cy="2140.0"/>
  <circle r="80" fill="#59ff59" stroke="none" stroke-width="9.0" cx="1500.0" cy-offset="1500.0" cy="2300.0"/>
  <circle r="80" fill="#75ffac" stroke="none" stroke-width="9.0" cx="1500.0" cy-offset="1500.0" cy="2460.0"/>
  <circle r="80" fill="#91ffe9" stroke="none" stroke-width="9.0" cx="1500.0" cy-offset="1500.0" cy="2620.0"/>
  <text x="3000.0" y="125.0" fill="gray" stroke="none" font-size="60" font-family="p22" text-anchor="middle" dominant-baseline="hanging">Sri Lanka</text>
  <text x="3000.0" y="250.0" fill="gray" stroke="none" font-size="120" font-family="p22" text-anchor="middle" dominant-baseline="hanging">Population Optimized Hypothetical Railway Network</text>
  <text x="3000.0" y="5750.0" fill="gray" stroke="none" font-size="60" font-family="p22" text-anchor="middle" dominant-baseline="hanging">music by @bensound ~ visualization by @nuuuwan</text>
  <text x="4500.0" y="1500.0" fill="lightgrey" stroke="none" font-size="180" font-family="p22" text-anchor="start" dominant-baseline="hanging">489km</text>
  <path fill="none" stroke="#c9deff" stroke-width="20" stroke-opacity="1" d="M 1847.0,2920.0 L 2140.9375405782125,2627.058857864425 C 2140.9410821096185,2627.0553283382105 2143.495,2626.0 2143.5,2626.0 L 2394.5,2626.0 C 2394.505,2626.0 2397.057124637874,2624.942875362126 2397.06066017178,2624.93933982822 L 2691.0,2331.0"/>
  <path fill="none" stroke="#adeeff" stroke-width="20" stroke-opacity="1" d="M 2968.0,3907.0 L 3106.93933982822,4045.93933982822 C 3106.942875362126,4045.942875362126 3109.495,4047.0 3109.5,4047.0 L 3298.5,4047.0 C 3298.505,4047.0 3301.057124637874,4048.057124637874 3301.06066017178,4048.06066017178 L 3440.0,4187.0"/>
  <path fill="none" stroke="#91ffe9" stroke-width="20" stroke-opacity="1" d="M 2968.0,3907.0 L 2693.06066017178,3632.06066017178 C 2693.057124637874,3632.057124637874 2690.505,3631.0 2690.5,3631.0 L 2578.5,3631.0 C 2578.495,3631.0 2575.9447956564504,3629.940958549747 2575.9412665449336,3629.937416605097 L 2302.0,3355.0"/>
  <path fill="none" stroke="#75ffac" stroke-width="20" stroke-opacity="1" d="M 2148.0,4887.0 L 2153.7,4881.3 C 2153.701,4881.299 2154.4228498551497,4881.0 2154.424264068712,4881.0 L 2758.5050252531696,4881.0 C 2758.5066751689924,4881.0 2759.3488333333335,4880.6511666666665 2759.35,4880.65 L 2766.0,4874.0"/>
  <path fill="none" stroke="#59ff59" stroke-width="20" stroke-opacity="1" d="M 2302.0,3355.0 L 2084.7087304413003,3138.7054793842303 C 2084.706368006496,3138.703127786283 2083.0033333333336,3138.0 2083.0,3138.0 L 2064.95,3138.0 C 2064.9468333333334,3138.0 2063.332028603031,3137.3289503938286 2063.3297945849813,3137.3267060807643 L 1847.0,2920.0"/>
  <path fill="none" stroke="#8aff3d" stroke-width="20" stroke-opacity="1" d="M 2323.0,5387.0 L 2378.929995352728,5441.948767364083 C 2378.933562034885,5441.95227147287 2381.495,5443.0 2381.5,5443.0 L 2671.5,5443.0 C 2671.505,5443.0 2674.04772852713,5444.066437965114 2674.0512326359167,5444.070004647272 L 2729.0,5500.0"/>
  <path fill="none" stroke="#d2fe21" stroke-width="20" stroke-opacity="1" d="M 2148.0,4887.0 L 2233.945417961013,4973.9332963283805 C 2233.948933234476,4973.936852007287 2235.0,4976.495 2235.0,4976.5 L 2235.0,5297.5 C 2235.0,5297.505 2236.057124637874,5300.057124637874 2236.06066017178,5300.06066017178 L 2323.0,5387.0"/>
  <path fill="none" stroke="#ffcd05" stroke-width="20" stroke-opacity="1" d="M 1996.0,4475.0 L 2070.93933982822,4549.93933982822 C 2070.942875362126,4549.942875362126 2072.0,4552.495 2072.0,4552.5 L 2072.0,4809.5 C 2072.0,4809.505 2073.057124637874,4812.057124637874 2073.06066017178,4812.06066017178 L 2148.0,4887.0"/>
  <path fill="none" stroke="#e85c00" stroke-width="20" stroke-opacity="1" d="M 1994.0,4118.0 L 2146.93933982822,3965.06066017178 C 2146.942875362126,3965.057124637874 2148.0,3962.505 2148.0,3962.5 L 2148.0,3510.5 C 2148.0,3510.495 2149.057124637874,3507.942875362126 2149.06066017178,3507.93933982822 L 2302.0,3355.0"/>
  <path fill="none" stroke="#cc0000" stroke-width="20" stroke-opacity="1" d="M 1996.0,4475.0 L 1995.05,4475.0 C 1995.0498333333333,4475.0 1995.0,4474.9501666666665 1995.0,4474.95 L 1995.0,4119.070710678118 C 1995.0,4119.070474975858 1994.9501666666667,4118.9501666666665 1994.95,4118.95 L 1994.0,4118.0"/>
  <g>
    <text fill="lightgrey" stroke="none" font-size="30.0" font-family="p22" font-weight="100" text-anchor="start" dominant-baseline="middle" x="2036.0" y="4475">Colombo</text>
  </g>
  <g>
    <text fill="lightgrey" stroke="none" font-size="30.0" font-family="p22" font-weight="100" text-anchor="start" dominant-baseline="middle" x="2034.0" y="4118">Gampaha</text>
  </g>
  <g>
    <circle r="20.0" fill="white" stroke="black" stroke-width="9.0" cx="2148" cy="4887"/>
    <text fill="black" stroke="none" font-size="60" font-family="p22" font-weight="100" text-anchor="start" dominant-baseline="middle" x="2218" y="4887">Kalutara</text>
  </g>
  <g>
    <text fill="lightgrey" stroke="none" font-size="30.0" font-family="p22" font-weight="100" text-anchor="start" dominant-baseline="middle" x="3008.0" y="3907">Kandy</text>
  </g>
  <g>
    <text fill="lightgrey" stroke="none" font-size="30.0" font-family="p22" font-weight="100" text-anchor="start" dominant-baseline="middle" x="2363.0" y="5387">Galle</text>
  </g>
  <g>
    <circle r="14.142135623730951" fill="white" stroke="black" stroke-width="9.0" cx="2729" cy="5500"/>
    <text fill="black" stroke="none" font-size="45.0" font-family="p22" font-weight="100" text-anchor="start" dominant-baseline="middle" x="2784.0" y="5500">Matara</text>
  </g>
  <g>
    <circle r="20.0" fill="white" stroke="black" stroke-width="9.0" cx="2302" cy="3355"/>
    <text fill="black" stroke="none" font-size="60" font-family="p22" font-weight="100" text-anchor="start" dominant-baseline="middle" x="2372" y="3355">Kurunegala</text>
  </g>
  <g>
    <text fill="lightgrey" stroke="none" font-size="30.0" font-family="p22" font-weight="100" text-anchor="start" dominant-baseline="middle" x="1887.0" y="2920">Puttalam</text>
  </g>
  <g>
    <circle r="14.142135623730951" fill="white" stroke="black" stroke-width="9.0" cx="2691" cy="2331"/>
    <text fill="black" stroke="none" font-size="45.0" font-family="p22" font-weight="100" text-anchor="start" dominant-baseline="middle" x="2746.0" y="2331">Anuradhapura</text>
  </g>
  <g>
    <circle r="14.142135623730951" fill="white" stroke="black" stroke-width="9.0" cx="3440" cy="4187"/>
    <text fill="black" stroke="none" font-size="45.0" font-family="p22" font-weight="100" text-anchor="start" dominant-baseline="middle" x="3495.0" y="4187">Badulla</text>
  </g>
  <g>
    <circle r="14.142135623730951" fill="white" stroke="black" stroke-width="9.0" cx="2766" cy="4874"/>
    <text fill="black" stroke="none" font-size="45.0" font-family="p22" font-weight="100" text-anchor="start" dominant-baseline="middle" x="2821.0" y="4874">Ratnapura</text>
  </g>
</svg>
