<?xml version="1.0" ?>
<svg xmlns="http://www.w3.org/2000/svg" width="4000" height="4000" padding="500">
  <text x="2000.0" y="125.0" fill="gray" stroke="none" font-size="60" font-family="p22" text-anchor="middle" dominant-baseline="hanging">Sri Lanka</text>
  <text x="2000.0" y="250.0" fill="gray" stroke="none" font-size="120" font-family="p22" text-anchor="middle" dominant-baseline="hanging">Population Optimized Hypothetical Railway Network</text>
  <text x="2000.0" y="3750.0" fill="gray" stroke="none" font-size="60" font-family="p22" text-anchor="middle" dominant-baseline="hanging">music by @bensound ~ visualization by @nuuuwan</text>
  <text x="3000.0" y="1000.0" fill="lightgrey" stroke="none" font-size="180" font-family="p22" text-anchor="start" dominant-baseline="hanging">2,099km</text>
  <path fill="none" stroke="#e1e3ff" stroke-width="20" stroke-opacity="1" d="M 1397.0,2885.0 L 1397.0,2671.0707106781188 C 1397.0,2671.0704749758584 1396.9501666666667,2670.9501666666665 1396.95,2670.95 L 1396.0,2670.0"/>
  <path fill="none" stroke="#dce1ff" stroke-width="20" stroke-opacity="1" d="M 1397.0,2885.0 L 1397.0,2671.0707106781188 C 1397.0,2671.0704749758584 1396.9501666666667,2670.9501666666665 1396.95,2670.95 L 1396.0,2670.0"/>
  <path fill="none" stroke="#d8dfff" stroke-width="20" stroke-opacity="1" d="M 1397.0,2885.0 L 1397.0,2671.0707106781188 C 1397.0,2671.0704749758584 1396.9501666666667,2670.9501666666665 1396.95,2670.95 L 1396.0,2670.0"/>
  <path fill="none" stroke="#d4defe" stroke-width="20" stroke-opacity="1" d="M 1397.0,2885.0 L 1397.0,2671.0707106781188 C 1397.0,2671.0704749758584 1396.9501666666667,2670.9501666666665 1396.95,2670.95 L 1396.0,2670.0"/>
  <path fill="none" stroke="#cfdeff" stroke-width="20" stroke-opacity="1" d="M 1397.0,2885.0 L 1397.0,2671.0707106781188 C 1397.0,2671.0704749758584 1396.9501666666667,2670.9501666666665 1396.95,2670.95 L 1396.0,2670.0"/>
  <path fill="none" stroke="#cbdeff" stroke-width="20" stroke-opacity="1" d="M 1397.0,2885.0 L 1397.0,2671.0707106781188 C 1397.0,2671.0704749758584 1396.9501666666667,2670.9501666666665 1396.95,2670.95 L 1396.0,2670.0"/>
  <path fill="none" stroke="#c7dfff" stroke-width="20" stroke-opacity="1" d="M 1397.0,2885.0 L 1397.0,2671.0707106781188 C 1397.0,2671.0704749758584 1396.9501666666667,2670.9501666666665 1396.95,2670.95 L 1396.0,2670.0"/>
  <path fill="none" stroke="#c2e0ff" stroke-width="20" stroke-opacity="1" d="M 1397.0,2885.0 L 1397.0,2671.0707106781188 C 1397.0,2671.0704749758584 1396.9501666666667,2670.9501666666665 1396.95,2670.95 L 1396.0,2670.0"/>
  <path fill="none" stroke="#bee2ff" stroke-width="20" stroke-opacity="1" d="M 1397.0,2885.0 L 1397.0,2671.0707106781188 C 1397.0,2671.0704749758584 1396.9501666666667,2670.9501666666665 1396.95,2670.95 L 1396.0,2670.0"/>
  <path fill="none" stroke="#bae4ff" stroke-width="20" stroke-opacity="1" d="M 1397.0,2885.0 L 1397.0,2671.0707106781188 C 1397.0,2671.0704749758584 1396.9501666666667,2670.9501666666665 1396.95,2670.95 L 1396.0,2670.0"/>
  <path fill="none" stroke="#b6e7ff" stroke-width="20" stroke-opacity="1" d="M 1397.0,2885.0 L 1397.0,2671.0707106781188 C 1397.0,2671.0704749758584 1396.9501666666667,2670.9501666666665 1396.95,2670.95 L 1396.0,2670.0"/>
  <path fill="none" stroke="#b1eafe" stroke-width="20" stroke-opacity="1" d="M 1397.0,2885.0 L 1397.0,2671.0707106781188 C 1397.0,2671.0704749758584 1396.9501666666667,2670.9501666666665 1396.95,2670.95 L 1396.0,2670.0"/>
  <path fill="none" stroke="#adeeff" stroke-width="20" stroke-opacity="1" d="M 1397.0,2885.0 L 1397.0,2671.0707106781188 C 1397.0,2671.0704749758584 1396.9501666666667,2670.9501666666665 1396.95,2670.95 L 1396.0,2670.0"/>
  <path fill="none" stroke="#a9f3ff" stroke-width="20" stroke-opacity="1" d="M 1397.0,2885.0 L 1397.0,2671.0707106781188 C 1397.0,2671.0704749758584 1396.9501666666667,2670.9501666666665 1396.95,2670.95 L 1396.0,2670.0"/>
  <path fill="none" stroke="#a4f8ff" stroke-width="20" stroke-opacity="1" d="M 1397.0,2885.0 L 1397.0,2671.0707106781188 C 1397.0,2671.0704749758584 1396.9501666666667,2670.9501666666665 1396.95,2670.95 L 1396.0,2670.0"/>
  <path fill="none" stroke="#a0fdff" stroke-width="20" stroke-opacity="1" d="M 1397.0,2885.0 L 1397.0,2671.0707106781188 C 1397.0,2671.0704749758584 1396.9501666666667,2670.9501666666665 1396.95,2670.95 L 1396.0,2670.0"/>
  <path fill="none" stroke="#9cfffa" stroke-width="20" stroke-opacity="1" d="M 1397.0,2885.0 L 1397.0,2671.0707106781188 C 1397.0,2671.0704749758584 1396.9501666666667,2670.9501666666665 1396.95,2670.95 L 1396.0,2670.0"/>
  <path fill="none" stroke="#97fff3" stroke-width="20" stroke-opacity="1" d="M 1397.0,2885.0 L 1397.0,2671.0707106781188 C 1397.0,2671.0704749758584 1396.9501666666667,2670.9501666666665 1396.95,2670.95 L 1396.0,2670.0"/>
  <path fill="none" stroke="#93ffec" stroke-width="20" stroke-opacity="1" d="M 1397.0,2885.0 L 1397.0,2671.0707106781188 C 1397.0,2671.0704749758584 1396.9501666666667,2670.9501666666665 1396.95,2670.95 L 1396.0,2670.0"/>
  <path fill="none" stroke="#8fffe5" stroke-width="20" stroke-opacity="1" d="M 1397.0,2885.0 L 1397.0,2671.0707106781188 C 1397.0,2671.0704749758584 1396.9501666666667,2670.9501666666665 1396.95,2670.95 L 1396.0,2670.0"/>
  <path fill="none" stroke="#8affdd" stroke-width="20" stroke-opacity="1" d="M 1397.0,2885.0 L 1397.0,2671.0707106781188 C 1397.0,2671.0704749758584 1396.9501666666667,2670.9501666666665 1396.95,2670.95 L 1396.0,2670.0"/>
  <path fill="none" stroke="#86ffd4" stroke-width="20" stroke-opacity="1" d="M 1397.0,2885.0 L 1397.0,2671.0707106781188 C 1397.0,2671.0704749758584 1396.9501666666667,2670.9501666666665 1396.95,2670.95 L 1396.0,2670.0"/>
  <path fill="none" stroke="#82ffcb" stroke-width="20" stroke-opacity="1" d="M 1397.0,2885.0 L 1397.0,2671.0707106781188 C 1397.0,2671.0704749758584 1396.9501666666667,2670.9501666666665 1396.95,2670.95 L 1396.0,2670.0"/>
  <path fill="none" stroke="#7dffc1" stroke-width="20" stroke-opacity="1" d="M 1397.0,2885.0 L 1397.0,2671.0707106781188 C 1397.0,2671.0704749758584 1396.9501666666667,2670.9501666666665 1396.95,2670.95 L 1396.0,2670.0"/>
  <path fill="none" stroke="#79ffb7" stroke-width="20" stroke-opacity="1" d="M 1397.0,2885.0 L 1397.0,2671.0707106781188 C 1397.0,2671.0704749758584 1396.9501666666667,2670.9501666666665 1396.95,2670.95 L 1396.0,2670.0"/>
  <path fill="none" stroke="#75ffac" stroke-width="20" stroke-opacity="1" d="M 1397.0,2885.0 L 1397.0,2671.0707106781188 C 1397.0,2671.0704749758584 1396.9501666666667,2670.9501666666665 1396.95,2670.95 L 1396.0,2670.0"/>
  <path fill="none" stroke="#70ffa1" stroke-width="20" stroke-opacity="1" d="M 1397.0,2885.0 L 1397.0,2671.0707106781188 C 1397.0,2671.0704749758584 1396.9501666666667,2670.9501666666665 1396.95,2670.95 L 1396.0,2670.0"/>
  <path fill="none" stroke="#6cff95" stroke-width="20" stroke-opacity="1" d="M 1397.0,2885.0 L 1397.0,2671.0707106781188 C 1397.0,2671.0704749758584 1396.9501666666667,2670.9501666666665 1396.95,2670.95 L 1396.0,2670.0"/>
  <path fill="none" stroke="#68ff88" stroke-width="20" stroke-opacity="1" d="M 1397.0,2885.0 L 1397.0,2671.0707106781188 C 1397.0,2671.0704749758584 1396.9501666666667,2670.9501666666665 1396.95,2670.95 L 1396.0,2670.0"/>
  <path fill="none" stroke="#64ff7b" stroke-width="20" stroke-opacity="1" d="M 1397.0,2885.0 L 1397.0,2671.0707106781188 C 1397.0,2671.0704749758584 1396.9501666666667,2670.9501666666665 1396.95,2670.95 L 1396.0,2670.0"/>
  <path fill="none" stroke="#5fff6e" stroke-width="20" stroke-opacity="1" d="M 1397.0,2885.0 L 1397.0,2671.0707106781188 C 1397.0,2671.0704749758584 1396.9501666666667,2670.9501666666665 1396.95,2670.95 L 1396.0,2670.0"/>
  <path fill="none" stroke="#5bff60" stroke-width="20" stroke-opacity="1" d="M 1397.0,2885.0 L 1397.0,2671.0707106781188 C 1397.0,2671.0704749758584 1396.9501666666667,2670.9501666666665 1396.95,2670.95 L 1396.0,2670.0"/>
  <path fill="none" stroke="#5cff57" stroke-width="20" stroke-opacity="1" d="M 1397.0,2885.0 L 1397.0,2671.0707106781188 C 1397.0,2671.0704749758584 1396.9501666666667,2670.9501666666665 1396.95,2670.95 L 1396.0,2670.0"/>
  <path fill="none" stroke="#62ff52" stroke-width="20" stroke-opacity="1" d="M 1397.0,2885.0 L 1397.0,2671.0707106781188 C 1397.0,2671.0704749758584 1396.9501666666667,2670.9501666666665 1396.95,2670.95 L 1396.0,2670.0"/>
  <path fill="none" stroke="#69ff4e" stroke-width="20" stroke-opacity="1" d="M 1397.0,2885.0 L 1397.0,2671.0707106781188 C 1397.0,2671.0704749758584 1396.9501666666667,2670.9501666666665 1396.95,2670.95 L 1396.0,2670.0"/>
  <path fill="none" stroke="#71ff4a" stroke-width="20" stroke-opacity="1" d="M 1397.0,2885.0 L 1397.0,2671.0707106781188 C 1397.0,2671.0704749758584 1396.9501666666667,2670.9501666666665 1396.95,2670.95 L 1396.0,2670.0"/>
  <path fill="none" stroke="#79ff45" stroke-width="20" stroke-opacity="1" d="M 1397.0,2885.0 L 1397.0,2671.0707106781188 C 1397.0,2671.0704749758584 1396.9501666666667,2670.9501666666665 1396.95,2670.95 L 1396.0,2670.0"/>
  <path fill="none" stroke="#81ff41" stroke-width="20" stroke-opacity="1" d="M 1397.0,2885.0 L 1397.0,2671.0707106781188 C 1397.0,2671.0704749758584 1396.9501666666667,2670.9501666666665 1396.95,2670.95 L 1396.0,2670.0"/>
  <path fill="none" stroke="#8aff3d" stroke-width="20" stroke-opacity="1" d="M 1397.0,2885.0 L 1397.0,2671.0707106781188 C 1397.0,2671.0704749758584 1396.9501666666667,2670.9501666666665 1396.95,2670.95 L 1396.0,2670.0"/>
  <path fill="none" stroke="#94ff38" stroke-width="20" stroke-opacity="1" d="M 1397.0,2885.0 L 1397.0,2671.0707106781188 C 1397.0,2671.0704749758584 1396.9501666666667,2670.9501666666665 1396.95,2670.95 L 1396.0,2670.0"/>
  <path fill="none" stroke="#9eff34" stroke-width="20" stroke-opacity="1" d="M 1397.0,2885.0 L 1397.0,2671.0707106781188 C 1397.0,2671.0704749758584 1396.9501666666667,2670.9501666666665 1396.95,2670.95 L 1396.0,2670.0"/>
  <path fill="none" stroke="#a9fe30" stroke-width="20" stroke-opacity="1" d="M 1397.0,2885.0 L 1397.0,2671.0707106781188 C 1397.0,2671.0704749758584 1396.9501666666667,2670.9501666666665 1396.95,2670.95 L 1396.0,2670.0"/>
  <path fill="none" stroke="#b4ff2b" stroke-width="20" stroke-opacity="1" d="M 1397.0,2885.0 L 1397.0,2671.0707106781188 C 1397.0,2671.0704749758584 1396.9501666666667,2670.9501666666665 1396.95,2670.95 L 1396.0,2670.0"/>
  <path fill="none" stroke="#c0ff27" stroke-width="20" stroke-opacity="1" d="M 1456.0,1188.0 L 1465.5,1198.45 C 1465.5016666666668,1198.4518333333333 1466.7408257592413,1199.0 1466.743303437366,1199.0 L 1764.256696562634,1199.0 C 1764.2591742407587,1199.0 1765.5481666666667,1199.4983333333332 1765.55,1199.5 L 1776.0,1209.0"/>
  <path fill="none" stroke="#ccff23" stroke-width="20" stroke-opacity="1" d="M 1776.0,1209.0 L 1808.9393398282202,1176.0606601717798 C 1808.9428753621262,1176.0571246378738 1810.0,1173.505 1810.0,1173.5 L 1810.0,978.5 C 1810.0,978.495 1811.0723326743846,975.9583054020264 1811.0759190712888,975.9548214736051 L 1845.0,943.0"/>
  <path fill="none" stroke="#d9ff1e" stroke-width="20" stroke-opacity="1" d="M 1845.0,943.0 L 1741.0707106781188,839.0707106781186 C 1741.0704749758584,839.0704749758582 1741.0,838.9003333333334 1741.0,838.9 L 1741.0,837.095 C 1741.0,837.0946833333334 1740.9330487729346,836.9330487729346 1740.9328248557872,836.9328248557873 L 1637.0,733.0"/>
  <path fill="none" stroke="#e6ff1a" stroke-width="20" stroke-opacity="1" d="M 1464.0,500.0 L 1549.9332266661531,584.945488428611 C 1549.9367825772658,584.9490034671824 1551.0,587.495 1551.0,587.5 L 1551.0,644.5 C 1551.0,644.505 1552.0509965328176,647.063217422734 1552.054511571389,647.066773333847 L 1637.0,733.0"/>
  <path fill="none" stroke="#f4ff16" stroke-width="20" stroke-opacity="1" d="M 1982.0,2797.0 L 1928.0606601717798,2743.06066017178 C 1928.0571246378738,2743.057124637874 1925.505,2742.0 1925.5,2742.0 L 1726.5,2742.0 C 1726.495,2742.0 1723.9526178304027,2740.933221864299 1723.9491148800028,2740.929654044447 L 1671.0,2687.0"/>
  <path fill="none" stroke="#fefb12" stroke-width="20" stroke-opacity="1" d="M 1982.0,2797.0 L 2022.9518907141874,2755.073064268808 C 2022.9553844118066,2755.0694873879124 2025.495,2754.0 2025.5,2754.0 L 2220.5,2754.0 C 2220.505,2754.0 2223.057124637874,2752.942875362126 2223.06066017178,2752.93933982822 L 2264.0,2712.0"/>
  <path fill="none" stroke="#feec0d" stroke-width="20" stroke-opacity="1" d="M 1397.0,2885.0 L 1494.9393398282202,2787.06066017178 C 1494.9428753621262,2787.057124637874 1497.495,2786.0 1497.5,2786.0 L 1569.5,2786.0 C 1569.505,2786.0 1572.0624234079703,2784.9482008261093 1572.0659766635154,2784.94468310312 L 1671.0,2687.0"/>
  <path fill="none" stroke="#ffdc09" stroke-width="20" stroke-opacity="1" d="M 1837.0,3500.0 L 1847.45,3488.6 C 1847.4518333333333,3488.598 1848.0,3487.188772106961 1848.0,3487.186058970195 L 1848.0,3135.7778174593054 C 1848.0,3135.775224734441 1848.5481666666667,3134.4518333333335 1848.55,3134.45 L 1859.0,3124.0"/>
  <path fill="none" stroke="#ffcd05" stroke-width="20" stroke-opacity="1" d="M 1581.0,2213.0 L 1450.425886475598,2083.4226354337993 C 1450.4244668540125,2083.42122664902 1449.402,2083.0 1449.4,2083.0 L 1438.57,2083.0 C 1438.5681,2083.0 1437.599834683431,2082.5967564886882 1437.5984963378905,2082.595407848182 L 1308.0,1952.0"/>
  <path fill="none" stroke="#ffbc00" stroke-width="20" stroke-opacity="1" d="M 1982.0,2797.0 L 1922.0606601717798,2856.93933982822 C 1922.0571246378738,2856.942875362126 1921.0,2859.495 1921.0,2859.5 L 1921.0,3061.5 C 1921.0,3061.505 1919.9343160721996,3064.048495477352 1919.9307519119059,3064.0520021511893 L 1859.0,3124.0"/>
  <path fill="none" stroke="#fbaa00" stroke-width="20" stroke-opacity="1" d="M 2264.0,2712.0 L 2372.1514718625763,2820.1514718625763 C 2372.154300289701,2820.154300289701 2373.0,2822.196 2373.0,2822.2 L 2373.0,2843.86 C 2373.0,2843.8638 2373.803414724784,2845.803414724784 2373.8061017305527,2845.8061017305527 L 2483.0,2955.0"/>
  <path fill="none" stroke="#f79800" stroke-width="20" stroke-opacity="1" d="M 1999.0,2211.0 L 2122.084460289844,2086.922923094915 C 2122.087512088878,2086.9198466845987 2123.0,2084.704333333333 2123.0,2084.7 L 2123.0,2061.235 C 2123.0,2061.230883333333 2123.8703659518496,2059.1296340481504 2123.8732768747655,2059.1267231252345 L 2248.0,1935.0"/>
  <path fill="none" stroke="#f28600" stroke-width="20" stroke-opacity="1" d="M 1981.0,2544.0 L 1989.55,2535.45 C 1989.5515,2535.4485 1990.0,2534.3657252172757 1990.0,2534.363603896932 L 1990.0,2220.636396103068 C 1990.0,2220.6342747827243 1990.4485,2219.5515 1990.45,2219.55 L 1999.0,2211.0"/>
  <path fill="none" stroke="#ee7500" stroke-width="20" stroke-opacity="1" d="M 1981.0,2544.0 L 1981.0,2545.0 L 1981.0,2795.9292893218812 C 1981.0,2795.9295250241416 1981.0498333333333,2796.0498333333335 1981.05,2796.05 L 1982.0,2797.0"/>
  <path fill="none" stroke="#ea6400" stroke-width="20" stroke-opacity="1" d="M 1981.0,2544.0 L 2063.93933982822,2626.93933982822 C 2063.942875362126,2626.942875362126 2066.495,2628.0 2066.5,2628.0 L 2178.5,2628.0 C 2178.505,2628.0 2181.057124637874,2629.057124637874 2181.06066017178,2629.06066017178 L 2264.0,2712.0"/>
  <path fill="none" stroke="#e55400" stroke-width="20" stroke-opacity="1" d="M 1981.0,2544.0 L 1910.0680512610977,2613.9467827841954 C 1910.0644910902274,2613.950293508248 1907.505,2615.0 1907.5,2615.0 L 1743.5,2615.0 C 1743.495,2615.0 1740.950293508248,2616.0644910902274 1740.9467827841952,2616.068051261098 L 1671.0,2687.0"/>
  <path fill="none" stroke="#e14500" stroke-width="20" stroke-opacity="1" d="M 1396.0,2670.0 L 1403.6,2678.55 C 1403.6013333333333,2678.5515 1404.6000727965097,2679.0 1404.6020797289395,2679.0 L 1661.3979202710605,2679.0 C 1661.3999272034903,2679.0 1662.4485,2679.3986666666665 1662.45,2679.4 L 1671.0,2687.0"/>
  <path fill="none" stroke="#dd3600" stroke-width="20" stroke-opacity="1" d="M 1488.0,3132.0 L 1491.8,3128.2 C 1491.8006666666668,3128.1993333333335 1492.281899903433,3128.0 1492.2828427124746,3128.0 L 1854.7171572875254,3128.0 C 1854.718100096567,3128.0 1855.1993333333332,3127.8006666666665 1855.2,3127.8 L 1859.0,3124.0"/>
  <path fill="none" stroke="#d82800" stroke-width="20" stroke-opacity="1" d="M 1594.0,3432.0 L 1626.9393398282202,3464.93933982822 C 1626.9428753621262,3464.942875362126 1629.495,3466.0 1629.5,3466.0 L 1801.5,3466.0 C 1801.505,3466.0 1804.0571246378738,3467.057124637874 1804.0606601717798,3467.06066017178 L 1837.0,3500.0"/>
  <path fill="none" stroke="#d41a00" stroke-width="20" stroke-opacity="1" d="M 1488.0,3132.0 L 1539.9393398282202,3183.93933982822 C 1539.9428753621262,3183.942875362126 1541.0,3186.495 1541.0,3186.5 L 1541.0,3377.5 C 1541.0,3377.505 1542.0571246378738,3380.057124637874 1542.0606601717798,3380.06066017178 L 1594.0,3432.0"/>
  <path fill="none" stroke="#d00c00" stroke-width="20" stroke-opacity="1" d="M 1397.0,2885.0 L 1441.9393398282202,2929.93933982822 C 1441.9428753621262,2929.942875362126 1443.0,2932.495 1443.0,2932.5 L 1443.0,3085.5 C 1443.0,3085.505 1444.0571246378738,3088.057124637874 1444.0606601717798,3088.06066017178 L 1488.0,3132.0"/>
  <path fill="none" stroke="#cc0000" stroke-width="20" stroke-opacity="1" d="M 1397.0,2885.0 L 1397.0,2671.0707106781188 C 1397.0,2671.0704749758584 1396.9501666666667,2670.9501666666665 1396.95,2670.95 L 1396.0,2670.0"/>
  <g>
    <circle r="68.55654600401044" fill="white" stroke="black" stroke-width="9.0" cx="1397" cy="2885"/>
    <text fill="black" stroke="none" font-size="60" font-family="p22" font-weight="100" text-anchor="start" dominant-baseline="middle" x="1467" y="2885">Colombo</text>
  </g>
  <g>
    <circle r="67.82329983125268" fill="white" stroke="black" stroke-width="9.0" cx="1396" cy="2670"/>
    <text fill="black" stroke="none" font-size="60" font-family="p22" font-weight="100" text-anchor="start" dominant-baseline="middle" x="1466" y="2670">Gampaha</text>
  </g>
  <g>
    <circle r="20.0" fill="white" stroke="black" stroke-width="9.0" cx="1488" cy="3132"/>
    <text fill="black" stroke="none" font-size="60" font-family="p22" font-weight="100" text-anchor="start" dominant-baseline="middle" x="1558" y="3132">Kalutara</text>
  </g>
  <g>
    <circle r="22.360679774997898" fill="white" stroke="black" stroke-width="9.0" cx="1981" cy="2544"/>
    <text fill="black" stroke="none" font-size="60" font-family="p22" font-weight="100" text-anchor="start" dominant-baseline="middle" x="2051" y="2544">Kandy</text>
  </g>
  <g>
    <text fill="lightgrey" stroke="none" font-size="30.0" font-family="p22" font-weight="100" text-anchor="start" dominant-baseline="middle" x="2039.0" y="2211">Matale</text>
  </g>
  <g>
    <circle r="22.360679774997898" fill="white" stroke="black" stroke-width="9.0" cx="1982" cy="2797"/>
    <text fill="black" stroke="none" font-size="60" font-family="p22" font-weight="100" text-anchor="start" dominant-baseline="middle" x="2052" y="2797">Nuwara Eliya</text>
  </g>
  <g>
    <text fill="lightgrey" stroke="none" font-size="30.0" font-family="p22" font-weight="100" text-anchor="start" dominant-baseline="middle" x="1634.0" y="3432">Galle</text>
  </g>
  <g>
    <text fill="lightgrey" stroke="none" font-size="30.0" font-family="p22" font-weight="100" text-anchor="start" dominant-baseline="middle" x="1877.0" y="3500">Matara</text>
  </g>
  <g>
    <circle r="14.142135623730951" fill="white" stroke="black" stroke-width="9.0" cx="1464" cy="500"/>
    <text fill="black" stroke="none" font-size="45.0" font-family="p22" font-weight="100" text-anchor="start" dominant-baseline="middle" x="1519.0" y="500">Jaffna</text>
  </g>
  <g>
    <circle r="14.142135623730951" fill="white" stroke="black" stroke-width="9.0" cx="1456" cy="1188"/>
    <text fill="black" stroke="none" font-size="45.0" font-family="p22" font-weight="100" text-anchor="start" dominant-baseline="middle" x="1511.0" y="1188">Mannar</text>
  </g>
  <g>
    <text fill="lightgrey" stroke="none" font-size="30.0" font-family="p22" font-weight="100" text-anchor="start" dominant-baseline="middle" x="1816.0" y="1209">Vavuniya</text>
  </g>
  <g>
    <text fill="lightgrey" stroke="none" font-size="30.0" font-family="p22" font-weight="100" text-anchor="start" dominant-baseline="middle" x="1885.0" y="943">Mullaitivu</text>
  </g>
  <g>
    <text fill="lightgrey" stroke="none" font-size="30.0" font-family="p22" font-weight="100" text-anchor="start" dominant-baseline="middle" x="1677.0" y="733">Kilinochchi</text>
  </g>
  <g>
    <circle r="14.142135623730951" fill="white" stroke="black" stroke-width="9.0" cx="1581" cy="2213"/>
    <text fill="black" stroke="none" font-size="45.0" font-family="p22" font-weight="100" text-anchor="start" dominant-baseline="middle" x="1636.0" y="2213">Kurunegala</text>
  </g>
  <g>
    <circle r="14.142135623730951" fill="white" stroke="black" stroke-width="9.0" cx="1308" cy="1952"/>
    <text fill="black" stroke="none" font-size="45.0" font-family="p22" font-weight="100" text-anchor="start" dominant-baseline="middle" x="1363.0" y="1952">Puttalam</text>
  </g>
  <g>
    <circle r="14.142135623730951" fill="white" stroke="black" stroke-width="9.0" cx="2248" cy="1935"/>
    <text fill="black" stroke="none" font-size="45.0" font-family="p22" font-weight="100" text-anchor="start" dominant-baseline="middle" x="2303.0" y="1935">Polonnaruwa</text>
  </g>
  <g>
    <circle r="20.0" fill="white" stroke="black" stroke-width="9.0" cx="2264" cy="2712"/>
    <text fill="black" stroke="none" font-size="60" font-family="p22" font-weight="100" text-anchor="start" dominant-baseline="middle" x="2334" y="2712">Badulla</text>
  </g>
  <g>
    <circle r="14.142135623730951" fill="white" stroke="black" stroke-width="9.0" cx="2483" cy="2955"/>
    <text fill="black" stroke="none" font-size="45.0" font-family="p22" font-weight="100" text-anchor="start" dominant-baseline="middle" x="2538.0" y="2955">Moneragala</text>
  </g>
  <g>
    <circle r="20.0" fill="white" stroke="black" stroke-width="9.0" cx="1859" cy="3124"/>
    <text fill="black" stroke="none" font-size="60" font-family="p22" font-weight="100" text-anchor="start" dominant-baseline="middle" x="1929" y="3124">Ratnapura</text>
  </g>
  <g>
    <circle r="22.360679774997898" fill="white" stroke="black" stroke-width="9.0" cx="1671" cy="2687"/>
    <text fill="black" stroke="none" font-size="60" font-family="p22" font-weight="100" text-anchor="start" dominant-baseline="middle" x="1741" y="2687">Kegalle</text>
  </g>
</svg>
