<?xml version="1.0" ?>
<svg xmlns="http://www.w3.org/2000/svg" width="4000" height="4000" padding="500">
  <text x="2000.0" y="125.0" fill="gray" stroke="none" font-size="60" font-family="p22" text-anchor="middle" dominant-baseline="hanging">Sri Lanka</text>
  <text x="2000.0" y="250.0" fill="gray" stroke="none" font-size="120" font-family="p22" text-anchor="middle" dominant-baseline="hanging">Population Optimized Hypothetical Railway Network</text>
  <text x="2000.0" y="3750.0" fill="gray" stroke="none" font-size="60" font-family="p22" text-anchor="middle" dominant-baseline="hanging">music by @bensound ~ visualization by @nuuuwan</text>
  <text x="3000.0" y="1000.0" fill="lightgrey" stroke="none" font-size="180" font-family="p22" text-anchor="start" dominant-baseline="hanging">1,583km</text>
  <path fill="none" stroke="#dbe0ff" stroke-width="20" stroke-opacity="1" d="M 2321.0,3397.0 L 2409.945215927213,3307.0665038958177 C 2409.948731874122,3307.0629488828317 2411.0,3304.505 2411.0,3304.5 L 2411.0,3024.5 C 2411.0,3024.495 2412.0629488828317,3021.948731874122 2412.0665038958177,3021.945215927213 L 2502.0,2933.0"/>
  <path fill="none" stroke="#d2defe" stroke-width="20" stroke-opacity="1" d="M 1998.0,2158.0 L 1903.0606601717798,2063.06066017178 C 1903.0571246378738,2063.057124637874 1902.0,2060.505 1902.0,2060.5 L 1902.0,1617.5 C 1902.0,1617.495 1900.9428753621262,1614.9428753621262 1900.9393398282202,1614.9393398282202 L 1806.0,1520.0"/>
  <path fill="none" stroke="#c8dfff" stroke-width="20" stroke-opacity="1" d="M 1372.0,2860.0 L 1474.9342283023311,2758.0555238928837 C 1474.9377808746567,2758.052005479907 1477.495,2757.0 1477.5,2757.0 L 1551.5,2757.0 C 1551.505,2757.0 1554.0571246378738,2755.942875362126 1554.0606601717798,2755.93933982822 L 1656.0,2654.0"/>
  <path fill="none" stroke="#bee2ff" stroke-width="20" stroke-opacity="1" d="M 1981.0,2767.0 L 2023.9272191963985,2725.0483994217016 C 2023.9307951324104,2725.0449047569623 2026.495,2724.0 2026.5,2724.0 L 2228.5,2724.0 C 2228.505,2724.0 2231.057124637874,2722.942875362126 2231.06066017178,2722.93933982822 L 2274.0,2680.0"/>
  <path fill="none" stroke="#b5e8fe" stroke-width="20" stroke-opacity="1" d="M 1830.0,3500.0 L 1840.45,3488.6 C 1840.4518333333333,3488.598 1841.0,3487.188772106961 1841.0,3487.186058970195 L 1841.0,3121.8485281374237 C 1841.0,3121.845699710299 1841.598,3120.402 1841.6,3120.4 L 1853.0,3109.0"/>
  <path fill="none" stroke="#abf0ff" stroke-width="20" stroke-opacity="1" d="M 1562.0,2160.0 L 1682.9393398282202,2039.0606601717798 C 1682.9428753621262,2039.0571246378738 1684.0,2036.505 1684.0,2036.5 L 1684.0,1643.5 C 1684.0,1643.495 1685.0571246378738,1640.9428753621262 1685.0606601717798,1640.9393398282202 L 1806.0,1520.0"/>
  <path fill="none" stroke="#a1fbff" stroke-width="20" stroke-opacity="1" d="M 1981.0,2767.0 L 1918.0606601717798,2829.93933982822 C 1918.0571246378738,2829.942875362126 1917.0,2832.495 1917.0,2832.5 L 1917.0,3043.5 C 1917.0,3043.505 1915.9428753621262,3046.057124637874 1915.9393398282202,3046.06066017178 L 1853.0,3109.0"/>
  <path fill="none" stroke="#98fff4" stroke-width="20" stroke-opacity="1" d="M 1979.0,2505.0 L 1906.0606601717798,2577.93933982822 C 1906.0571246378738,2577.942875362126 1903.505,2579.0 1903.5,2579.0 L 1731.5,2579.0 C 1731.495,2579.0 1728.9499938058102,2580.064195467084 1728.946482079408,2580.0677546492484 L 1656.0,2654.0"/>
  <path fill="none" stroke="#8effe3" stroke-width="20" stroke-opacity="1" d="M 2313.0,1384.0 L 2286.06066017178,1410.9393398282202 C 2286.057124637874,1410.9428753621262 2285.0,1413.495 2285.0,1413.5 L 2285.0,1841.5 C 2285.0,1841.505 2283.942875362126,1844.0571246378738 2283.93933982822,1844.0606601717798 L 2257.0,1871.0"/>
  <path fill="none" stroke="#84ffd0" stroke-width="20" stroke-opacity="1" d="M 1998.0,2158.0 L 2127.0454058453984,2028.9545941546019 C 2127.0485878259133,2028.9514121740865 2128.0,2026.6545 2128.0,2026.65 L 2128.0,2002.2825 C 2128.0,2002.278225 2128.900345118753,2000.0926754617215 2128.9033563064413,2000.0896409314932 L 2257.0,1871.0"/>
  <path fill="none" stroke="#7bffba" stroke-width="20" stroke-opacity="1" d="M 1979.0,2505.0 L 1987.55,2496.45 C 1987.5515,2496.4485 1988.0,2495.3657252172757 1988.0,2495.363603896932 L 1988.0,2167.6726812023535 C 1988.0,2167.670438931679 1988.4983333333332,2166.5515 1988.5,2166.55 L 1998.0,2158.0"/>
  <path fill="none" stroke="#71fea2" stroke-width="20" stroke-opacity="1" d="M 1696.0,998.0 L 1749.9393398282202,1051.9393398282202 C 1749.9428753621262,1051.9428753621262 1751.0,1054.495 1751.0,1054.5 L 1751.0,1463.5 C 1751.0,1463.505 1752.0571246378738,1466.0571246378738 1752.0606601717798,1466.0606601717798 L 1806.0,1520.0"/>
  <path fill="none" stroke="#67ff87" stroke-width="20" stroke-opacity="1" d="M 1830.0,3500.0 L 1879.9496869996613,3449.0709073728945 C 1879.9531880429959,3449.067337681651 1882.495,3448.0 1882.5,3448.0 L 2268.5,3448.0 C 2268.505,3448.0 2271.057124637874,3446.942875362126 2271.06066017178,3446.93933982822 L 2321.0,3397.0"/>
  <path fill="none" stroke="#5eff69" stroke-width="20" stroke-opacity="1" d="M 2274.0,2680.0 L 2387.1161165235167,2793.1161165235167 C 2387.1190628017716,2793.1190628017716 2388.0,2795.2458333333334 2388.0,2795.25 L 2388.0,2817.8125 C 2388.0,2817.8164583333332 2388.8368903383166,2819.8368903383166 2388.839689302659,2819.839689302659 L 2502.0,2933.0"/>
  <path fill="none" stroke="#60fe54" stroke-width="20" stroke-opacity="1" d="M 2668.0,2067.0 L 2691.93933982822,2090.93933982822 C 2691.942875362126,2090.942875362126 2693.0,2093.495 2693.0,2093.5 L 2693.0,2510.5 C 2693.0,2510.505 2694.0776454320285,2513.0361975307965 2694.081249597353,2513.0396630743776 L 2719.0,2537.0"/>
  <path fill="none" stroke="#70ff4a" stroke-width="20" stroke-opacity="1" d="M 1553.0,500.0 L 1677.9393398282202,624.9393398282202 C 1677.9428753621262,624.9428753621261 1679.0,627.495 1679.0,627.5 L 1679.0,1392.5 C 1679.0,1392.505 1680.0612947059597,1395.0529380547316 1680.0648441865817,1395.0564595866872 L 1806.0,1520.0"/>
  <path fill="none" stroke="#82ff41" stroke-width="20" stroke-opacity="1" d="M 1370.0,2637.0 L 1378.55,2644.6 C 1378.5515,2644.6013333333335 1379.6000727965097,2645.0 1379.6020797289395,2645.0 L 1647.3979202710605,2645.0 C 1647.3999272034903,2645.0 1648.3986666666667,2645.4485 1648.4,2645.45 L 1656.0,2654.0"/>
  <path fill="none" stroke="#97ff37" stroke-width="20" stroke-opacity="1" d="M 1979.0,2505.0 L 1979.95,2505.95 C 1979.9501666666667,2505.9501666666665 1980.0,2506.0704749758584 1980.0,2506.0707106781188 L 1980.0,2766.95 C 1980.0,2766.9501666666665 1980.0498333333333,2767.0 1980.05,2767.0 L 1981.0,2767.0"/>
  <path fill="none" stroke="#affe2d" stroke-width="20" stroke-opacity="1" d="M 2719.0,2537.0 L 2648.068051261098,2606.9467827841954 C 2648.0644910902274,2606.950293508248 2645.505,2608.0 2645.5,2608.0 L 2346.5,2608.0 C 2346.495,2608.0 2343.950293508248,2609.0644910902274 2343.9467827841954,2609.068051261098 L 2274.0,2680.0"/>
  <path fill="none" stroke="#caff24" stroke-width="20" stroke-opacity="1" d="M 1280.0,1892.0 L 1465.9365000572518,1707.057812777279 C 1465.940045057061,1707.054286734688 1468.495,1706.0 1468.5,1706.0 L 1618.5,1706.0 C 1618.505,1706.0 1621.0571246378738,1704.9428753621262 1621.0606601717798,1704.9393398282202 L 1806.0,1520.0"/>
  <path fill="none" stroke="#e7ff1a" stroke-width="20" stroke-opacity="1" d="M 1979.0,2505.0 L 2064.93933982822,2590.93933982822 C 2064.942875362126,2590.942875362126 2067.495,2592.0 2067.5,2592.0 L 2185.5,2592.0 C 2185.505,2592.0 2188.051066765524,2593.0631479927138 2188.054582038987,2593.066703671619 L 2274.0,2680.0"/>
  <path fill="none" stroke="#fff610" stroke-width="20" stroke-opacity="1" d="M 1979.0,2505.0 L 1808.0606601717798,2334.06066017178 C 1808.0571246378738,2334.057124637874 1805.505,2333.0 1805.5,2333.0 L 1736.5,2333.0 C 1736.495,2333.0 1733.9428753621262,2331.942875362126 1733.9393398282202,2331.93933982822 L 1562.0,2160.0"/>
  <path fill="none" stroke="#ffd407" stroke-width="20" stroke-opacity="1" d="M 1467.0,3118.0 L 1470.8,3113.25 C 1470.8006666666668,3113.2491666666665 1471.3190890244987,3113.0 1471.3201562118716,3113.0 L 1847.6798437881284,3113.0 C 1847.6809109755013,3113.0 1848.2491666666667,3112.8006666666665 1848.25,3112.8 L 1853.0,3109.0"/>
  <path fill="none" stroke="#fcae00" stroke-width="20" stroke-opacity="1" d="M 1562.0,2160.0 L 1429.528340125278,2026.532312607423 C 1429.526578991527,2026.5305382320648 1428.2525,2026.0 1428.25,2026.0 L 1414.7125,2026.0 C 1414.710125,2026.0 1413.4978657970098,2025.4978657970098 1413.4961864184045,2025.4961864184045 L 1280.0,1892.0"/>
  <path fill="none" stroke="#f28500" stroke-width="20" stroke-opacity="1" d="M 1576.0,3429.0 L 1609.9393398282202,3462.93933982822 C 1609.9428753621262,3462.942875362126 1612.495,3464.0 1612.5,3464.0 L 1792.5,3464.0 C 1792.505,3464.0 1795.0571246378738,3465.057124637874 1795.0606601717798,3465.06066017178 L 1830.0,3500.0"/>
  <path fill="none" stroke="#e96000" stroke-width="20" stroke-opacity="1" d="M 1467.0,3118.0 L 1519.9393398282202,3170.93933982822 C 1519.9428753621262,3170.942875362126 1521.0,3173.495 1521.0,3173.5 L 1521.0,3372.5 C 1521.0,3372.505 1522.0571246378738,3375.057124637874 1522.0606601717798,3375.06066017178 L 1576.0,3429.0"/>
  <path fill="none" stroke="#df3d00" stroke-width="20" stroke-opacity="1" d="M 1372.0,2860.0 L 1418.9282343602597,2905.950562811088 C 1418.9318069123922,2905.9540609350506 1420.0,2908.495 1420.0,2908.5 L 1420.0,3069.5 C 1420.0,3069.505 1421.0571246378738,3072.057124637874 1421.0606601717798,3072.06066017178 L 1467.0,3118.0"/>
  <path fill="none" stroke="#d51d00" stroke-width="20" stroke-opacity="1" d="M 1370.0,2637.0 L 1464.9393398282202,2542.06066017178 C 1464.9428753621262,2542.057124637874 1466.0,2539.505 1466.0,2539.5 L 1466.0,2257.5 C 1466.0,2257.495 1467.0571246378738,2254.942875362126 1467.0606601717798,2254.93933982822 L 1562.0,2160.0"/>
  <path fill="none" stroke="#cc0000" stroke-width="20" stroke-opacity="1" d="M 1372.0,2860.0 L 1371.05,2859.05 C 1371.0498333333333,2859.0498333333335 1371.0,2858.9295250241416 1371.0,2858.9292893218812 L 1371.0,2638.0707106781188 C 1371.0,2638.0704749758584 1370.9501666666667,2637.9501666666665 1370.95,2637.95 L 1370.0,2637.0"/>
  <g>
    <circle r="20.0" fill="white" stroke="black" stroke-width="9.0" cx="1372" cy="2860"/>
    <text fill="black" stroke="none" font-size="60" font-family="p22" font-weight="100" text-anchor="start" dominant-baseline="middle" x="1442" y="2860">Colombo</text>
  </g>
  <g>
    <circle r="20.0" fill="white" stroke="black" stroke-width="9.0" cx="1370" cy="2637"/>
    <text fill="black" stroke="none" font-size="60" font-family="p22" font-weight="100" text-anchor="start" dominant-baseline="middle" x="1440" y="2637">Gampaha</text>
  </g>
  <g>
    <circle r="20.0" fill="white" stroke="black" stroke-width="9.0" cx="1467" cy="3118"/>
    <text fill="black" stroke="none" font-size="60" font-family="p22" font-weight="100" text-anchor="start" dominant-baseline="middle" x="1537" y="3118">Kalutara</text>
  </g>
  <g>
    <circle r="24.49489742783178" fill="white" stroke="black" stroke-width="9.0" cx="1979" cy="2505"/>
    <text fill="black" stroke="none" font-size="60" font-family="p22" font-weight="100" text-anchor="start" dominant-baseline="middle" x="2049" y="2505">Kandy</text>
  </g>
  <g>
    <circle r="20.0" fill="white" stroke="black" stroke-width="9.0" cx="1998" cy="2158"/>
    <text fill="black" stroke="none" font-size="60" font-family="p22" font-weight="100" text-anchor="start" dominant-baseline="middle" x="2068" y="2158">Matale</text>
  </g>
  <g>
    <circle r="20.0" fill="white" stroke="black" stroke-width="9.0" cx="1981" cy="2767"/>
    <text fill="black" stroke="none" font-size="60" font-family="p22" font-weight="100" text-anchor="start" dominant-baseline="middle" x="2051" y="2767">Nuwara-Eliya</text>
  </g>
  <g>
    <text fill="lightgrey" stroke="none" font-size="30.0" font-family="p22" font-weight="100" text-anchor="start" dominant-baseline="middle" x="1616.0" y="3429">Galle</text>
  </g>
  <g>
    <circle r="20.0" fill="white" stroke="black" stroke-width="9.0" cx="1830" cy="3500"/>
    <text fill="black" stroke="none" font-size="60" font-family="p22" font-weight="100" text-anchor="start" dominant-baseline="middle" x="1900" y="3500">Matara</text>
  </g>
  <g>
    <text fill="lightgrey" stroke="none" font-size="30.0" font-family="p22" font-weight="100" text-anchor="start" dominant-baseline="middle" x="2361.0" y="3397">Hambantota</text>
  </g>
  <g>
    <circle r="14.142135623730951" fill="white" stroke="black" stroke-width="9.0" cx="1553" cy="500"/>
    <text fill="black" stroke="none" font-size="45.0" font-family="p22" font-weight="100" text-anchor="start" dominant-baseline="middle" x="1608.0" y="500">Jaffna</text>
  </g>
  <g>
    <circle r="14.142135623730951" fill="white" stroke="black" stroke-width="9.0" cx="1696" cy="998"/>
    <text fill="black" stroke="none" font-size="45.0" font-family="p22" font-weight="100" text-anchor="start" dominant-baseline="middle" x="1751.0" y="998">Vanni</text>
  </g>
  <g>
    <circle r="14.142135623730951" fill="white" stroke="black" stroke-width="9.0" cx="2668" cy="2067"/>
    <text fill="black" stroke="none" font-size="45.0" font-family="p22" font-weight="100" text-anchor="start" dominant-baseline="middle" x="2723.0" y="2067">Batticaloa</text>
  </g>
  <g>
    <text fill="lightgrey" stroke="none" font-size="30.0" font-family="p22" font-weight="100" text-anchor="start" dominant-baseline="middle" x="2759.0" y="2537">Digamadulla</text>
  </g>
  <g>
    <circle r="14.142135623730951" fill="white" stroke="black" stroke-width="9.0" cx="2313" cy="1384"/>
    <text fill="black" stroke="none" font-size="45.0" font-family="p22" font-weight="100" text-anchor="start" dominant-baseline="middle" x="2368.0" y="1384">Trincomalee</text>
  </g>
  <g>
    <circle r="22.360679774997898" fill="white" stroke="black" stroke-width="9.0" cx="1562" cy="2160"/>
    <text fill="black" stroke="none" font-size="60" font-family="p22" font-weight="100" text-anchor="start" dominant-baseline="middle" x="1632" y="2160">Kurunegala</text>
  </g>
  <g>
    <text fill="lightgrey" stroke="none" font-size="30.0" font-family="p22" font-weight="100" text-anchor="start" dominant-baseline="middle" x="1320.0" y="1892">Puttalam</text>
  </g>
  <g>
    <circle r="24.49489742783178" fill="white" stroke="black" stroke-width="9.0" cx="1806" cy="1520"/>
    <text fill="black" stroke="none" font-size="60" font-family="p22" font-weight="100" text-anchor="start" dominant-baseline="middle" x="1876" y="1520">Anuradhapura</text>
  </g>
  <g>
    <text fill="lightgrey" stroke="none" font-size="30.0" font-family="p22" font-weight="100" text-anchor="start" dominant-baseline="middle" x="2297.0" y="1871">Polonnaruwa</text>
  </g>
  <g>
    <circle r="22.360679774997898" fill="white" stroke="black" stroke-width="9.0" cx="2274" cy="2680"/>
    <text fill="black" stroke="none" font-size="60" font-family="p22" font-weight="100" text-anchor="start" dominant-baseline="middle" x="2344" y="2680">Badulla</text>
  </g>
  <g>
    <text fill="lightgrey" stroke="none" font-size="30.0" font-family="p22" font-weight="100" text-anchor="start" dominant-baseline="middle" x="2542.0" y="2933">Moneragala</text>
  </g>
  <g>
    <circle r="20.0" fill="white" stroke="black" stroke-width="9.0" cx="1853" cy="3109"/>
    <text fill="black" stroke="none" font-size="60" font-family="p22" font-weight="100" text-anchor="start" dominant-baseline="middle" x="1923" y="3109">Ratnapura</text>
  </g>
  <g>
    <circle r="20.0" fill="white" stroke="black" stroke-width="9.0" cx="1656" cy="2654"/>
    <text fill="black" stroke="none" font-size="60" font-family="p22" font-weight="100" text-anchor="start" dominant-baseline="middle" x="1726" y="2654">Kegalle</text>
  </g>
</svg>
