<?xml version="1.0" ?>
<svg xmlns="http://www.w3.org/2000/svg" width="6000" height="6000" padding="500">
  <g>
    <circle r="40" fill="#cc0000" stroke="none" stroke-width="9.0" cx="750.0" cy-offset="750.0" cy="750.0"/>
    <text fill="black" stroke="none" font-size="80" font-family="p22" font-weight="100" text-anchor="start" dominant-baseline="middle" x="838.0" y="750.0">Ealier</text>
    <circle r="40" fill="#ffcd05" stroke="none" stroke-width="9.0" cx="750.0" cy-offset="750.0" cy="830.0"/>
    <text fill="black" stroke="none" font-size="80" font-family="p22" font-weight="100" text-anchor="start" dominant-baseline="middle" x="838.0" y="830.0"/>
    <circle r="40" fill="#8aff3d" stroke="none" stroke-width="9.0" cx="750.0" cy-offset="750.0" cy="910.0"/>
    <text fill="black" stroke="none" font-size="80" font-family="p22" font-weight="100" text-anchor="start" dominant-baseline="middle" x="838.0" y="910.0"/>
    <circle r="40" fill="#75ffac" stroke="none" stroke-width="9.0" cx="750.0" cy-offset="750.0" cy="990.0"/>
    <text fill="black" stroke="none" font-size="80" font-family="p22" font-weight="100" text-anchor="start" dominant-baseline="middle" x="838.0" y="990.0"/>
    <circle r="40" fill="#adeeff" stroke="none" stroke-width="9.0" cx="750.0" cy-offset="750.0" cy="1070.0"/>
    <text fill="black" stroke="none" font-size="80" font-family="p22" font-weight="100" text-anchor="start" dominant-baseline="middle" x="838.0" y="1070.0"/>
    <circle r="40" fill="#e5e5ff" stroke="none" stroke-width="9.0" cx="750.0" cy-offset="750.0" cy="1150.0"/>
    <text fill="black" stroke="none" font-size="80" font-family="p22" font-weight="100" text-anchor="start" dominant-baseline="middle" x="838.0" y="1150.0">Later</text>
  </g>
  <text x="3000.0" y="250.0" fill="gray" stroke="none" font-size="80" font-family="p22" text-anchor="middle" dominant-baseline="hanging">Hypothetical Railway Network</text>
  <text x="3000.0" y="500" fill="gray" stroke="none" font-size="160" font-family="p22" text-anchor="middle" dominant-baseline="hanging">Phase 18</text>
  <text x="3000.0" y="5750.0" fill="gray" stroke="none" font-size="80" font-family="p22" text-anchor="middle" dominant-baseline="hanging">music by @bensound ~ visualization by @nuuuwan</text>
  <text x="5250.0" y="590.0" fill="lightgrey" stroke="none" font-size="80.0" font-family="p22" text-anchor="end" dominant-baseline="hanging">Network Length</text>
  <text x="5250.0" y="750.0" fill="lightgrey" stroke="none" font-size="160" font-family="p22" text-anchor="end" dominant-baseline="hanging">976km</text>
  <text x="5250.0" y="990.0" fill="lightgrey" stroke="none" font-size="80.0" font-family="p22" text-anchor="end" dominant-baseline="hanging">Mean Travel Time (MTT)</text>
  <text x="5250.0" y="1150.0" fill="lightgrey" stroke="none" font-size="160" font-family="p22" text-anchor="end" dominant-baseline="hanging">7h50m</text>
  <text x="5250.0" y="1390.0" fill="lightgrey" stroke="none" font-size="80.0" font-family="p22" text-anchor="end" dominant-baseline="hanging">MTT Reduction / Track Length</text>
  <text x="5250.0" y="1550.0" fill="lightgrey" stroke="none" font-size="160" font-family="p22" text-anchor="end" dominant-baseline="hanging">79s/km</text>
  <path fill="none" stroke="#e5e5ff" stroke-width="20" stroke-opacity="1" d="M 2968.0,3907.0 L 2982.25,3892.75 C 2982.2525,3892.7475 2983.0,3890.942875362126 2983.0,3890.93933982822 L 2983.0,3367.06066017178 C 2983.0,3367.057124637874 2983.7475,3365.2525 2983.75,3365.25 L 2998.0,3351.0"/>
  <path fill="none" stroke="#d5deff" stroke-width="20" stroke-opacity="1" d="M 2107.0,500.0 L 2397.93933982822,790.9393398282202 C 2397.942875362126,790.9428753621261 2399.0,793.495 2399.0,793.5 L 2399.0,2037.5 C 2399.0,2037.505 2400.057124637874,2040.0571246378738 2400.06066017178,2040.0606601717798 L 2691.0,2331.0"/>
  <path fill="none" stroke="#c4e0fe" stroke-width="20" stroke-opacity="1" d="M 2729.0,5500.0 L 2809.94578743262,5418.067068818202 C 2809.9493014745112,5418.063511922141 2812.495,5417.0 2812.5,5417.0 L 3431.5,5417.0 C 3431.505,5417.0 3434.063511922141,5415.949301474511 3434.0670688182017,5415.94578743262 L 3516.0,5335.0"/>
  <path fill="none" stroke="#b4e8ff" stroke-width="20" stroke-opacity="1" d="M 3440.0,4187.0 L 3621.936437901535,4367.9422497162805 C 3621.9399831085298,4367.94577555056 3623.0,4370.495 3623.0,4370.5 L 3623.0,4407.5 C 3623.0,4407.505 3624.057124637874,4410.057124637874 3624.06066017178,4410.06066017178 L 3805.0,4591.0"/>
  <path fill="none" stroke="#a3f9ff" stroke-width="20" stroke-opacity="1" d="M 4062.0,3175.0 L 4105.93933982822,3218.93933982822 C 4105.942875362126,3218.942875362126 4107.0,3221.495 4107.0,3221.5 L 4107.0,3911.5 C 4107.0,3911.505 4108.057124637874,3914.057124637874 4108.06066017178,3914.06066017178 L 4152.0,3958.0"/>
  <path fill="none" stroke="#93ffeb" stroke-width="20" stroke-opacity="1" d="M 1994.0,4118.0 L 2007.3,4130.35 C 2007.3023333333333,4130.352166666667 2008.9520644965314,4131.0 2008.9552486587272,4131.0 L 2437.044751341273,4131.0 C 2437.0479355034686,4131.0 2438.6478333333334,4131.697666666667 2438.65,4131.7 L 2451.0,4145.0"/>
  <path fill="none" stroke="#82ffcb" stroke-width="20" stroke-opacity="1" d="M 2968.0,3907.0 L 2968.95,3907.95 C 2968.9501666666665,3907.9501666666665 2969.0,3908.0704749758584 2969.0,3908.0707106781188 L 2969.0,4326.929289321882 C 2969.0,4326.929525024142 2969.0498333333335,4327.0498333333335 2969.05,4327.05 L 2970.0,4328.0"/>
  <path fill="none" stroke="#72ffa3" stroke-width="20" stroke-opacity="1" d="M 4152.0,3958.0 L 4038.0652817186806,4070.9439816006125 C 4038.0617307796183,4070.9475016619435 4035.505,4072.0 4035.5,4072.0 L 3556.5,4072.0 C 3556.495,4072.0 3553.942875362126,4073.057124637874 3553.93933982822,4073.06066017178 L 3440.0,4187.0"/>
  <path fill="none" stroke="#61ff74" stroke-width="20" stroke-opacity="1" d="M 1847.0,2920.0 L 2140.9375405782125,2627.058857864425 C 2140.9410821096185,2627.0553283382105 2143.495,2626.0 2143.5,2626.0 L 2394.5,2626.0 C 2394.505,2626.0 2397.057124637874,2624.942875362126 2397.06066017178,2624.93933982822 L 2691.0,2331.0"/>
  <path fill="none" stroke="#65ff51" stroke-width="20" stroke-opacity="1" d="M 2968.0,3907.0 L 3106.93933982822,4045.93933982822 C 3106.942875362126,4045.942875362126 3109.495,4047.0 3109.5,4047.0 L 3298.5,4047.0 C 3298.505,4047.0 3301.057124637874,4048.057124637874 3301.06066017178,4048.06066017178 L 3440.0,4187.0"/>
  <path fill="none" stroke="#83ff40" stroke-width="20" stroke-opacity="1" d="M 2968.0,3907.0 L 2693.06066017178,3632.06066017178 C 2693.057124637874,3632.057124637874 2690.505,3631.0 2690.5,3631.0 L 2578.5,3631.0 C 2578.495,3631.0 2575.9447956564504,3629.940958549747 2575.9412665449336,3629.937416605097 L 2302.0,3355.0"/>
  <path fill="none" stroke="#a9ff30" stroke-width="20" stroke-opacity="1" d="M 2148.0,4887.0 L 2153.7,4881.3 C 2153.701,4881.299 2154.4228498551497,4881.0 2154.424264068712,4881.0 L 2758.5050252531696,4881.0 C 2758.5066751689924,4881.0 2759.3488333333335,4880.6511666666665 2759.35,4880.65 L 2766.0,4874.0"/>
  <path fill="none" stroke="#d7ff1f" stroke-width="20" stroke-opacity="1" d="M 2302.0,3355.0 L 2084.7087304413003,3138.7054793842303 C 2084.706368006496,3138.703127786283 2083.0033333333336,3138.0 2083.0,3138.0 L 2064.95,3138.0 C 2064.9468333333334,3138.0 2063.332028603031,3137.3289503938286 2063.3297945849813,3137.3267060807643 L 1847.0,2920.0"/>
  <path fill="none" stroke="#fff00f" stroke-width="20" stroke-opacity="1" d="M 2323.0,5387.0 L 2378.929995352728,5441.948767364083 C 2378.933562034885,5441.95227147287 2381.495,5443.0 2381.5,5443.0 L 2671.5,5443.0 C 2671.505,5443.0 2674.04772852713,5444.066437965114 2674.0512326359167,5444.070004647272 L 2729.0,5500.0"/>
  <path fill="none" stroke="#fdb200" stroke-width="20" stroke-opacity="1" d="M 2148.0,4887.0 L 2233.945417961013,4973.9332963283805 C 2233.948933234476,4973.936852007287 2235.0,4976.495 2235.0,4976.5 L 2235.0,5297.5 C 2235.0,5297.505 2236.057124637874,5300.057124637874 2236.06066017178,5300.06066017178 L 2323.0,5387.0"/>
  <path fill="none" stroke="#ed6f00" stroke-width="20" stroke-opacity="1" d="M 1996.0,4475.0 L 2070.93933982822,4549.93933982822 C 2070.942875362126,4549.942875362126 2072.0,4552.495 2072.0,4552.5 L 2072.0,4809.5 C 2072.0,4809.505 2073.057124637874,4812.057124637874 2073.06066017178,4812.06066017178 L 2148.0,4887.0"/>
  <path fill="none" stroke="#dc3300" stroke-width="20" stroke-opacity="1" d="M 1994.0,4118.0 L 2146.93933982822,3965.06066017178 C 2146.942875362126,3965.057124637874 2148.0,3962.505 2148.0,3962.5 L 2148.0,3510.5 C 2148.0,3510.495 2149.057124637874,3507.942875362126 2149.06066017178,3507.93933982822 L 2302.0,3355.0"/>
  <path fill="none" stroke="#cc0000" stroke-width="20" stroke-opacity="1" d="M 1996.0,4475.0 L 1995.05,4475.0 C 1995.0498333333333,4475.0 1995.0,4474.9501666666665 1995.0,4474.95 L 1995.0,4119.070710678118 C 1995.0,4119.070474975858 1994.9501666666667,4118.9501666666665 1994.95,4118.95 L 1994.0,4118.0"/>
  <g>
    <circle r="17.32050807568877" fill="white" stroke="black" stroke-width="9.0" cx="1996" cy="4475"/>
    <text fill="black" stroke="none" font-size="80" font-family="p22" font-weight="100" text-anchor="start" dominant-baseline="middle" x="2086" y="4475">Colombo</text>
  </g>
  <g>
    <circle r="20.0" fill="white" stroke="black" stroke-width="9.0" cx="1994" cy="4118"/>
    <text fill="black" stroke="none" font-size="80" font-family="p22" font-weight="100" text-anchor="start" dominant-baseline="middle" x="2084" y="4118">Gampaha</text>
  </g>
  <g>
    <circle r="20.0" fill="white" stroke="black" stroke-width="9.0" cx="2148" cy="4887"/>
    <text fill="black" stroke="none" font-size="80" font-family="p22" font-weight="100" text-anchor="start" dominant-baseline="middle" x="2238" y="4887">Kalutara</text>
  </g>
  <g>
    <circle r="22.360679774997898" fill="white" stroke="black" stroke-width="9.0" cx="2968" cy="3907"/>
    <text fill="black" stroke="none" font-size="80" font-family="p22" font-weight="100" text-anchor="start" dominant-baseline="middle" x="3058" y="3907">Kandy</text>
  </g>
  <g>
    <circle r="14.142135623730951" fill="white" stroke="black" stroke-width="9.0" cx="2998" cy="3351"/>
    <text fill="gray" stroke="none" font-size="53.33333333333333" font-family="p22" font-weight="100" text-anchor="start" dominant-baseline="middle" x="3061.3333333333335" y="3351">Matale</text>
  </g>
  <g>
    <circle r="14.142135623730951" fill="white" stroke="black" stroke-width="9.0" cx="2970" cy="4328"/>
    <text fill="gray" stroke="none" font-size="53.33333333333333" font-family="p22" font-weight="100" text-anchor="start" dominant-baseline="middle" x="3033.3333333333335" y="4328">Nuwara Eliya</text>
  </g>
  <g>
    <circle r="17.32050807568877" fill="white" stroke="black" stroke-width="9.0" cx="2323" cy="5387"/>
    <text fill="black" stroke="none" font-size="80" font-family="p22" font-weight="100" text-anchor="start" dominant-baseline="middle" x="2413" y="5387">Galle</text>
  </g>
  <g>
    <circle r="17.32050807568877" fill="white" stroke="black" stroke-width="9.0" cx="2729" cy="5500"/>
    <text fill="black" stroke="none" font-size="80" font-family="p22" font-weight="100" text-anchor="start" dominant-baseline="middle" x="2819" y="5500">Matara</text>
  </g>
  <g>
    <circle r="14.142135623730951" fill="white" stroke="black" stroke-width="9.0" cx="3516" cy="5335"/>
    <text fill="gray" stroke="none" font-size="53.33333333333333" font-family="p22" font-weight="100" text-anchor="start" dominant-baseline="middle" x="3579.3333333333335" y="5335">Hambantota</text>
  </g>
  <g>
    <circle r="14.142135623730951" fill="white" stroke="black" stroke-width="9.0" cx="2107" cy="500"/>
    <text fill="gray" stroke="none" font-size="53.33333333333333" font-family="p22" font-weight="100" text-anchor="start" dominant-baseline="middle" x="2170.3333333333335" y="500">Jaffna</text>
  </g>
  <g>
    <circle r="14.142135623730951" fill="white" stroke="black" stroke-width="9.0" cx="4062" cy="3175"/>
    <text fill="gray" stroke="none" font-size="53.33333333333333" font-family="p22" font-weight="100" text-anchor="start" dominant-baseline="middle" x="4125.333333333333" y="3175">Batticaloa</text>
  </g>
  <g>
    <circle r="17.32050807568877" fill="white" stroke="black" stroke-width="9.0" cx="4152" cy="3958"/>
    <text fill="black" stroke="none" font-size="80" font-family="p22" font-weight="100" text-anchor="start" dominant-baseline="middle" x="4242" y="3958">Ampara</text>
  </g>
  <g>
    <circle r="20.0" fill="white" stroke="black" stroke-width="9.0" cx="2302" cy="3355"/>
    <text fill="black" stroke="none" font-size="80" font-family="p22" font-weight="100" text-anchor="start" dominant-baseline="middle" x="2392" y="3355">Kurunegala</text>
  </g>
  <g>
    <circle r="17.32050807568877" fill="white" stroke="black" stroke-width="9.0" cx="1847" cy="2920"/>
    <text fill="black" stroke="none" font-size="80" font-family="p22" font-weight="100" text-anchor="start" dominant-baseline="middle" x="1937" y="2920">Puttalam</text>
  </g>
  <g>
    <circle r="17.32050807568877" fill="white" stroke="black" stroke-width="9.0" cx="2691" cy="2331"/>
    <text fill="black" stroke="none" font-size="80" font-family="p22" font-weight="100" text-anchor="start" dominant-baseline="middle" x="2781" y="2331">Anuradhapura</text>
  </g>
  <g>
    <circle r="20.0" fill="white" stroke="black" stroke-width="9.0" cx="3440" cy="4187"/>
    <text fill="black" stroke="none" font-size="80" font-family="p22" font-weight="100" text-anchor="start" dominant-baseline="middle" x="3530" y="4187">Badulla</text>
  </g>
  <g>
    <circle r="14.142135623730951" fill="white" stroke="black" stroke-width="9.0" cx="3805" cy="4591"/>
    <text fill="gray" stroke="none" font-size="53.33333333333333" font-family="p22" font-weight="100" text-anchor="start" dominant-baseline="middle" x="3868.3333333333335" y="4591">Moneragala</text>
  </g>
  <g>
    <circle r="14.142135623730951" fill="white" stroke="black" stroke-width="9.0" cx="2766" cy="4874"/>
    <text fill="gray" stroke="none" font-size="53.33333333333333" font-family="p22" font-weight="100" text-anchor="start" dominant-baseline="middle" x="2829.3333333333335" y="4874">Ratnapura</text>
  </g>
  <g>
    <circle r="14.142135623730951" fill="white" stroke="black" stroke-width="9.0" cx="2451" cy="4145"/>
    <text fill="gray" stroke="none" font-size="53.33333333333333" font-family="p22" font-weight="100" text-anchor="start" dominant-baseline="middle" x="2514.3333333333335" y="4145">Kegalle</text>
  </g>
</svg>
